M48
; DRILL file {KiCad 7.0.5-0} date 2024 April 27, Saturday 19:15:10
; FORMAT={-:-/ absolute / metric / decimal}
; #@! TF.CreationDate,2024-04-27T19:15:10+02:00
; #@! TF.GenerationSoftware,Kicad,Pcbnew,7.0.5-0
; #@! TF.FileFunction,Plated,1,4,PTH
FMAT,2
METRIC
; #@! TA.AperFunction,Plated,PTH,ComponentDrill
T1C0.200
; #@! TA.AperFunction,Plated,PTH,ViaDrill
T2C0.300
; #@! TA.AperFunction,Plated,PTH,ViaDrill
T3C0.400
; #@! TA.AperFunction,Plated,PTH,ComponentDrill
T4C0.400
; #@! TA.AperFunction,Plated,PTH,ComponentDrill
T5C0.600
; #@! TA.AperFunction,Plated,PTH,ComponentDrill
T6C1.000
; #@! TA.AperFunction,Plated,PTH,ComponentDrill
T7C2.200
%
G90
G05
T1
X80.763Y-58.14
X80.763Y-59.24
X113.055Y-65.727
X113.055Y-67.252
X113.817Y-64.965
X113.817Y-66.49
X113.817Y-68.015
X114.58Y-65.727
X114.58Y-67.252
X115.343Y-64.965
X115.343Y-66.49
X115.343Y-68.015
X116.105Y-65.727
X116.105Y-67.252
T2
X67.67Y-75.81
X67.67Y-76.76
X73.95Y-73.1
X74.0Y-60.8
X75.405Y-64.205
X75.44Y-67.08
X75.45Y-73.85
X76.74Y-69.39
X78.35Y-75.3
X79.25Y-76.55
X79.25Y-77.35
X80.4Y-72.81
X81.15Y-77.55
X81.29Y-65.93
X81.3Y-69.81
X82.04Y-65.9
X82.1Y-77.55
X82.15Y-69.8
X82.55Y-60.65
X82.55Y-61.55
X82.9Y-78.15
X82.95Y-79.0
X82.95Y-79.85
X83.0Y-68.8
X83.22Y-56.28
X84.2Y-56.27
X84.73Y-72.56
X85.15Y-70.06
X85.37Y-60.62
X85.53Y-72.56
X85.6Y-64.6
X85.6Y-65.8
X85.6Y-66.95
X86.35Y-60.62
X86.75Y-64.6
X86.75Y-66.9
X86.9Y-74.0
X87.04Y-80.41
X87.1Y-75.43
X87.56Y-69.75
X87.9Y-64.6
X87.9Y-65.85
X87.9Y-66.9
X87.97Y-58.21
X88.05Y-54.3
X88.05Y-80.8
X89.05Y-80.8
X89.2Y-54.25
X89.8Y-74.45
X90.43Y-56.33
X90.85Y-73.06
X91.325Y-77.485
X92.7Y-73.95
X93.15Y-72.9
X93.17Y-61.3
X93.34Y-77.6
X93.85Y-69.0
X93.9Y-65.25
X93.9Y-67.15
X94.2Y-56.35
X94.43Y-61.21
X94.75Y-66.1
X94.75Y-68.05
X95.29Y-73.63
X95.65Y-65.25
X95.65Y-69.0
X96.55Y-68.0
X96.65Y-66.15
X97.35Y-65.25
X97.4Y-67.15
X97.4Y-69.0
X98.23Y-59.47
X99.12Y-60.43
X99.2Y-74.375
X100.04Y-77.6
X102.35Y-69.08
X102.75Y-61.46
X104.72Y-77.63
X106.12Y-70.33
X107.58Y-68.98
X107.6Y-72.37
X108.9Y-68.21
X108.92Y-71.59
X115.6Y-74.4
X116.84Y-71.59
X118.12Y-72.53
X119.08Y-56.38
X119.37Y-73.64
X120.17Y-59.88
X121.01Y-59.87
X121.91Y-77.35
X122.64Y-56.75
X123.85Y-54.6
X123.85Y-55.6
T3
X68.0Y-51.0
X68.0Y-57.0
X68.0Y-59.0
X68.0Y-73.0
X68.0Y-79.0
X70.0Y-57.0
X70.0Y-59.0
X70.0Y-73.0
X72.0Y-57.0
X73.0Y-51.0
X74.0Y-53.0
X74.0Y-83.0
X75.0Y-51.0
X75.0Y-71.0
X76.0Y-53.0
X76.0Y-59.0
X77.0Y-51.0
X77.0Y-71.0
X77.0Y-73.0
X79.0Y-51.0
X79.0Y-73.0
X80.0Y-53.0
X81.0Y-51.0
X83.0Y-51.0
X83.0Y-75.0
X83.0Y-77.0
X85.0Y-77.0
X90.25Y-55.0
X91.0Y-79.0
X91.0Y-81.0
X92.25Y-55.0
X92.25Y-57.75
X93.0Y-79.0
X94.2Y-57.7
X97.0Y-76.0
X97.2Y-58.4
X99.0Y-76.0
X100.0Y-58.4
X100.0Y-61.4
X101.75Y-63.0
X102.3Y-65.5
X102.3Y-67.7
X102.6Y-58.4
X106.1Y-68.9
X113.0Y-79.0
X113.0Y-81.0
X115.0Y-79.0
X119.0Y-79.0
X119.0Y-81.0
X119.4Y-72.3
X125.0Y-55.0
X125.0Y-57.0
X125.0Y-77.0
X125.0Y-79.0
X127.0Y-57.0
X127.0Y-77.0
X129.0Y-55.0
X129.0Y-57.0
X129.0Y-77.0
X129.0Y-79.0
T4
X68.517Y-81.75
X68.683Y-53.333
X69.0Y-80.583
X69.0Y-82.917
X69.167Y-52.167
X69.167Y-54.5
X70.167Y-80.1
X70.167Y-83.4
X70.333Y-51.683
X70.333Y-54.983
X71.333Y-80.583
X71.333Y-82.917
X71.5Y-52.167
X71.5Y-54.5
X71.817Y-81.75
X71.983Y-53.333
X125.383Y-81.833
X125.43Y-52.75
X125.867Y-80.667
X125.867Y-83.0
X125.913Y-51.583
X125.913Y-53.917
X127.033Y-80.183
X127.033Y-83.483
X127.08Y-51.1
X127.08Y-54.4
X128.2Y-80.667
X128.2Y-83.0
X128.247Y-51.583
X128.247Y-53.917
X128.683Y-81.833
X128.73Y-52.75
T6
X86.06Y-52.0
X86.06Y-83.0
X88.6Y-52.0
X88.6Y-83.0
X91.14Y-52.0
X91.14Y-83.0
X93.68Y-52.0
X93.68Y-83.0
X96.22Y-52.0
X96.22Y-83.0
X98.76Y-52.0
X98.76Y-83.0
X101.3Y-52.0
X101.3Y-83.0
X103.84Y-52.0
X103.84Y-83.0
X106.38Y-52.0
X106.38Y-83.0
X108.92Y-52.0
X108.92Y-83.0
X111.46Y-52.0
X111.46Y-83.0
X114.0Y-52.0
X114.0Y-83.0
X116.54Y-52.0
X116.54Y-83.0
X119.08Y-52.0
X119.08Y-83.0
X121.62Y-52.0
X121.62Y-83.0
T7
X70.167Y-81.75
X70.333Y-53.333
X127.033Y-81.833
X127.08Y-52.75
T5
G00X69.325Y-62.68
M15
G01X68.525Y-62.68
M16
G05
G00X69.325Y-71.32
M15
G01X68.525Y-71.32
M16
G05
G00X73.655Y-62.68
M15
G01X72.555Y-62.68
M16
G05
G00X73.655Y-71.32
M15
G01X72.555Y-71.32
M16
G05
T0
M30
