%TF.GenerationSoftware,KiCad,Pcbnew,7.0.5-0*%
%TF.CreationDate,2024-04-27T19:16:13+02:00*%
%TF.ProjectId,esp32-eter,65737033-322d-4657-9465-722e6b696361,rev?*%
%TF.SameCoordinates,Original*%
%TF.FileFunction,Copper,L3,Inr*%
%TF.FilePolarity,Positive*%
%FSLAX46Y46*%
G04 Gerber Fmt 4.6, Leading zero omitted, Abs format (unit mm)*
G04 Created by KiCad (PCBNEW 7.0.5-0) date 2024-04-27 19:16:13*
%MOMM*%
%LPD*%
G01*
G04 APERTURE LIST*
%TA.AperFunction,ComponentPad*%
%ADD10O,1.700000X1.700000*%
%TD*%
%TA.AperFunction,HeatsinkPad*%
%ADD11C,0.600000*%
%TD*%
%TA.AperFunction,ComponentPad*%
%ADD12C,0.500000*%
%TD*%
%TA.AperFunction,ComponentPad*%
%ADD13C,0.700000*%
%TD*%
%TA.AperFunction,ComponentPad*%
%ADD14C,4.400000*%
%TD*%
%TA.AperFunction,ComponentPad*%
%ADD15O,2.100000X1.000000*%
%TD*%
%TA.AperFunction,ComponentPad*%
%ADD16O,1.800000X1.000000*%
%TD*%
%TA.AperFunction,ViaPad*%
%ADD17C,0.700000*%
%TD*%
%TA.AperFunction,ViaPad*%
%ADD18C,0.900000*%
%TD*%
G04 APERTURE END LIST*
D10*
%TO.N,GND*%
%TO.C,J2*%
X88600000Y-83000000D03*
%TD*%
%TO.N,GND*%
%TO.C,J3*%
X88600000Y-52000000D03*
%TD*%
D11*
%TO.N,GND*%
%TO.C,U1*%
X115342500Y-64965000D03*
X113817500Y-64965000D03*
X116105000Y-65727500D03*
X114580000Y-65727500D03*
X113055000Y-65727500D03*
X115342500Y-66490000D03*
X113817500Y-66490000D03*
X116105000Y-67252500D03*
X114580000Y-67252500D03*
X113055000Y-67252500D03*
X115342500Y-68015000D03*
X113817500Y-68015000D03*
%TD*%
D12*
%TO.N,GND*%
%TO.C,U4*%
X80762500Y-59240000D03*
X80762500Y-58140000D03*
%TD*%
D13*
%TO.N,GND*%
%TO.C,H4*%
X125383274Y-81833274D03*
X125866548Y-80666548D03*
X125866548Y-83000000D03*
X127033274Y-80183274D03*
D14*
X127033274Y-81833274D03*
D13*
X127033274Y-83483274D03*
X128200000Y-80666548D03*
X128200000Y-83000000D03*
X128683274Y-81833274D03*
%TD*%
D15*
%TO.N,GND*%
%TO.C,J1*%
X73105000Y-62680000D03*
D16*
X68925000Y-62680000D03*
D15*
X73105000Y-71320000D03*
D16*
X68925000Y-71320000D03*
%TD*%
D13*
%TO.N,GND*%
%TO.C,H2*%
X125430000Y-52750000D03*
X125913274Y-51583274D03*
X125913274Y-53916726D03*
X127080000Y-51100000D03*
D14*
X127080000Y-52750000D03*
D13*
X127080000Y-54400000D03*
X128246726Y-51583274D03*
X128246726Y-53916726D03*
X128730000Y-52750000D03*
%TD*%
%TO.N,GND*%
%TO.C,H3*%
X68516726Y-81750000D03*
X69000000Y-80583274D03*
X69000000Y-82916726D03*
X70166726Y-80100000D03*
D14*
X70166726Y-81750000D03*
D13*
X70166726Y-83400000D03*
X71333452Y-80583274D03*
X71333452Y-82916726D03*
X71816726Y-81750000D03*
%TD*%
%TO.N,GND*%
%TO.C,H1*%
X68683274Y-53333274D03*
X69166548Y-52166548D03*
X69166548Y-54500000D03*
X70333274Y-51683274D03*
D14*
X70333274Y-53333274D03*
D13*
X70333274Y-54983274D03*
X71500000Y-52166548D03*
X71500000Y-54500000D03*
X71983274Y-53333274D03*
%TD*%
D17*
%TO.N,GND*%
X93850000Y-69000000D03*
X102750000Y-61460000D03*
D18*
X94200000Y-57700000D03*
D17*
X121910000Y-77350000D03*
X94750000Y-68050000D03*
X122640000Y-56750000D03*
X82550000Y-61550000D03*
X87560000Y-69750000D03*
D18*
X129000000Y-77000000D03*
D17*
X82950000Y-79000000D03*
X85150000Y-70060000D03*
D18*
X77000000Y-51000000D03*
X79000000Y-51000000D03*
X102300000Y-67700000D03*
D17*
X82150000Y-69800000D03*
X75440000Y-67080000D03*
D18*
X77000000Y-73000000D03*
D17*
X91325000Y-77485000D03*
D18*
X75000000Y-51000000D03*
D17*
X82950000Y-79850000D03*
D18*
X79000000Y-73000000D03*
D17*
X73950000Y-73100000D03*
D18*
X125000000Y-57000000D03*
X100000000Y-58400000D03*
D17*
X92700000Y-73950000D03*
X93900000Y-67150000D03*
X87970000Y-58210000D03*
X84730000Y-72560000D03*
D18*
X129000000Y-79000000D03*
X92250000Y-55000000D03*
D17*
X87900000Y-66900000D03*
D18*
X99000000Y-76000000D03*
X75000000Y-71000000D03*
X113000000Y-81000000D03*
X119000000Y-79000000D03*
X127000000Y-57000000D03*
X76000000Y-59000000D03*
D17*
X88050000Y-80800000D03*
D18*
X80000000Y-53000000D03*
D17*
X84200000Y-56270000D03*
D18*
X83000000Y-75000000D03*
D17*
X94750000Y-66100000D03*
D18*
X74000000Y-53000000D03*
X77000000Y-71000000D03*
D17*
X93170000Y-61300000D03*
X87900000Y-65850000D03*
X82550000Y-60650000D03*
X74000000Y-60800000D03*
D18*
X97000000Y-76000000D03*
X92250000Y-57750000D03*
D17*
X96650000Y-66150000D03*
X86750000Y-64600000D03*
D18*
X83000000Y-77000000D03*
X74000000Y-83000000D03*
X85000000Y-77000000D03*
D17*
X85600000Y-66950000D03*
X123850000Y-54600000D03*
D18*
X97200000Y-58400000D03*
X68000000Y-59000000D03*
X70000000Y-57000000D03*
D17*
X95650000Y-65250000D03*
D18*
X127000000Y-77000000D03*
X102600000Y-58400000D03*
D17*
X83220000Y-56280000D03*
X89200000Y-54250000D03*
X97400000Y-69000000D03*
D18*
X129000000Y-57000000D03*
D17*
X95650000Y-69000000D03*
X83000000Y-68800000D03*
X81150000Y-77550000D03*
D18*
X119000000Y-81000000D03*
X115000000Y-79000000D03*
D17*
X79250000Y-77350000D03*
D18*
X68000000Y-57000000D03*
X70000000Y-73000000D03*
X125000000Y-79000000D03*
D17*
X85600000Y-65800000D03*
D18*
X68000000Y-73000000D03*
X129000000Y-55000000D03*
D17*
X97400000Y-67150000D03*
X82900000Y-78150000D03*
D18*
X68000000Y-79000000D03*
X72000000Y-57000000D03*
X125000000Y-55000000D03*
D17*
X123850000Y-55600000D03*
D18*
X81000000Y-51000000D03*
D17*
X86750000Y-66900000D03*
X82100000Y-77550000D03*
D18*
X93000000Y-79000000D03*
X68000000Y-51000000D03*
D17*
X85530000Y-72560000D03*
D18*
X102300000Y-65500000D03*
D17*
X87900000Y-64600000D03*
X86900000Y-74000000D03*
X89050000Y-80800000D03*
X96550000Y-68000000D03*
D18*
X101750000Y-63000000D03*
X100000000Y-61400000D03*
X106100000Y-68900000D03*
X113000000Y-79000000D03*
D17*
X89800000Y-74450000D03*
X88050000Y-54300000D03*
D18*
X90250000Y-55000000D03*
X91000000Y-79000000D03*
X125000000Y-77000000D03*
D17*
X85600000Y-64600000D03*
D18*
X76000000Y-53000000D03*
X70000000Y-59000000D03*
D17*
X67670000Y-76760000D03*
X93150000Y-72900000D03*
D18*
X73000000Y-51000000D03*
X119400000Y-72300000D03*
D17*
X79250000Y-76550000D03*
D18*
X83000000Y-51000000D03*
D17*
X97350000Y-65250000D03*
D18*
X91000000Y-81000000D03*
D17*
X67670000Y-75810000D03*
X81300000Y-69810000D03*
X93900000Y-65250000D03*
%TD*%
%TA.AperFunction,Conductor*%
%TO.N,GND*%
G36*
X129001806Y-50300678D02*
G01*
X129025514Y-50303013D01*
X129129217Y-50313227D01*
X129143435Y-50316055D01*
X129260717Y-50351631D01*
X129274112Y-50357180D01*
X129382193Y-50414951D01*
X129394254Y-50423010D01*
X129488986Y-50500755D01*
X129499244Y-50511013D01*
X129576989Y-50605745D01*
X129585048Y-50617806D01*
X129642817Y-50725883D01*
X129648369Y-50739286D01*
X129683943Y-50856559D01*
X129686773Y-50870787D01*
X129699321Y-50998193D01*
X129699499Y-51001821D01*
X129699500Y-83952404D01*
X129699500Y-83998178D01*
X129699322Y-84001807D01*
X129686773Y-84129213D01*
X129683943Y-84143440D01*
X129648369Y-84260713D01*
X129642817Y-84274116D01*
X129585048Y-84382193D01*
X129576989Y-84394254D01*
X129499244Y-84488986D01*
X129488986Y-84499244D01*
X129394254Y-84576989D01*
X129382193Y-84585048D01*
X129274116Y-84642817D01*
X129260713Y-84648369D01*
X129143440Y-84683943D01*
X129129213Y-84686773D01*
X129001807Y-84699322D01*
X128998178Y-84699500D01*
X68001822Y-84699500D01*
X67998193Y-84699322D01*
X67870786Y-84686773D01*
X67856559Y-84683943D01*
X67739286Y-84648369D01*
X67725883Y-84642817D01*
X67617806Y-84585048D01*
X67605745Y-84576989D01*
X67511013Y-84499244D01*
X67500755Y-84488986D01*
X67423010Y-84394254D01*
X67414951Y-84382193D01*
X67357182Y-84274116D01*
X67351630Y-84260713D01*
X67316055Y-84143435D01*
X67313227Y-84129217D01*
X67300678Y-84001806D01*
X67300500Y-83998178D01*
X67300500Y-82586270D01*
X74889500Y-82586270D01*
X74930792Y-82753797D01*
X75010976Y-82906574D01*
X75125391Y-83035723D01*
X75267389Y-83133737D01*
X75428717Y-83194921D01*
X75428720Y-83194921D01*
X75428722Y-83194922D01*
X75557015Y-83210499D01*
X75557025Y-83210500D01*
X75642975Y-83210500D01*
X75642984Y-83210499D01*
X75771277Y-83194922D01*
X75771277Y-83194921D01*
X75771283Y-83194921D01*
X75932611Y-83133737D01*
X76074609Y-83035723D01*
X76189024Y-82906574D01*
X76269208Y-82753797D01*
X76310500Y-82586270D01*
X81689500Y-82586270D01*
X81730792Y-82753797D01*
X81810976Y-82906574D01*
X81925391Y-83035723D01*
X82067389Y-83133737D01*
X82228717Y-83194921D01*
X82228720Y-83194921D01*
X82228722Y-83194922D01*
X82357015Y-83210499D01*
X82357025Y-83210500D01*
X82442975Y-83210500D01*
X82442984Y-83210499D01*
X82571277Y-83194922D01*
X82571277Y-83194921D01*
X82571283Y-83194921D01*
X82732611Y-83133737D01*
X82874609Y-83035723D01*
X82947286Y-82953687D01*
X85205739Y-82953687D01*
X85215754Y-83138398D01*
X85215754Y-83138402D01*
X85215755Y-83138407D01*
X85265246Y-83316659D01*
X85351900Y-83480104D01*
X85471663Y-83621100D01*
X85618936Y-83733053D01*
X85618936Y-83733054D01*
X85618938Y-83733055D01*
X85712725Y-83776446D01*
X85786833Y-83810732D01*
X85967503Y-83850500D01*
X85967508Y-83850500D01*
X86106104Y-83850500D01*
X86106113Y-83850500D01*
X86243910Y-83835514D01*
X86419221Y-83776444D01*
X86577736Y-83681070D01*
X86712041Y-83553849D01*
X86815858Y-83400730D01*
X86884331Y-83228875D01*
X86914260Y-83046317D01*
X86904972Y-82874999D01*
X87356160Y-82874999D01*
X87356161Y-82875000D01*
X88115595Y-82875000D01*
X88100000Y-82928111D01*
X88100000Y-83071889D01*
X88115595Y-83125000D01*
X87356161Y-83125000D01*
X87364287Y-83217885D01*
X87364288Y-83217893D01*
X87420895Y-83429153D01*
X87513334Y-83627388D01*
X87638785Y-83806551D01*
X87793448Y-83961214D01*
X87972611Y-84086665D01*
X88170846Y-84179104D01*
X88382106Y-84235711D01*
X88382113Y-84235712D01*
X88475000Y-84243838D01*
X88475000Y-83487169D01*
X88564237Y-83500000D01*
X88635763Y-83500000D01*
X88725000Y-83487169D01*
X88725000Y-84243837D01*
X88817886Y-84235712D01*
X88817893Y-84235711D01*
X89029153Y-84179104D01*
X89227388Y-84086665D01*
X89406551Y-83961214D01*
X89561214Y-83806551D01*
X89686665Y-83627388D01*
X89779104Y-83429153D01*
X89835711Y-83217893D01*
X89835712Y-83217885D01*
X89843839Y-83125000D01*
X89084405Y-83125000D01*
X89100000Y-83071889D01*
X89100000Y-82953687D01*
X90285739Y-82953687D01*
X90295754Y-83138398D01*
X90295754Y-83138402D01*
X90295755Y-83138407D01*
X90345246Y-83316659D01*
X90431900Y-83480104D01*
X90551663Y-83621100D01*
X90698936Y-83733054D01*
X90698938Y-83733055D01*
X90792725Y-83776446D01*
X90866833Y-83810732D01*
X91047503Y-83850500D01*
X91047508Y-83850500D01*
X91186104Y-83850500D01*
X91186113Y-83850500D01*
X91323910Y-83835514D01*
X91499221Y-83776444D01*
X91657736Y-83681070D01*
X91792041Y-83553849D01*
X91895858Y-83400730D01*
X91964331Y-83228875D01*
X91994260Y-83046317D01*
X91989238Y-82953687D01*
X92825739Y-82953687D01*
X92835754Y-83138398D01*
X92835754Y-83138402D01*
X92835755Y-83138407D01*
X92885246Y-83316659D01*
X92971900Y-83480104D01*
X93091663Y-83621100D01*
X93238936Y-83733054D01*
X93238938Y-83733055D01*
X93332725Y-83776446D01*
X93406833Y-83810732D01*
X93587503Y-83850500D01*
X93587508Y-83850500D01*
X93726104Y-83850500D01*
X93726113Y-83850500D01*
X93863910Y-83835514D01*
X94039221Y-83776444D01*
X94197736Y-83681070D01*
X94332041Y-83553849D01*
X94435858Y-83400730D01*
X94504331Y-83228875D01*
X94534260Y-83046317D01*
X94529238Y-82953687D01*
X95365739Y-82953687D01*
X95375754Y-83138398D01*
X95375754Y-83138402D01*
X95375755Y-83138407D01*
X95425246Y-83316659D01*
X95511900Y-83480104D01*
X95631663Y-83621100D01*
X95778936Y-83733054D01*
X95778938Y-83733055D01*
X95872725Y-83776446D01*
X95946833Y-83810732D01*
X96127503Y-83850500D01*
X96127508Y-83850500D01*
X96266104Y-83850500D01*
X96266113Y-83850500D01*
X96403910Y-83835514D01*
X96579221Y-83776444D01*
X96737736Y-83681070D01*
X96872041Y-83553849D01*
X96975858Y-83400730D01*
X97044331Y-83228875D01*
X97074260Y-83046317D01*
X97069238Y-82953687D01*
X97905739Y-82953687D01*
X97915754Y-83138398D01*
X97915754Y-83138402D01*
X97915755Y-83138407D01*
X97965246Y-83316659D01*
X98051900Y-83480104D01*
X98171663Y-83621100D01*
X98318936Y-83733054D01*
X98318938Y-83733055D01*
X98412725Y-83776446D01*
X98486833Y-83810732D01*
X98667503Y-83850500D01*
X98667508Y-83850500D01*
X98806104Y-83850500D01*
X98806113Y-83850500D01*
X98943910Y-83835514D01*
X99119221Y-83776444D01*
X99277736Y-83681070D01*
X99412041Y-83553849D01*
X99515858Y-83400730D01*
X99584331Y-83228875D01*
X99614260Y-83046317D01*
X99609238Y-82953687D01*
X100445739Y-82953687D01*
X100455754Y-83138398D01*
X100455754Y-83138402D01*
X100455755Y-83138407D01*
X100505246Y-83316659D01*
X100591900Y-83480104D01*
X100711663Y-83621100D01*
X100858936Y-83733054D01*
X100858938Y-83733055D01*
X100952725Y-83776446D01*
X101026833Y-83810732D01*
X101207503Y-83850500D01*
X101207508Y-83850500D01*
X101346104Y-83850500D01*
X101346113Y-83850500D01*
X101483910Y-83835514D01*
X101659221Y-83776444D01*
X101817736Y-83681070D01*
X101952041Y-83553849D01*
X102055858Y-83400730D01*
X102124331Y-83228875D01*
X102154260Y-83046317D01*
X102149238Y-82953687D01*
X102985739Y-82953687D01*
X102995754Y-83138398D01*
X102995754Y-83138402D01*
X102995755Y-83138407D01*
X103045246Y-83316659D01*
X103131900Y-83480104D01*
X103251663Y-83621100D01*
X103398936Y-83733054D01*
X103398938Y-83733055D01*
X103492725Y-83776446D01*
X103566833Y-83810732D01*
X103747503Y-83850500D01*
X103747508Y-83850500D01*
X103886104Y-83850500D01*
X103886113Y-83850500D01*
X104023910Y-83835514D01*
X104199221Y-83776444D01*
X104357736Y-83681070D01*
X104492041Y-83553849D01*
X104595858Y-83400730D01*
X104664331Y-83228875D01*
X104694260Y-83046317D01*
X104689238Y-82953687D01*
X105525739Y-82953687D01*
X105535754Y-83138398D01*
X105535754Y-83138402D01*
X105535755Y-83138407D01*
X105585246Y-83316659D01*
X105671900Y-83480104D01*
X105791663Y-83621100D01*
X105938936Y-83733054D01*
X105938938Y-83733055D01*
X106032725Y-83776446D01*
X106106833Y-83810732D01*
X106287503Y-83850500D01*
X106287508Y-83850500D01*
X106426104Y-83850500D01*
X106426113Y-83850500D01*
X106563910Y-83835514D01*
X106739221Y-83776444D01*
X106897736Y-83681070D01*
X107032041Y-83553849D01*
X107135858Y-83400730D01*
X107204331Y-83228875D01*
X107234260Y-83046317D01*
X107229238Y-82953687D01*
X108065739Y-82953687D01*
X108075754Y-83138398D01*
X108075754Y-83138402D01*
X108075755Y-83138407D01*
X108125246Y-83316659D01*
X108211900Y-83480104D01*
X108331663Y-83621100D01*
X108478936Y-83733054D01*
X108478938Y-83733055D01*
X108572725Y-83776446D01*
X108646833Y-83810732D01*
X108827503Y-83850500D01*
X108827508Y-83850500D01*
X108966104Y-83850500D01*
X108966113Y-83850500D01*
X109103910Y-83835514D01*
X109279221Y-83776444D01*
X109437736Y-83681070D01*
X109572041Y-83553849D01*
X109675858Y-83400730D01*
X109744331Y-83228875D01*
X109774260Y-83046317D01*
X109769238Y-82953687D01*
X110605739Y-82953687D01*
X110615754Y-83138398D01*
X110615754Y-83138402D01*
X110615755Y-83138407D01*
X110665246Y-83316659D01*
X110751900Y-83480104D01*
X110871663Y-83621100D01*
X111018936Y-83733054D01*
X111018938Y-83733055D01*
X111112725Y-83776446D01*
X111186833Y-83810732D01*
X111367503Y-83850500D01*
X111367508Y-83850500D01*
X111506104Y-83850500D01*
X111506113Y-83850500D01*
X111643910Y-83835514D01*
X111819221Y-83776444D01*
X111977736Y-83681070D01*
X112112041Y-83553849D01*
X112215858Y-83400730D01*
X112284331Y-83228875D01*
X112314260Y-83046317D01*
X112309238Y-82953687D01*
X113145739Y-82953687D01*
X113155754Y-83138398D01*
X113155754Y-83138402D01*
X113155755Y-83138407D01*
X113205246Y-83316659D01*
X113291900Y-83480104D01*
X113411663Y-83621100D01*
X113558936Y-83733054D01*
X113558938Y-83733055D01*
X113652725Y-83776446D01*
X113726833Y-83810732D01*
X113907503Y-83850500D01*
X113907508Y-83850500D01*
X114046104Y-83850500D01*
X114046113Y-83850500D01*
X114183910Y-83835514D01*
X114359221Y-83776444D01*
X114517736Y-83681070D01*
X114652041Y-83553849D01*
X114755858Y-83400730D01*
X114824331Y-83228875D01*
X114854260Y-83046317D01*
X114849238Y-82953687D01*
X115685739Y-82953687D01*
X115695754Y-83138398D01*
X115695754Y-83138402D01*
X115695755Y-83138407D01*
X115745246Y-83316659D01*
X115831900Y-83480104D01*
X115951663Y-83621100D01*
X116098936Y-83733054D01*
X116098938Y-83733055D01*
X116192725Y-83776446D01*
X116266833Y-83810732D01*
X116447503Y-83850500D01*
X116447508Y-83850500D01*
X116586104Y-83850500D01*
X116586113Y-83850500D01*
X116723910Y-83835514D01*
X116899221Y-83776444D01*
X117057736Y-83681070D01*
X117192041Y-83553849D01*
X117295858Y-83400730D01*
X117364331Y-83228875D01*
X117394260Y-83046317D01*
X117389238Y-82953687D01*
X118225739Y-82953687D01*
X118235754Y-83138398D01*
X118235754Y-83138402D01*
X118235755Y-83138407D01*
X118285246Y-83316659D01*
X118371900Y-83480104D01*
X118491663Y-83621100D01*
X118638936Y-83733054D01*
X118638938Y-83733055D01*
X118732725Y-83776446D01*
X118806833Y-83810732D01*
X118987503Y-83850500D01*
X118987508Y-83850500D01*
X119126104Y-83850500D01*
X119126113Y-83850500D01*
X119263910Y-83835514D01*
X119439221Y-83776444D01*
X119597736Y-83681070D01*
X119732041Y-83553849D01*
X119835858Y-83400730D01*
X119904331Y-83228875D01*
X119934260Y-83046317D01*
X119929238Y-82953687D01*
X120765739Y-82953687D01*
X120775754Y-83138398D01*
X120775754Y-83138402D01*
X120775755Y-83138407D01*
X120825246Y-83316659D01*
X120911900Y-83480104D01*
X121031663Y-83621100D01*
X121178936Y-83733054D01*
X121178938Y-83733055D01*
X121272725Y-83776446D01*
X121346833Y-83810732D01*
X121527503Y-83850500D01*
X121527508Y-83850500D01*
X121666104Y-83850500D01*
X121666113Y-83850500D01*
X121803910Y-83835514D01*
X121979221Y-83776444D01*
X122137736Y-83681070D01*
X122272041Y-83553849D01*
X122375858Y-83400730D01*
X122444331Y-83228875D01*
X122474260Y-83046317D01*
X122464245Y-82861593D01*
X122414754Y-82683341D01*
X122328100Y-82519896D01*
X122208337Y-82378900D01*
X122061064Y-82266946D01*
X122061063Y-82266945D01*
X122061061Y-82266944D01*
X121893177Y-82189272D01*
X121893172Y-82189270D01*
X121893167Y-82189268D01*
X121712497Y-82149500D01*
X121573887Y-82149500D01*
X121573881Y-82149500D01*
X121573873Y-82149501D01*
X121459826Y-82161904D01*
X121436090Y-82164486D01*
X121436087Y-82164486D01*
X121436087Y-82164487D01*
X121260786Y-82223553D01*
X121260779Y-82223556D01*
X121102263Y-82318930D01*
X120967959Y-82446151D01*
X120967958Y-82446152D01*
X120864142Y-82599268D01*
X120795669Y-82771124D01*
X120795668Y-82771125D01*
X120765740Y-82953683D01*
X120765739Y-82953687D01*
X119929238Y-82953687D01*
X119924245Y-82861593D01*
X119874754Y-82683341D01*
X119788100Y-82519896D01*
X119668337Y-82378900D01*
X119521064Y-82266946D01*
X119521063Y-82266945D01*
X119521061Y-82266944D01*
X119353177Y-82189272D01*
X119353172Y-82189270D01*
X119353167Y-82189268D01*
X119172497Y-82149500D01*
X119033887Y-82149500D01*
X119033881Y-82149500D01*
X119033873Y-82149501D01*
X118919826Y-82161904D01*
X118896090Y-82164486D01*
X118896087Y-82164486D01*
X118896087Y-82164487D01*
X118720786Y-82223553D01*
X118720779Y-82223556D01*
X118562263Y-82318930D01*
X118427959Y-82446151D01*
X118427958Y-82446152D01*
X118324142Y-82599268D01*
X118255669Y-82771124D01*
X118255668Y-82771125D01*
X118225740Y-82953683D01*
X118225739Y-82953687D01*
X117389238Y-82953687D01*
X117384245Y-82861593D01*
X117334754Y-82683341D01*
X117248100Y-82519896D01*
X117128337Y-82378900D01*
X116981064Y-82266946D01*
X116981063Y-82266945D01*
X116981061Y-82266944D01*
X116813177Y-82189272D01*
X116813172Y-82189270D01*
X116813167Y-82189268D01*
X116632497Y-82149500D01*
X116493887Y-82149500D01*
X116493881Y-82149500D01*
X116493873Y-82149501D01*
X116379826Y-82161904D01*
X116356090Y-82164486D01*
X116356087Y-82164486D01*
X116356087Y-82164487D01*
X116180786Y-82223553D01*
X116180779Y-82223556D01*
X116022263Y-82318930D01*
X115887959Y-82446151D01*
X115887958Y-82446152D01*
X115784142Y-82599268D01*
X115715669Y-82771124D01*
X115715668Y-82771125D01*
X115685740Y-82953683D01*
X115685739Y-82953687D01*
X114849238Y-82953687D01*
X114844245Y-82861593D01*
X114794754Y-82683341D01*
X114708100Y-82519896D01*
X114588337Y-82378900D01*
X114441064Y-82266946D01*
X114441063Y-82266945D01*
X114441061Y-82266944D01*
X114273177Y-82189272D01*
X114273172Y-82189270D01*
X114273167Y-82189268D01*
X114092497Y-82149500D01*
X113953887Y-82149500D01*
X113953881Y-82149500D01*
X113953873Y-82149501D01*
X113839826Y-82161904D01*
X113816090Y-82164486D01*
X113816087Y-82164486D01*
X113816087Y-82164487D01*
X113640786Y-82223553D01*
X113640779Y-82223556D01*
X113482263Y-82318930D01*
X113347959Y-82446151D01*
X113347958Y-82446152D01*
X113244142Y-82599268D01*
X113175669Y-82771124D01*
X113175668Y-82771125D01*
X113145740Y-82953683D01*
X113145739Y-82953687D01*
X112309238Y-82953687D01*
X112304245Y-82861593D01*
X112254754Y-82683341D01*
X112168100Y-82519896D01*
X112048337Y-82378900D01*
X111901064Y-82266946D01*
X111901063Y-82266945D01*
X111901061Y-82266944D01*
X111733177Y-82189272D01*
X111733172Y-82189270D01*
X111733167Y-82189268D01*
X111552497Y-82149500D01*
X111413887Y-82149500D01*
X111413881Y-82149500D01*
X111413873Y-82149501D01*
X111299826Y-82161904D01*
X111276090Y-82164486D01*
X111276087Y-82164486D01*
X111276087Y-82164487D01*
X111100786Y-82223553D01*
X111100779Y-82223556D01*
X110942263Y-82318930D01*
X110807959Y-82446151D01*
X110807958Y-82446152D01*
X110704142Y-82599268D01*
X110635669Y-82771124D01*
X110635668Y-82771125D01*
X110605740Y-82953683D01*
X110605739Y-82953687D01*
X109769238Y-82953687D01*
X109764245Y-82861593D01*
X109714754Y-82683341D01*
X109628100Y-82519896D01*
X109508337Y-82378900D01*
X109361064Y-82266946D01*
X109361063Y-82266945D01*
X109361061Y-82266944D01*
X109193177Y-82189272D01*
X109193172Y-82189270D01*
X109193167Y-82189268D01*
X109012497Y-82149500D01*
X108873887Y-82149500D01*
X108873881Y-82149500D01*
X108873873Y-82149501D01*
X108759826Y-82161904D01*
X108736090Y-82164486D01*
X108736087Y-82164486D01*
X108736087Y-82164487D01*
X108560786Y-82223553D01*
X108560779Y-82223556D01*
X108402263Y-82318930D01*
X108267959Y-82446151D01*
X108267958Y-82446152D01*
X108164142Y-82599268D01*
X108095669Y-82771124D01*
X108095668Y-82771125D01*
X108065740Y-82953683D01*
X108065739Y-82953687D01*
X107229238Y-82953687D01*
X107224245Y-82861593D01*
X107174754Y-82683341D01*
X107088100Y-82519896D01*
X106968337Y-82378900D01*
X106821064Y-82266946D01*
X106821063Y-82266945D01*
X106821061Y-82266944D01*
X106653177Y-82189272D01*
X106653172Y-82189270D01*
X106653167Y-82189268D01*
X106472497Y-82149500D01*
X106333887Y-82149500D01*
X106333881Y-82149500D01*
X106333873Y-82149501D01*
X106219826Y-82161904D01*
X106196090Y-82164486D01*
X106196087Y-82164486D01*
X106196087Y-82164487D01*
X106020786Y-82223553D01*
X106020779Y-82223556D01*
X105862263Y-82318930D01*
X105727959Y-82446151D01*
X105727958Y-82446152D01*
X105624142Y-82599268D01*
X105555669Y-82771124D01*
X105555668Y-82771125D01*
X105525740Y-82953683D01*
X105525739Y-82953687D01*
X104689238Y-82953687D01*
X104684245Y-82861593D01*
X104634754Y-82683341D01*
X104548100Y-82519896D01*
X104428337Y-82378900D01*
X104281064Y-82266946D01*
X104281063Y-82266945D01*
X104281061Y-82266944D01*
X104113177Y-82189272D01*
X104113172Y-82189270D01*
X104113167Y-82189268D01*
X103932497Y-82149500D01*
X103793887Y-82149500D01*
X103793881Y-82149500D01*
X103793873Y-82149501D01*
X103679826Y-82161904D01*
X103656090Y-82164486D01*
X103656087Y-82164486D01*
X103656087Y-82164487D01*
X103480786Y-82223553D01*
X103480779Y-82223556D01*
X103322263Y-82318930D01*
X103187959Y-82446151D01*
X103187958Y-82446152D01*
X103084142Y-82599268D01*
X103015669Y-82771124D01*
X103015668Y-82771125D01*
X102985740Y-82953683D01*
X102985739Y-82953687D01*
X102149238Y-82953687D01*
X102144245Y-82861593D01*
X102094754Y-82683341D01*
X102008100Y-82519896D01*
X101888337Y-82378900D01*
X101741064Y-82266946D01*
X101741063Y-82266945D01*
X101741061Y-82266944D01*
X101573177Y-82189272D01*
X101573172Y-82189270D01*
X101573167Y-82189268D01*
X101392497Y-82149500D01*
X101253887Y-82149500D01*
X101253881Y-82149500D01*
X101253873Y-82149501D01*
X101139826Y-82161904D01*
X101116090Y-82164486D01*
X101116087Y-82164486D01*
X101116087Y-82164487D01*
X100940786Y-82223553D01*
X100940779Y-82223556D01*
X100782263Y-82318930D01*
X100647959Y-82446151D01*
X100647958Y-82446152D01*
X100544142Y-82599268D01*
X100475669Y-82771124D01*
X100475668Y-82771125D01*
X100445740Y-82953683D01*
X100445739Y-82953687D01*
X99609238Y-82953687D01*
X99604245Y-82861593D01*
X99554754Y-82683341D01*
X99468100Y-82519896D01*
X99348337Y-82378900D01*
X99201064Y-82266946D01*
X99201063Y-82266945D01*
X99201061Y-82266944D01*
X99033177Y-82189272D01*
X99033172Y-82189270D01*
X99033167Y-82189268D01*
X98852497Y-82149500D01*
X98713887Y-82149500D01*
X98713881Y-82149500D01*
X98713873Y-82149501D01*
X98599826Y-82161904D01*
X98576090Y-82164486D01*
X98576087Y-82164486D01*
X98576087Y-82164487D01*
X98400786Y-82223553D01*
X98400779Y-82223556D01*
X98242263Y-82318930D01*
X98107959Y-82446151D01*
X98107958Y-82446152D01*
X98004142Y-82599268D01*
X97935669Y-82771124D01*
X97935668Y-82771125D01*
X97905740Y-82953683D01*
X97905739Y-82953687D01*
X97069238Y-82953687D01*
X97064245Y-82861593D01*
X97014754Y-82683341D01*
X96928100Y-82519896D01*
X96808337Y-82378900D01*
X96661064Y-82266946D01*
X96661063Y-82266945D01*
X96661061Y-82266944D01*
X96493177Y-82189272D01*
X96493172Y-82189270D01*
X96493167Y-82189268D01*
X96312497Y-82149500D01*
X96173887Y-82149500D01*
X96173881Y-82149500D01*
X96173873Y-82149501D01*
X96059826Y-82161904D01*
X96036090Y-82164486D01*
X96036087Y-82164486D01*
X96036087Y-82164487D01*
X95860786Y-82223553D01*
X95860779Y-82223556D01*
X95702263Y-82318930D01*
X95567959Y-82446151D01*
X95567958Y-82446152D01*
X95464142Y-82599268D01*
X95395669Y-82771124D01*
X95395668Y-82771125D01*
X95365740Y-82953683D01*
X95365739Y-82953687D01*
X94529238Y-82953687D01*
X94524245Y-82861593D01*
X94474754Y-82683341D01*
X94388100Y-82519896D01*
X94268337Y-82378900D01*
X94121064Y-82266946D01*
X94121063Y-82266945D01*
X94121061Y-82266944D01*
X93953177Y-82189272D01*
X93953172Y-82189270D01*
X93953167Y-82189268D01*
X93772497Y-82149500D01*
X93633887Y-82149500D01*
X93633881Y-82149500D01*
X93633873Y-82149501D01*
X93519826Y-82161904D01*
X93496090Y-82164486D01*
X93496087Y-82164486D01*
X93496087Y-82164487D01*
X93320786Y-82223553D01*
X93320779Y-82223556D01*
X93162263Y-82318930D01*
X93027959Y-82446151D01*
X93027958Y-82446152D01*
X92924142Y-82599268D01*
X92855669Y-82771124D01*
X92855668Y-82771125D01*
X92825740Y-82953683D01*
X92825739Y-82953687D01*
X91989238Y-82953687D01*
X91984245Y-82861593D01*
X91934754Y-82683341D01*
X91848100Y-82519896D01*
X91728337Y-82378900D01*
X91581064Y-82266946D01*
X91581063Y-82266945D01*
X91581061Y-82266944D01*
X91413177Y-82189272D01*
X91413172Y-82189270D01*
X91413167Y-82189268D01*
X91232497Y-82149500D01*
X91093887Y-82149500D01*
X91093881Y-82149500D01*
X91093873Y-82149501D01*
X90979826Y-82161904D01*
X90956090Y-82164486D01*
X90956087Y-82164486D01*
X90956087Y-82164487D01*
X90780786Y-82223553D01*
X90780779Y-82223556D01*
X90622263Y-82318930D01*
X90487959Y-82446151D01*
X90487958Y-82446152D01*
X90384142Y-82599268D01*
X90315669Y-82771124D01*
X90315668Y-82771125D01*
X90285740Y-82953683D01*
X90285739Y-82953687D01*
X89100000Y-82953687D01*
X89100000Y-82928111D01*
X89084405Y-82875000D01*
X89843839Y-82875000D01*
X89843839Y-82874999D01*
X89835712Y-82782114D01*
X89835711Y-82782106D01*
X89779105Y-82570849D01*
X89779100Y-82570838D01*
X89686665Y-82372612D01*
X89561212Y-82193445D01*
X89406551Y-82038785D01*
X89406552Y-82038785D01*
X89227388Y-81913334D01*
X89029153Y-81820895D01*
X88817893Y-81764288D01*
X88817885Y-81764287D01*
X88725000Y-81756160D01*
X88725000Y-82512830D01*
X88635763Y-82500000D01*
X88564237Y-82500000D01*
X88474999Y-82512830D01*
X88475000Y-81756161D01*
X88474999Y-81756160D01*
X88382114Y-81764287D01*
X88382106Y-81764288D01*
X88170849Y-81820894D01*
X88170838Y-81820899D01*
X87972612Y-81913334D01*
X87793445Y-82038787D01*
X87638787Y-82193445D01*
X87513334Y-82372612D01*
X87420899Y-82570838D01*
X87420894Y-82570849D01*
X87364288Y-82782106D01*
X87364287Y-82782114D01*
X87356160Y-82874999D01*
X86904972Y-82874999D01*
X86904245Y-82861593D01*
X86854754Y-82683341D01*
X86768100Y-82519896D01*
X86648337Y-82378900D01*
X86501064Y-82266946D01*
X86501063Y-82266945D01*
X86501061Y-82266944D01*
X86333177Y-82189272D01*
X86333172Y-82189270D01*
X86333167Y-82189268D01*
X86152497Y-82149500D01*
X86013887Y-82149500D01*
X86013881Y-82149500D01*
X86013873Y-82149501D01*
X85899826Y-82161904D01*
X85876090Y-82164486D01*
X85876087Y-82164486D01*
X85876087Y-82164487D01*
X85700786Y-82223553D01*
X85700779Y-82223556D01*
X85542263Y-82318930D01*
X85407959Y-82446151D01*
X85407958Y-82446152D01*
X85304142Y-82599268D01*
X85235669Y-82771124D01*
X85235668Y-82771125D01*
X85205740Y-82953683D01*
X85205739Y-82953687D01*
X82947286Y-82953687D01*
X82989024Y-82906574D01*
X83069208Y-82753797D01*
X83110500Y-82586270D01*
X83110500Y-82413730D01*
X83069208Y-82246203D01*
X82989024Y-82093426D01*
X82874609Y-81964277D01*
X82800806Y-81913334D01*
X82732610Y-81866262D01*
X82632465Y-81828282D01*
X82571283Y-81805079D01*
X82571281Y-81805078D01*
X82571277Y-81805077D01*
X82442984Y-81789500D01*
X82442975Y-81789500D01*
X82357025Y-81789500D01*
X82357015Y-81789500D01*
X82228722Y-81805077D01*
X82228717Y-81805079D01*
X82067389Y-81866262D01*
X81925391Y-81964276D01*
X81810975Y-82093427D01*
X81742680Y-82223553D01*
X81730792Y-82246203D01*
X81689500Y-82413730D01*
X81689500Y-82586270D01*
X76310500Y-82586270D01*
X76310500Y-82413730D01*
X76269208Y-82246203D01*
X76189024Y-82093426D01*
X76074609Y-81964277D01*
X76000806Y-81913334D01*
X75932610Y-81866262D01*
X75832465Y-81828282D01*
X75771283Y-81805079D01*
X75771281Y-81805078D01*
X75771277Y-81805077D01*
X75642984Y-81789500D01*
X75642975Y-81789500D01*
X75557025Y-81789500D01*
X75557015Y-81789500D01*
X75428722Y-81805077D01*
X75428717Y-81805079D01*
X75267389Y-81866262D01*
X75125391Y-81964276D01*
X75010975Y-82093427D01*
X74942680Y-82223553D01*
X74930792Y-82246203D01*
X74889500Y-82413730D01*
X74889500Y-82586270D01*
X67300500Y-82586270D01*
X67300500Y-80410000D01*
X86534353Y-80410000D01*
X86554834Y-80552454D01*
X86614623Y-80683373D01*
X86708868Y-80792139D01*
X86708869Y-80792140D01*
X86708872Y-80792143D01*
X86829947Y-80869953D01*
X86936403Y-80901211D01*
X86968035Y-80910499D01*
X86968037Y-80910500D01*
X86968039Y-80910500D01*
X87111963Y-80910500D01*
X87111964Y-80910499D01*
X87250053Y-80869953D01*
X87371128Y-80792143D01*
X87465377Y-80683373D01*
X87525165Y-80552457D01*
X87545647Y-80410000D01*
X87525165Y-80267543D01*
X87465377Y-80136627D01*
X87371128Y-80027857D01*
X87314182Y-79991260D01*
X87250054Y-79950047D01*
X87250050Y-79950046D01*
X87111964Y-79909500D01*
X87111961Y-79909500D01*
X86968039Y-79909500D01*
X86968036Y-79909500D01*
X86829949Y-79950046D01*
X86829945Y-79950047D01*
X86708875Y-80027855D01*
X86708868Y-80027860D01*
X86614623Y-80136626D01*
X86554834Y-80267545D01*
X86534353Y-80410000D01*
X67300500Y-80410000D01*
X67300500Y-77599999D01*
X92834353Y-77599999D01*
X92854834Y-77742454D01*
X92854834Y-77742455D01*
X92854835Y-77742457D01*
X92868536Y-77772457D01*
X92914623Y-77873373D01*
X93008868Y-77982139D01*
X93008869Y-77982140D01*
X93008872Y-77982143D01*
X93129947Y-78059953D01*
X93232115Y-78089952D01*
X93268035Y-78100499D01*
X93268037Y-78100500D01*
X93268039Y-78100500D01*
X93411963Y-78100500D01*
X93411964Y-78100499D01*
X93550053Y-78059953D01*
X93671128Y-77982143D01*
X93765377Y-77873373D01*
X93825165Y-77742457D01*
X93845647Y-77600000D01*
X99534353Y-77600000D01*
X99554834Y-77742454D01*
X99554834Y-77742455D01*
X99554835Y-77742457D01*
X99568536Y-77772457D01*
X99614623Y-77873373D01*
X99708868Y-77982139D01*
X99708869Y-77982140D01*
X99708872Y-77982143D01*
X99829947Y-78059953D01*
X99932115Y-78089952D01*
X99968035Y-78100499D01*
X99968037Y-78100500D01*
X99968039Y-78100500D01*
X100111963Y-78100500D01*
X100111964Y-78100499D01*
X100250053Y-78059953D01*
X100371128Y-77982143D01*
X100465377Y-77873373D01*
X100525165Y-77742457D01*
X100541334Y-77630000D01*
X104214353Y-77630000D01*
X104234834Y-77772454D01*
X104294623Y-77903373D01*
X104388868Y-78012139D01*
X104388869Y-78012140D01*
X104388872Y-78012143D01*
X104509947Y-78089953D01*
X104616403Y-78121211D01*
X104648035Y-78130499D01*
X104648037Y-78130500D01*
X104648039Y-78130500D01*
X104791963Y-78130500D01*
X104791964Y-78130499D01*
X104930053Y-78089953D01*
X105051128Y-78012143D01*
X105145377Y-77903373D01*
X105205165Y-77772457D01*
X105225647Y-77630000D01*
X105205165Y-77487543D01*
X105145377Y-77356627D01*
X105051128Y-77247857D01*
X104994182Y-77211260D01*
X104930054Y-77170047D01*
X104930050Y-77170046D01*
X104791964Y-77129500D01*
X104791961Y-77129500D01*
X104648039Y-77129500D01*
X104648036Y-77129500D01*
X104509949Y-77170046D01*
X104509945Y-77170047D01*
X104388875Y-77247855D01*
X104388868Y-77247860D01*
X104294623Y-77356626D01*
X104234834Y-77487545D01*
X104214353Y-77630000D01*
X100541334Y-77630000D01*
X100545647Y-77600000D01*
X100525165Y-77457543D01*
X100465377Y-77326627D01*
X100371128Y-77217857D01*
X100296734Y-77170047D01*
X100250054Y-77140047D01*
X100250050Y-77140046D01*
X100111964Y-77099500D01*
X100111961Y-77099500D01*
X99968039Y-77099500D01*
X99968036Y-77099500D01*
X99829949Y-77140046D01*
X99829945Y-77140047D01*
X99708875Y-77217855D01*
X99708868Y-77217860D01*
X99614623Y-77326626D01*
X99554834Y-77457545D01*
X99534353Y-77600000D01*
X93845647Y-77600000D01*
X93825165Y-77457543D01*
X93765377Y-77326627D01*
X93671128Y-77217857D01*
X93596734Y-77170047D01*
X93550054Y-77140047D01*
X93550050Y-77140046D01*
X93411964Y-77099500D01*
X93411961Y-77099500D01*
X93268039Y-77099500D01*
X93268036Y-77099500D01*
X93129949Y-77140046D01*
X93129945Y-77140047D01*
X93008875Y-77217855D01*
X93008868Y-77217860D01*
X92914623Y-77326626D01*
X92854834Y-77457545D01*
X92834353Y-77599999D01*
X67300500Y-77599999D01*
X67300500Y-75300000D01*
X77844353Y-75300000D01*
X77864834Y-75442454D01*
X77924623Y-75573373D01*
X78018868Y-75682139D01*
X78018869Y-75682140D01*
X78018872Y-75682143D01*
X78139947Y-75759953D01*
X78246403Y-75791211D01*
X78278035Y-75800499D01*
X78278037Y-75800500D01*
X78278039Y-75800500D01*
X78421963Y-75800500D01*
X78421964Y-75800499D01*
X78560053Y-75759953D01*
X78681128Y-75682143D01*
X78775377Y-75573373D01*
X78835165Y-75442457D01*
X78836956Y-75430000D01*
X86594353Y-75430000D01*
X86614834Y-75572454D01*
X86614834Y-75572455D01*
X86614835Y-75572457D01*
X86664928Y-75682144D01*
X86674623Y-75703373D01*
X86768868Y-75812139D01*
X86768869Y-75812140D01*
X86768872Y-75812143D01*
X86889947Y-75889953D01*
X86996403Y-75921211D01*
X87028035Y-75930499D01*
X87028037Y-75930500D01*
X87028039Y-75930500D01*
X87171963Y-75930500D01*
X87171964Y-75930499D01*
X87310053Y-75889953D01*
X87431128Y-75812143D01*
X87525377Y-75703373D01*
X87585165Y-75572457D01*
X87605647Y-75430000D01*
X87585165Y-75287543D01*
X87525377Y-75156627D01*
X87431128Y-75047857D01*
X87374182Y-75011260D01*
X87310054Y-74970047D01*
X87310050Y-74970046D01*
X87171964Y-74929500D01*
X87171961Y-74929500D01*
X87028039Y-74929500D01*
X87028036Y-74929500D01*
X86889949Y-74970046D01*
X86889945Y-74970047D01*
X86768875Y-75047855D01*
X86768868Y-75047860D01*
X86674623Y-75156626D01*
X86614834Y-75287545D01*
X86594353Y-75430000D01*
X78836956Y-75430000D01*
X78855647Y-75300000D01*
X78835165Y-75157543D01*
X78775377Y-75026627D01*
X78681128Y-74917857D01*
X78615218Y-74875499D01*
X78560054Y-74840047D01*
X78560050Y-74840046D01*
X78421964Y-74799500D01*
X78421961Y-74799500D01*
X78278039Y-74799500D01*
X78278036Y-74799500D01*
X78139949Y-74840046D01*
X78139945Y-74840047D01*
X78018875Y-74917855D01*
X78018868Y-74917860D01*
X77924623Y-75026626D01*
X77864834Y-75157545D01*
X77844353Y-75300000D01*
X67300500Y-75300000D01*
X67300500Y-74375000D01*
X98694353Y-74375000D01*
X98714834Y-74517454D01*
X98714834Y-74517455D01*
X98714835Y-74517457D01*
X98774623Y-74648372D01*
X98774623Y-74648373D01*
X98868868Y-74757139D01*
X98868869Y-74757140D01*
X98868872Y-74757143D01*
X98989947Y-74834953D01*
X99096403Y-74866211D01*
X99128035Y-74875499D01*
X99128037Y-74875500D01*
X99128039Y-74875500D01*
X99271963Y-74875500D01*
X99271964Y-74875499D01*
X99410053Y-74834953D01*
X99531128Y-74757143D01*
X99625377Y-74648373D01*
X99685165Y-74517457D01*
X99702053Y-74400000D01*
X115094353Y-74400000D01*
X115114834Y-74542454D01*
X115174623Y-74673373D01*
X115268868Y-74782139D01*
X115268869Y-74782140D01*
X115268872Y-74782143D01*
X115389947Y-74859953D01*
X115496403Y-74891211D01*
X115528035Y-74900499D01*
X115528037Y-74900500D01*
X115528039Y-74900500D01*
X115671963Y-74900500D01*
X115671964Y-74900499D01*
X115810053Y-74859953D01*
X115931128Y-74782143D01*
X116025377Y-74673373D01*
X116085165Y-74542457D01*
X116105647Y-74400000D01*
X116085165Y-74257543D01*
X116025377Y-74126627D01*
X115934842Y-74022143D01*
X115931131Y-74017860D01*
X115931129Y-74017859D01*
X115931128Y-74017857D01*
X115874182Y-73981260D01*
X115810054Y-73940047D01*
X115810050Y-73940046D01*
X115671964Y-73899500D01*
X115671961Y-73899500D01*
X115528039Y-73899500D01*
X115528036Y-73899500D01*
X115389949Y-73940046D01*
X115389945Y-73940047D01*
X115268875Y-74017855D01*
X115268868Y-74017860D01*
X115174623Y-74126626D01*
X115114834Y-74257545D01*
X115094353Y-74400000D01*
X99702053Y-74400000D01*
X99705647Y-74375000D01*
X99685165Y-74232543D01*
X99625377Y-74101627D01*
X99556505Y-74022144D01*
X99531131Y-73992860D01*
X99531129Y-73992859D01*
X99531128Y-73992857D01*
X99448954Y-73940047D01*
X99410054Y-73915047D01*
X99410050Y-73915046D01*
X99271964Y-73874500D01*
X99271961Y-73874500D01*
X99128039Y-73874500D01*
X99128036Y-73874500D01*
X98989949Y-73915046D01*
X98989945Y-73915047D01*
X98868875Y-73992855D01*
X98868868Y-73992860D01*
X98774623Y-74101626D01*
X98714834Y-74232545D01*
X98694353Y-74375000D01*
X67300500Y-74375000D01*
X67300500Y-73850000D01*
X74944353Y-73850000D01*
X74964834Y-73992454D01*
X74964834Y-73992455D01*
X74964835Y-73992457D01*
X75013927Y-74099952D01*
X75024623Y-74123373D01*
X75118868Y-74232139D01*
X75118869Y-74232140D01*
X75118872Y-74232143D01*
X75239947Y-74309953D01*
X75346403Y-74341211D01*
X75378035Y-74350499D01*
X75378037Y-74350500D01*
X75378039Y-74350500D01*
X75521963Y-74350500D01*
X75521964Y-74350499D01*
X75660053Y-74309953D01*
X75781128Y-74232143D01*
X75875377Y-74123373D01*
X75935165Y-73992457D01*
X75955647Y-73850000D01*
X75935165Y-73707543D01*
X75899752Y-73630000D01*
X94784353Y-73630000D01*
X94804834Y-73772454D01*
X94864623Y-73903373D01*
X94958868Y-74012139D01*
X94958869Y-74012140D01*
X94958872Y-74012143D01*
X95079947Y-74089953D01*
X95186403Y-74121211D01*
X95218035Y-74130499D01*
X95218037Y-74130500D01*
X95218039Y-74130500D01*
X95361963Y-74130500D01*
X95361964Y-74130499D01*
X95375151Y-74126627D01*
X95500053Y-74089953D01*
X95621128Y-74012143D01*
X95715377Y-73903373D01*
X95775165Y-73772457D01*
X95794209Y-73640000D01*
X118864353Y-73640000D01*
X118884834Y-73782454D01*
X118944623Y-73913373D01*
X119038868Y-74022139D01*
X119038869Y-74022140D01*
X119038872Y-74022143D01*
X119131474Y-74081654D01*
X119144386Y-74089953D01*
X119159947Y-74099953D01*
X119263978Y-74130499D01*
X119298035Y-74140499D01*
X119298037Y-74140500D01*
X119298039Y-74140500D01*
X119441963Y-74140500D01*
X119441964Y-74140499D01*
X119580053Y-74099953D01*
X119701128Y-74022143D01*
X119795377Y-73913373D01*
X119855165Y-73782457D01*
X119875647Y-73640000D01*
X119855165Y-73497543D01*
X119795377Y-73366627D01*
X119771814Y-73339434D01*
X119701131Y-73257860D01*
X119701129Y-73257859D01*
X119701128Y-73257857D01*
X119614924Y-73202457D01*
X119580054Y-73180047D01*
X119580050Y-73180046D01*
X119441964Y-73139500D01*
X119441961Y-73139500D01*
X119298039Y-73139500D01*
X119298036Y-73139500D01*
X119159949Y-73180046D01*
X119159945Y-73180047D01*
X119038875Y-73257855D01*
X119038868Y-73257860D01*
X118944623Y-73366626D01*
X118884834Y-73497545D01*
X118864353Y-73640000D01*
X95794209Y-73640000D01*
X95795647Y-73630000D01*
X95775165Y-73487543D01*
X95715377Y-73356627D01*
X95640274Y-73269953D01*
X95621131Y-73247860D01*
X95621129Y-73247859D01*
X95621128Y-73247857D01*
X95550484Y-73202457D01*
X95500054Y-73170047D01*
X95500050Y-73170046D01*
X95361964Y-73129500D01*
X95361961Y-73129500D01*
X95218039Y-73129500D01*
X95218036Y-73129500D01*
X95079949Y-73170046D01*
X95079945Y-73170047D01*
X94958875Y-73247855D01*
X94958868Y-73247860D01*
X94864623Y-73356626D01*
X94804834Y-73487545D01*
X94784353Y-73630000D01*
X75899752Y-73630000D01*
X75875377Y-73576627D01*
X75781128Y-73467857D01*
X75724182Y-73431260D01*
X75660054Y-73390047D01*
X75660050Y-73390046D01*
X75521964Y-73349500D01*
X75521961Y-73349500D01*
X75378039Y-73349500D01*
X75378036Y-73349500D01*
X75239949Y-73390046D01*
X75239945Y-73390047D01*
X75118875Y-73467855D01*
X75118868Y-73467860D01*
X75024623Y-73576626D01*
X74964834Y-73707545D01*
X74944353Y-73850000D01*
X67300500Y-73850000D01*
X67300500Y-72810000D01*
X79894353Y-72810000D01*
X79914834Y-72952454D01*
X79914834Y-72952455D01*
X79914835Y-72952457D01*
X79963949Y-73060000D01*
X79974623Y-73083373D01*
X80068868Y-73192139D01*
X80068869Y-73192140D01*
X80068872Y-73192143D01*
X80189947Y-73269953D01*
X80296403Y-73301211D01*
X80328035Y-73310499D01*
X80328037Y-73310500D01*
X80328039Y-73310500D01*
X80471963Y-73310500D01*
X80471964Y-73310499D01*
X80610053Y-73269953D01*
X80731128Y-73192143D01*
X80825377Y-73083373D01*
X80836051Y-73060000D01*
X90344353Y-73060000D01*
X90364834Y-73202454D01*
X90424623Y-73333373D01*
X90518868Y-73442139D01*
X90518869Y-73442140D01*
X90518872Y-73442143D01*
X90639947Y-73519953D01*
X90746403Y-73551211D01*
X90778035Y-73560499D01*
X90778037Y-73560500D01*
X90778039Y-73560500D01*
X90921963Y-73560500D01*
X90921964Y-73560499D01*
X91060053Y-73519953D01*
X91181128Y-73442143D01*
X91275377Y-73333373D01*
X91335165Y-73202457D01*
X91355647Y-73060000D01*
X91335165Y-72917543D01*
X91275377Y-72786627D01*
X91181128Y-72677857D01*
X91124182Y-72641260D01*
X91060054Y-72600047D01*
X91060050Y-72600046D01*
X90921964Y-72559500D01*
X90921961Y-72559500D01*
X90778039Y-72559500D01*
X90778036Y-72559500D01*
X90639949Y-72600046D01*
X90639945Y-72600047D01*
X90518875Y-72677855D01*
X90518868Y-72677860D01*
X90424623Y-72786626D01*
X90364834Y-72917545D01*
X90344353Y-73060000D01*
X80836051Y-73060000D01*
X80885165Y-72952457D01*
X80905647Y-72810000D01*
X80885165Y-72667543D01*
X80825377Y-72536627D01*
X80731128Y-72427857D01*
X80641101Y-72370000D01*
X80641099Y-72369999D01*
X107094353Y-72369999D01*
X107114834Y-72512454D01*
X107114834Y-72512455D01*
X107114835Y-72512457D01*
X107174622Y-72643372D01*
X107174623Y-72643373D01*
X107268868Y-72752139D01*
X107268869Y-72752140D01*
X107268872Y-72752143D01*
X107389947Y-72829953D01*
X107496403Y-72861211D01*
X107528035Y-72870499D01*
X107528037Y-72870500D01*
X107528039Y-72870500D01*
X107671963Y-72870500D01*
X107671964Y-72870499D01*
X107810053Y-72829953D01*
X107931128Y-72752143D01*
X108025377Y-72643373D01*
X108077153Y-72530000D01*
X117614353Y-72530000D01*
X117634834Y-72672454D01*
X117634834Y-72672455D01*
X117634835Y-72672457D01*
X117671225Y-72752139D01*
X117694623Y-72803373D01*
X117788868Y-72912139D01*
X117788869Y-72912140D01*
X117788872Y-72912143D01*
X117909947Y-72989953D01*
X118016403Y-73021211D01*
X118048035Y-73030499D01*
X118048037Y-73030500D01*
X118048039Y-73030500D01*
X118191963Y-73030500D01*
X118191964Y-73030499D01*
X118330053Y-72989953D01*
X118451128Y-72912143D01*
X118545377Y-72803373D01*
X118605165Y-72672457D01*
X118625647Y-72530000D01*
X118605165Y-72387543D01*
X118545377Y-72256627D01*
X118451128Y-72147857D01*
X118394182Y-72111260D01*
X118330054Y-72070047D01*
X118330050Y-72070046D01*
X118191964Y-72029500D01*
X118191961Y-72029500D01*
X118048039Y-72029500D01*
X118048036Y-72029500D01*
X117909949Y-72070046D01*
X117909945Y-72070047D01*
X117788875Y-72147855D01*
X117788868Y-72147860D01*
X117694623Y-72256626D01*
X117634834Y-72387545D01*
X117614353Y-72530000D01*
X108077153Y-72530000D01*
X108085165Y-72512457D01*
X108105647Y-72370000D01*
X108085165Y-72227543D01*
X108025377Y-72096627D01*
X107931128Y-71987857D01*
X107834147Y-71925531D01*
X107810054Y-71910047D01*
X107810050Y-71910046D01*
X107671964Y-71869500D01*
X107671961Y-71869500D01*
X107528039Y-71869500D01*
X107528036Y-71869500D01*
X107389949Y-71910046D01*
X107389945Y-71910047D01*
X107268875Y-71987855D01*
X107268868Y-71987860D01*
X107174623Y-72096626D01*
X107114834Y-72227545D01*
X107094353Y-72369999D01*
X80641099Y-72369999D01*
X80610054Y-72350047D01*
X80610050Y-72350046D01*
X80471964Y-72309500D01*
X80471961Y-72309500D01*
X80328039Y-72309500D01*
X80328036Y-72309500D01*
X80189949Y-72350046D01*
X80189945Y-72350047D01*
X80068875Y-72427855D01*
X80068868Y-72427860D01*
X79974623Y-72536626D01*
X79914834Y-72667545D01*
X79894353Y-72810000D01*
X67300500Y-72810000D01*
X67300500Y-71194999D01*
X67631462Y-71194999D01*
X67631463Y-71195000D01*
X68248658Y-71195000D01*
X68221105Y-71291840D01*
X68231454Y-71403521D01*
X68252108Y-71445000D01*
X67631463Y-71445000D01*
X67664334Y-71599647D01*
X67664335Y-71599648D01*
X67741283Y-71772477D01*
X67741287Y-71772484D01*
X67852483Y-71925531D01*
X67993079Y-72052125D01*
X68156923Y-72146720D01*
X68336844Y-72205180D01*
X68477841Y-72220000D01*
X68800000Y-72220000D01*
X68800000Y-71620000D01*
X69050000Y-71620000D01*
X69050000Y-72220000D01*
X69372159Y-72220000D01*
X69513155Y-72205180D01*
X69693076Y-72146720D01*
X69856920Y-72052125D01*
X69997516Y-71925531D01*
X70108712Y-71772485D01*
X70108718Y-71772474D01*
X70185663Y-71599652D01*
X70185665Y-71599647D01*
X70218537Y-71445000D01*
X69601342Y-71445000D01*
X69628895Y-71348160D01*
X69618546Y-71236479D01*
X69597892Y-71195000D01*
X70218537Y-71195000D01*
X70218537Y-71194999D01*
X71661462Y-71194999D01*
X71661463Y-71195000D01*
X72278658Y-71195000D01*
X72251105Y-71291840D01*
X72261454Y-71403521D01*
X72282108Y-71445000D01*
X71661463Y-71445000D01*
X71694334Y-71599647D01*
X71694335Y-71599648D01*
X71771283Y-71772477D01*
X71771287Y-71772484D01*
X71882483Y-71925531D01*
X72023079Y-72052125D01*
X72186923Y-72146720D01*
X72366844Y-72205180D01*
X72507841Y-72220000D01*
X72980000Y-72220000D01*
X72980000Y-71620000D01*
X73230000Y-71620000D01*
X73230000Y-72220000D01*
X73702159Y-72220000D01*
X73843155Y-72205180D01*
X74023076Y-72146720D01*
X74186920Y-72052125D01*
X74327516Y-71925531D01*
X74438712Y-71772485D01*
X74438718Y-71772474D01*
X74515663Y-71599652D01*
X74515665Y-71599647D01*
X74517716Y-71589999D01*
X108414353Y-71589999D01*
X108434834Y-71732454D01*
X108434834Y-71732455D01*
X108434835Y-71732457D01*
X108494623Y-71863372D01*
X108494623Y-71863373D01*
X108588868Y-71972139D01*
X108588869Y-71972140D01*
X108588872Y-71972143D01*
X108709947Y-72049953D01*
X108778382Y-72070047D01*
X108848035Y-72090499D01*
X108848037Y-72090500D01*
X108848039Y-72090500D01*
X108991963Y-72090500D01*
X108991964Y-72090499D01*
X109130053Y-72049953D01*
X109251128Y-71972143D01*
X109345377Y-71863373D01*
X109405165Y-71732457D01*
X109425647Y-71590000D01*
X109425647Y-71589999D01*
X116334353Y-71589999D01*
X116354834Y-71732454D01*
X116354834Y-71732455D01*
X116354835Y-71732457D01*
X116414623Y-71863372D01*
X116414623Y-71863373D01*
X116508868Y-71972139D01*
X116508869Y-71972140D01*
X116508872Y-71972143D01*
X116629947Y-72049953D01*
X116698382Y-72070047D01*
X116768035Y-72090499D01*
X116768037Y-72090500D01*
X116768039Y-72090500D01*
X116911963Y-72090500D01*
X116911964Y-72090499D01*
X117050053Y-72049953D01*
X117171128Y-71972143D01*
X117265377Y-71863373D01*
X117325165Y-71732457D01*
X117345647Y-71590000D01*
X117325165Y-71447543D01*
X117265377Y-71316627D01*
X117171128Y-71207857D01*
X117114182Y-71171260D01*
X117050054Y-71130047D01*
X117050050Y-71130046D01*
X116911964Y-71089500D01*
X116911961Y-71089500D01*
X116768039Y-71089500D01*
X116768036Y-71089500D01*
X116629949Y-71130046D01*
X116629945Y-71130047D01*
X116508875Y-71207855D01*
X116508868Y-71207860D01*
X116414623Y-71316626D01*
X116354834Y-71447545D01*
X116334353Y-71589999D01*
X109425647Y-71589999D01*
X109405165Y-71447543D01*
X109345377Y-71316627D01*
X109251128Y-71207857D01*
X109194182Y-71171260D01*
X109130054Y-71130047D01*
X109130050Y-71130046D01*
X108991964Y-71089500D01*
X108991961Y-71089500D01*
X108848039Y-71089500D01*
X108848036Y-71089500D01*
X108709949Y-71130046D01*
X108709945Y-71130047D01*
X108588875Y-71207855D01*
X108588868Y-71207860D01*
X108494623Y-71316626D01*
X108434834Y-71447545D01*
X108414353Y-71589999D01*
X74517716Y-71589999D01*
X74548537Y-71445000D01*
X73931342Y-71445000D01*
X73958895Y-71348160D01*
X73948546Y-71236479D01*
X73927892Y-71195000D01*
X74548537Y-71195000D01*
X74548537Y-71194999D01*
X74515665Y-71040352D01*
X74515664Y-71040351D01*
X74438716Y-70867522D01*
X74438712Y-70867515D01*
X74327516Y-70714468D01*
X74186920Y-70587874D01*
X74023076Y-70493279D01*
X73843155Y-70434819D01*
X73702159Y-70420000D01*
X73230000Y-70420000D01*
X73230000Y-71020000D01*
X72980000Y-71020000D01*
X72980000Y-70403352D01*
X72973153Y-70388669D01*
X72986254Y-70339774D01*
X72995610Y-70330000D01*
X105614353Y-70330000D01*
X105634834Y-70472454D01*
X105634834Y-70472455D01*
X105634835Y-70472457D01*
X105644345Y-70493280D01*
X105694623Y-70603373D01*
X105788868Y-70712139D01*
X105788869Y-70712140D01*
X105788872Y-70712143D01*
X105909947Y-70789953D01*
X106016403Y-70821211D01*
X106048035Y-70830499D01*
X106048037Y-70830500D01*
X106048039Y-70830500D01*
X106191963Y-70830500D01*
X106191964Y-70830499D01*
X106330053Y-70789953D01*
X106451128Y-70712143D01*
X106545377Y-70603373D01*
X106605165Y-70472457D01*
X106625647Y-70330000D01*
X106605165Y-70187543D01*
X106545377Y-70056627D01*
X106451128Y-69947857D01*
X106361879Y-69890500D01*
X106330054Y-69870047D01*
X106330050Y-69870046D01*
X106191964Y-69829500D01*
X106191961Y-69829500D01*
X106048039Y-69829500D01*
X106048036Y-69829500D01*
X105909949Y-69870046D01*
X105909945Y-69870047D01*
X105788875Y-69947855D01*
X105788868Y-69947860D01*
X105694623Y-70056626D01*
X105634834Y-70187545D01*
X105614353Y-70330000D01*
X72995610Y-70330000D01*
X73001816Y-70323517D01*
X73022583Y-70307583D01*
X73116433Y-70185276D01*
X73175429Y-70042846D01*
X73195552Y-69890000D01*
X73175429Y-69737154D01*
X73116433Y-69594724D01*
X73022583Y-69472417D01*
X72915176Y-69390000D01*
X76234353Y-69390000D01*
X76254834Y-69532454D01*
X76254834Y-69532455D01*
X76254835Y-69532457D01*
X76276776Y-69580500D01*
X76314623Y-69663373D01*
X76408868Y-69772139D01*
X76408869Y-69772140D01*
X76408872Y-69772143D01*
X76529947Y-69849953D01*
X76598382Y-69870047D01*
X76668035Y-69890499D01*
X76668037Y-69890500D01*
X76668039Y-69890500D01*
X76811963Y-69890500D01*
X76811964Y-69890499D01*
X76950053Y-69849953D01*
X77071128Y-69772143D01*
X77165377Y-69663373D01*
X77225165Y-69532457D01*
X77245647Y-69390000D01*
X77225165Y-69247543D01*
X77165377Y-69116627D01*
X77133640Y-69080000D01*
X101844353Y-69080000D01*
X101864834Y-69222454D01*
X101864834Y-69222455D01*
X101864835Y-69222457D01*
X101878954Y-69253373D01*
X101924623Y-69353373D01*
X102018868Y-69462139D01*
X102018869Y-69462140D01*
X102018872Y-69462143D01*
X102139947Y-69539953D01*
X102246403Y-69571211D01*
X102278035Y-69580499D01*
X102278037Y-69580500D01*
X102278039Y-69580500D01*
X102421963Y-69580500D01*
X102421964Y-69580499D01*
X102560053Y-69539953D01*
X102681128Y-69462143D01*
X102775377Y-69353373D01*
X102835165Y-69222457D01*
X102855647Y-69080000D01*
X102841269Y-68980000D01*
X107074353Y-68980000D01*
X107094834Y-69122454D01*
X107094834Y-69122455D01*
X107094835Y-69122457D01*
X107151961Y-69247545D01*
X107154623Y-69253373D01*
X107248868Y-69362139D01*
X107248869Y-69362140D01*
X107248872Y-69362143D01*
X107369947Y-69439953D01*
X107476403Y-69471211D01*
X107508035Y-69480499D01*
X107508037Y-69480500D01*
X107508039Y-69480500D01*
X107651963Y-69480500D01*
X107651964Y-69480499D01*
X107679489Y-69472417D01*
X107790053Y-69439953D01*
X107911128Y-69362143D01*
X108005377Y-69253373D01*
X108065165Y-69122457D01*
X108085647Y-68980000D01*
X108065165Y-68837543D01*
X108005377Y-68706627D01*
X107911128Y-68597857D01*
X107854182Y-68561260D01*
X107790054Y-68520047D01*
X107790050Y-68520046D01*
X107651964Y-68479500D01*
X107651961Y-68479500D01*
X107508039Y-68479500D01*
X107508036Y-68479500D01*
X107369949Y-68520046D01*
X107369945Y-68520047D01*
X107248875Y-68597855D01*
X107248868Y-68597860D01*
X107154623Y-68706626D01*
X107094834Y-68837545D01*
X107074353Y-68980000D01*
X102841269Y-68980000D01*
X102835165Y-68937543D01*
X102775377Y-68806627D01*
X102751814Y-68779434D01*
X102681131Y-68697860D01*
X102681129Y-68697859D01*
X102681128Y-68697857D01*
X102624182Y-68661260D01*
X102560054Y-68620047D01*
X102560050Y-68620046D01*
X102421964Y-68579500D01*
X102421961Y-68579500D01*
X102278039Y-68579500D01*
X102278036Y-68579500D01*
X102139949Y-68620046D01*
X102139945Y-68620047D01*
X102018875Y-68697855D01*
X102018868Y-68697860D01*
X101924623Y-68806626D01*
X101864834Y-68937545D01*
X101844353Y-69080000D01*
X77133640Y-69080000D01*
X77071128Y-69007857D01*
X77014182Y-68971260D01*
X76950054Y-68930047D01*
X76950050Y-68930046D01*
X76811964Y-68889500D01*
X76811961Y-68889500D01*
X76668039Y-68889500D01*
X76668036Y-68889500D01*
X76529949Y-68930046D01*
X76529945Y-68930047D01*
X76408875Y-69007855D01*
X76408868Y-69007860D01*
X76314623Y-69116626D01*
X76254834Y-69247545D01*
X76234353Y-69390000D01*
X72915176Y-69390000D01*
X72900276Y-69378567D01*
X72900275Y-69378566D01*
X72757845Y-69319570D01*
X72670006Y-69308006D01*
X72643373Y-69304500D01*
X72566627Y-69304500D01*
X72542769Y-69307641D01*
X72452154Y-69319570D01*
X72309724Y-69378566D01*
X72187417Y-69472417D01*
X72093566Y-69594724D01*
X72034570Y-69737154D01*
X72014448Y-69890000D01*
X72034570Y-70042845D01*
X72093566Y-70185275D01*
X72095308Y-70187545D01*
X72187417Y-70307583D01*
X72245699Y-70352304D01*
X72272895Y-70394995D01*
X72266288Y-70445181D01*
X72228967Y-70479378D01*
X72223518Y-70481389D01*
X72186922Y-70493280D01*
X72023079Y-70587874D01*
X71882483Y-70714468D01*
X71771287Y-70867514D01*
X71771281Y-70867525D01*
X71694336Y-71040347D01*
X71694334Y-71040352D01*
X71661462Y-71194999D01*
X70218537Y-71194999D01*
X70185665Y-71040352D01*
X70185664Y-71040351D01*
X70108716Y-70867522D01*
X70108712Y-70867515D01*
X69997516Y-70714468D01*
X69856920Y-70587874D01*
X69693076Y-70493279D01*
X69513155Y-70434819D01*
X69372159Y-70420000D01*
X69050000Y-70420000D01*
X69050000Y-71020000D01*
X68800000Y-71020000D01*
X68800000Y-70420000D01*
X68477841Y-70420000D01*
X68336844Y-70434819D01*
X68156923Y-70493279D01*
X67993079Y-70587874D01*
X67852483Y-70714468D01*
X67741287Y-70867514D01*
X67741281Y-70867525D01*
X67664336Y-71040347D01*
X67664334Y-71040352D01*
X67631462Y-71194999D01*
X67300500Y-71194999D01*
X67300500Y-68210000D01*
X108394353Y-68210000D01*
X108414834Y-68352454D01*
X108474623Y-68483373D01*
X108568868Y-68592139D01*
X108568869Y-68592140D01*
X108568872Y-68592143D01*
X108689947Y-68669953D01*
X108784991Y-68697860D01*
X108828035Y-68710499D01*
X108828037Y-68710500D01*
X108828039Y-68710500D01*
X108971963Y-68710500D01*
X108971964Y-68710499D01*
X108985151Y-68706627D01*
X109110053Y-68669953D01*
X109228361Y-68593921D01*
X113415354Y-68593921D01*
X113416932Y-68595318D01*
X113567450Y-68674316D01*
X113732505Y-68714999D01*
X113732509Y-68715000D01*
X113902491Y-68715000D01*
X113902494Y-68714999D01*
X114067549Y-68674316D01*
X114218070Y-68595317D01*
X114219644Y-68593921D01*
X114940353Y-68593921D01*
X114941932Y-68595318D01*
X115092450Y-68674316D01*
X115257505Y-68714999D01*
X115257509Y-68715000D01*
X115427491Y-68715000D01*
X115427494Y-68714999D01*
X115592549Y-68674316D01*
X115743070Y-68595317D01*
X115744644Y-68593921D01*
X115744644Y-68593920D01*
X115342500Y-68191776D01*
X114940353Y-68593921D01*
X114219644Y-68593921D01*
X113817499Y-68191776D01*
X113415354Y-68593921D01*
X109228361Y-68593921D01*
X109231128Y-68592143D01*
X109325377Y-68483373D01*
X109385165Y-68352457D01*
X109405647Y-68210000D01*
X109385165Y-68067543D01*
X109325377Y-67936627D01*
X109235426Y-67832817D01*
X109234216Y-67831421D01*
X112652854Y-67831421D01*
X112654432Y-67832818D01*
X112804950Y-67911816D01*
X112970005Y-67952499D01*
X112970009Y-67952500D01*
X113039212Y-67952500D01*
X113086778Y-67969813D01*
X113112088Y-68013650D01*
X113112672Y-68017580D01*
X113132847Y-68183746D01*
X113132849Y-68183750D01*
X113193128Y-68342694D01*
X113242092Y-68413630D01*
X113608229Y-68047492D01*
X113717500Y-68047492D01*
X113755697Y-68100065D01*
X113801662Y-68115000D01*
X113833338Y-68115000D01*
X113879303Y-68100065D01*
X113917500Y-68047492D01*
X113917500Y-68014999D01*
X113994276Y-68014999D01*
X114392906Y-68413630D01*
X114441872Y-68342691D01*
X114502150Y-68183750D01*
X114502152Y-68183745D01*
X114506540Y-68147608D01*
X114529459Y-68102475D01*
X114576028Y-68082634D01*
X114624455Y-68097368D01*
X114652081Y-68139784D01*
X114653460Y-68147608D01*
X114657847Y-68183745D01*
X114657849Y-68183750D01*
X114718128Y-68342694D01*
X114767092Y-68413630D01*
X115133231Y-68047492D01*
X115242500Y-68047492D01*
X115280697Y-68100065D01*
X115326662Y-68115000D01*
X115358338Y-68115000D01*
X115404303Y-68100065D01*
X115442500Y-68047492D01*
X115442500Y-68015000D01*
X115519276Y-68015000D01*
X115917906Y-68413630D01*
X115966872Y-68342691D01*
X116027150Y-68183750D01*
X116027152Y-68183746D01*
X116047328Y-68017580D01*
X116070247Y-67972448D01*
X116116816Y-67952607D01*
X116120788Y-67952500D01*
X116189991Y-67952500D01*
X116189994Y-67952499D01*
X116355049Y-67911816D01*
X116505570Y-67832817D01*
X116507144Y-67831421D01*
X116507144Y-67831420D01*
X116105000Y-67429276D01*
X115519276Y-68015000D01*
X115442500Y-68015000D01*
X115442500Y-67982508D01*
X115404303Y-67929935D01*
X115358338Y-67915000D01*
X115326662Y-67915000D01*
X115280697Y-67929935D01*
X115242500Y-67982508D01*
X115242500Y-68047492D01*
X115133231Y-68047492D01*
X115165723Y-68015000D01*
X115165723Y-68014999D01*
X114580000Y-67429276D01*
X113994276Y-68014999D01*
X113917500Y-68014999D01*
X113917500Y-67982508D01*
X113879303Y-67929935D01*
X113833338Y-67915000D01*
X113801662Y-67915000D01*
X113755697Y-67929935D01*
X113717500Y-67982508D01*
X113717500Y-68047492D01*
X113608229Y-68047492D01*
X113640722Y-68014999D01*
X113640723Y-68014999D01*
X113055000Y-67429276D01*
X112652854Y-67831421D01*
X109234216Y-67831421D01*
X109231131Y-67827860D01*
X109231129Y-67827859D01*
X109231128Y-67827857D01*
X109174182Y-67791260D01*
X109110054Y-67750047D01*
X109110050Y-67750046D01*
X108971964Y-67709500D01*
X108971961Y-67709500D01*
X108828039Y-67709500D01*
X108828036Y-67709500D01*
X108689949Y-67750046D01*
X108689945Y-67750047D01*
X108568875Y-67827855D01*
X108568868Y-67827860D01*
X108474623Y-67936626D01*
X108414834Y-68067545D01*
X108394353Y-68210000D01*
X67300500Y-68210000D01*
X67300500Y-67252503D01*
X112349859Y-67252503D01*
X112370347Y-67421246D01*
X112370349Y-67421250D01*
X112430628Y-67580194D01*
X112479592Y-67651130D01*
X112845731Y-67284992D01*
X112955000Y-67284992D01*
X112993197Y-67337565D01*
X113039162Y-67352500D01*
X113070838Y-67352500D01*
X113116803Y-67337565D01*
X113155000Y-67284992D01*
X113155000Y-67252500D01*
X113231776Y-67252500D01*
X113817499Y-67838223D01*
X114252371Y-67403353D01*
X114370731Y-67284992D01*
X114480000Y-67284992D01*
X114518197Y-67337565D01*
X114564162Y-67352500D01*
X114595838Y-67352500D01*
X114641803Y-67337565D01*
X114680000Y-67284992D01*
X114680000Y-67252500D01*
X114756776Y-67252500D01*
X114907629Y-67403353D01*
X115342500Y-67838223D01*
X115777371Y-67403353D01*
X115895730Y-67284992D01*
X116005000Y-67284992D01*
X116043197Y-67337565D01*
X116089162Y-67352500D01*
X116120838Y-67352500D01*
X116166803Y-67337565D01*
X116205000Y-67284992D01*
X116205000Y-67252500D01*
X116281776Y-67252500D01*
X116680406Y-67651130D01*
X116729372Y-67580191D01*
X116789650Y-67421250D01*
X116789652Y-67421246D01*
X116810141Y-67252503D01*
X116810141Y-67252496D01*
X116789652Y-67083753D01*
X116789650Y-67083749D01*
X116729371Y-66924805D01*
X116680406Y-66853868D01*
X116281776Y-67252499D01*
X116281776Y-67252500D01*
X116205000Y-67252500D01*
X116205000Y-67220008D01*
X116166803Y-67167435D01*
X116120838Y-67152500D01*
X116089162Y-67152500D01*
X116043197Y-67167435D01*
X116005000Y-67220008D01*
X116005000Y-67284992D01*
X115895730Y-67284992D01*
X115928222Y-67252500D01*
X115928222Y-67252499D01*
X115777371Y-67101647D01*
X115342500Y-66666776D01*
X114756776Y-67252499D01*
X114756776Y-67252500D01*
X114680000Y-67252500D01*
X114680000Y-67220008D01*
X114641803Y-67167435D01*
X114595838Y-67152500D01*
X114564162Y-67152500D01*
X114518197Y-67167435D01*
X114480000Y-67220008D01*
X114480000Y-67284992D01*
X114370731Y-67284992D01*
X114403223Y-67252500D01*
X114403223Y-67252499D01*
X114252371Y-67101647D01*
X113817499Y-66666776D01*
X113382629Y-67101647D01*
X113231776Y-67252500D01*
X113155000Y-67252500D01*
X113155000Y-67220008D01*
X113116803Y-67167435D01*
X113070838Y-67152500D01*
X113039162Y-67152500D01*
X112993197Y-67167435D01*
X112955000Y-67220008D01*
X112955000Y-67284992D01*
X112845731Y-67284992D01*
X112878223Y-67252500D01*
X112878223Y-67252499D01*
X112479591Y-66853867D01*
X112430628Y-66924804D01*
X112370349Y-67083749D01*
X112370347Y-67083753D01*
X112349859Y-67252496D01*
X112349859Y-67252503D01*
X67300500Y-67252503D01*
X67300500Y-66673577D01*
X112652854Y-66673577D01*
X113055000Y-67075723D01*
X113489871Y-66640853D01*
X113608231Y-66522492D01*
X113717500Y-66522492D01*
X113755697Y-66575065D01*
X113801662Y-66590000D01*
X113833338Y-66590000D01*
X113879303Y-66575065D01*
X113917500Y-66522492D01*
X113917500Y-66490000D01*
X113994276Y-66490000D01*
X114145129Y-66640853D01*
X114580000Y-67075723D01*
X115014871Y-66640853D01*
X115133231Y-66522492D01*
X115242500Y-66522492D01*
X115280697Y-66575065D01*
X115326662Y-66590000D01*
X115358338Y-66590000D01*
X115404303Y-66575065D01*
X115442500Y-66522492D01*
X115442500Y-66489999D01*
X115519275Y-66489999D01*
X116104999Y-67075723D01*
X116507144Y-66673578D01*
X116505566Y-66672180D01*
X116505564Y-66672179D01*
X116355049Y-66593183D01*
X116227926Y-66561850D01*
X116185886Y-66533656D01*
X116171803Y-66485036D01*
X116192267Y-66438738D01*
X116227926Y-66418150D01*
X116355049Y-66386816D01*
X116505570Y-66307817D01*
X116507144Y-66306421D01*
X116507144Y-66306420D01*
X116105000Y-65904276D01*
X115519276Y-66489999D01*
X115519275Y-66489999D01*
X115442500Y-66489999D01*
X115442500Y-66457508D01*
X115404303Y-66404935D01*
X115358338Y-66390000D01*
X115326662Y-66390000D01*
X115280697Y-66404935D01*
X115242500Y-66457508D01*
X115242500Y-66522492D01*
X115133231Y-66522492D01*
X115165723Y-66490000D01*
X115165723Y-66489999D01*
X114580000Y-65904276D01*
X113994276Y-66490000D01*
X113917500Y-66490000D01*
X113917500Y-66457508D01*
X113879303Y-66404935D01*
X113833338Y-66390000D01*
X113801662Y-66390000D01*
X113755697Y-66404935D01*
X113717500Y-66457508D01*
X113717500Y-66522492D01*
X113608231Y-66522492D01*
X113640723Y-66490000D01*
X113640723Y-66489999D01*
X113055000Y-65904276D01*
X112652854Y-66306421D01*
X112654432Y-66307818D01*
X112804950Y-66386816D01*
X112932073Y-66418150D01*
X112974113Y-66446344D01*
X112988196Y-66494964D01*
X112967732Y-66541262D01*
X112932073Y-66561850D01*
X112804950Y-66593183D01*
X112654432Y-66672181D01*
X112652854Y-66673577D01*
X67300500Y-66673577D01*
X67300500Y-65930000D01*
X80784353Y-65930000D01*
X80804834Y-66072454D01*
X80864623Y-66203373D01*
X80958868Y-66312139D01*
X80958869Y-66312140D01*
X80958872Y-66312143D01*
X81033266Y-66359953D01*
X81075065Y-66386816D01*
X81079947Y-66389953D01*
X81175978Y-66418150D01*
X81218035Y-66430499D01*
X81218037Y-66430500D01*
X81218039Y-66430500D01*
X81361963Y-66430500D01*
X81361964Y-66430499D01*
X81500053Y-66389953D01*
X81621128Y-66312143D01*
X81627216Y-66305116D01*
X81671446Y-66280502D01*
X81721151Y-66290078D01*
X81723099Y-66291286D01*
X81829947Y-66359953D01*
X81921435Y-66386816D01*
X81968035Y-66400499D01*
X81968037Y-66400500D01*
X81968039Y-66400500D01*
X82111963Y-66400500D01*
X82111964Y-66400499D01*
X82250053Y-66359953D01*
X82371128Y-66282143D01*
X82465377Y-66173373D01*
X82525165Y-66042457D01*
X82545647Y-65900000D01*
X82525165Y-65757543D01*
X82511446Y-65727503D01*
X112349859Y-65727503D01*
X112370347Y-65896246D01*
X112370349Y-65896250D01*
X112430628Y-66055194D01*
X112479592Y-66126130D01*
X112845731Y-65759992D01*
X112955000Y-65759992D01*
X112993197Y-65812565D01*
X113039162Y-65827500D01*
X113070838Y-65827500D01*
X113116803Y-65812565D01*
X113155000Y-65759992D01*
X113155000Y-65727500D01*
X113231776Y-65727500D01*
X113817499Y-66313223D01*
X114252371Y-65878353D01*
X114370731Y-65759992D01*
X114480000Y-65759992D01*
X114518197Y-65812565D01*
X114564162Y-65827500D01*
X114595838Y-65827500D01*
X114641803Y-65812565D01*
X114680000Y-65759992D01*
X114680000Y-65727500D01*
X114756776Y-65727500D01*
X115342499Y-66313223D01*
X115777371Y-65878353D01*
X115895730Y-65759992D01*
X116005000Y-65759992D01*
X116043197Y-65812565D01*
X116089162Y-65827500D01*
X116120838Y-65827500D01*
X116166803Y-65812565D01*
X116205000Y-65759992D01*
X116205000Y-65727500D01*
X116281776Y-65727500D01*
X116680406Y-66126130D01*
X116729372Y-66055191D01*
X116789650Y-65896250D01*
X116789652Y-65896246D01*
X116810141Y-65727503D01*
X116810141Y-65727496D01*
X116789652Y-65558753D01*
X116789650Y-65558749D01*
X116729371Y-65399805D01*
X116680406Y-65328868D01*
X116281776Y-65727499D01*
X116281776Y-65727500D01*
X116205000Y-65727500D01*
X116205000Y-65695008D01*
X116166803Y-65642435D01*
X116120838Y-65627500D01*
X116089162Y-65627500D01*
X116043197Y-65642435D01*
X116005000Y-65695008D01*
X116005000Y-65759992D01*
X115895730Y-65759992D01*
X115928222Y-65727500D01*
X115928222Y-65727499D01*
X115777371Y-65576647D01*
X115342500Y-65141776D01*
X114756776Y-65727500D01*
X114680000Y-65727500D01*
X114680000Y-65695008D01*
X114641803Y-65642435D01*
X114595838Y-65627500D01*
X114564162Y-65627500D01*
X114518197Y-65642435D01*
X114480000Y-65695008D01*
X114480000Y-65759992D01*
X114370731Y-65759992D01*
X114403223Y-65727500D01*
X114403223Y-65727499D01*
X114252371Y-65576647D01*
X113817499Y-65141776D01*
X113382629Y-65576647D01*
X113231776Y-65727499D01*
X113231776Y-65727500D01*
X113155000Y-65727500D01*
X113155000Y-65695008D01*
X113116803Y-65642435D01*
X113070838Y-65627500D01*
X113039162Y-65627500D01*
X112993197Y-65642435D01*
X112955000Y-65695008D01*
X112955000Y-65759992D01*
X112845731Y-65759992D01*
X112878223Y-65727500D01*
X112878223Y-65727499D01*
X112479591Y-65328867D01*
X112430628Y-65399804D01*
X112370349Y-65558749D01*
X112370347Y-65558753D01*
X112349859Y-65727496D01*
X112349859Y-65727503D01*
X82511446Y-65727503D01*
X82465377Y-65626627D01*
X82427997Y-65583488D01*
X82371131Y-65517860D01*
X82371129Y-65517859D01*
X82371128Y-65517857D01*
X82296734Y-65470047D01*
X82250054Y-65440047D01*
X82250050Y-65440046D01*
X82111964Y-65399500D01*
X82111961Y-65399500D01*
X81968039Y-65399500D01*
X81968036Y-65399500D01*
X81829949Y-65440046D01*
X81829945Y-65440047D01*
X81708871Y-65517857D01*
X81708870Y-65517858D01*
X81702779Y-65524888D01*
X81658545Y-65549498D01*
X81608841Y-65539917D01*
X81606848Y-65538680D01*
X81500054Y-65470047D01*
X81500050Y-65470046D01*
X81361964Y-65429500D01*
X81361961Y-65429500D01*
X81218039Y-65429500D01*
X81218036Y-65429500D01*
X81079949Y-65470046D01*
X81079945Y-65470047D01*
X80958875Y-65547855D01*
X80958868Y-65547860D01*
X80864623Y-65656626D01*
X80804834Y-65787545D01*
X80784353Y-65930000D01*
X67300500Y-65930000D01*
X67300500Y-65148577D01*
X112652854Y-65148577D01*
X113055000Y-65550723D01*
X113489871Y-65115853D01*
X113608230Y-64997492D01*
X113717500Y-64997492D01*
X113755697Y-65050065D01*
X113801662Y-65065000D01*
X113833338Y-65065000D01*
X113879303Y-65050065D01*
X113917500Y-64997492D01*
X113917500Y-64964999D01*
X113994276Y-64964999D01*
X114145129Y-65115853D01*
X114580000Y-65550723D01*
X115014871Y-65115853D01*
X115133230Y-64997492D01*
X115242500Y-64997492D01*
X115280697Y-65050065D01*
X115326662Y-65065000D01*
X115358338Y-65065000D01*
X115404303Y-65050065D01*
X115442500Y-64997492D01*
X115442500Y-64964999D01*
X115519275Y-64964999D01*
X116104999Y-65550723D01*
X116507144Y-65148578D01*
X116505566Y-65147180D01*
X116505564Y-65147179D01*
X116355049Y-65068183D01*
X116189994Y-65027500D01*
X116120788Y-65027500D01*
X116073222Y-65010187D01*
X116047912Y-64966350D01*
X116047328Y-64962420D01*
X116027152Y-64796253D01*
X116027150Y-64796249D01*
X115966871Y-64637305D01*
X115917906Y-64566368D01*
X115519276Y-64964999D01*
X115519275Y-64964999D01*
X115442500Y-64964999D01*
X115442500Y-64932508D01*
X115404303Y-64879935D01*
X115358338Y-64865000D01*
X115326662Y-64865000D01*
X115280697Y-64879935D01*
X115242500Y-64932508D01*
X115242500Y-64997492D01*
X115133230Y-64997492D01*
X115165723Y-64964999D01*
X115165723Y-64964998D01*
X114767091Y-64566367D01*
X114718128Y-64637304D01*
X114657849Y-64796249D01*
X114657847Y-64796253D01*
X114653460Y-64832392D01*
X114630541Y-64877524D01*
X114583972Y-64897365D01*
X114535545Y-64882631D01*
X114507919Y-64840215D01*
X114506540Y-64832392D01*
X114502152Y-64796253D01*
X114502150Y-64796249D01*
X114441871Y-64637305D01*
X114392906Y-64566368D01*
X113994276Y-64964998D01*
X113994276Y-64964999D01*
X113917500Y-64964999D01*
X113917500Y-64932508D01*
X113879303Y-64879935D01*
X113833338Y-64865000D01*
X113801662Y-64865000D01*
X113755697Y-64879935D01*
X113717500Y-64932508D01*
X113717500Y-64997492D01*
X113608230Y-64997492D01*
X113640723Y-64964999D01*
X113242091Y-64566367D01*
X113193128Y-64637304D01*
X113132849Y-64796249D01*
X113132847Y-64796253D01*
X113112672Y-64962420D01*
X113089753Y-65007552D01*
X113043184Y-65027393D01*
X113039212Y-65027500D01*
X112970005Y-65027500D01*
X112804950Y-65068183D01*
X112654432Y-65147181D01*
X112652854Y-65148577D01*
X67300500Y-65148577D01*
X67300500Y-62554999D01*
X67631462Y-62554999D01*
X67631463Y-62555000D01*
X68248658Y-62555000D01*
X68221105Y-62651840D01*
X68231454Y-62763521D01*
X68252108Y-62805000D01*
X67631463Y-62805000D01*
X67664334Y-62959647D01*
X67664335Y-62959648D01*
X67741283Y-63132477D01*
X67741287Y-63132484D01*
X67852483Y-63285531D01*
X67993079Y-63412125D01*
X68156923Y-63506720D01*
X68336844Y-63565180D01*
X68477841Y-63580000D01*
X68800000Y-63580000D01*
X68800000Y-62980000D01*
X69050000Y-62980000D01*
X69050000Y-63580000D01*
X69372159Y-63580000D01*
X69513155Y-63565180D01*
X69693076Y-63506720D01*
X69856920Y-63412125D01*
X69997516Y-63285531D01*
X70108712Y-63132485D01*
X70108718Y-63132474D01*
X70185663Y-62959652D01*
X70185665Y-62959647D01*
X70218537Y-62805000D01*
X69601342Y-62805000D01*
X69628895Y-62708160D01*
X69618546Y-62596479D01*
X69597892Y-62555000D01*
X70218537Y-62555000D01*
X70218537Y-62554999D01*
X71661462Y-62554999D01*
X71661463Y-62555000D01*
X72278658Y-62555000D01*
X72251105Y-62651840D01*
X72261454Y-62763521D01*
X72282108Y-62805000D01*
X71661463Y-62805000D01*
X71694334Y-62959647D01*
X71694335Y-62959648D01*
X71771283Y-63132477D01*
X71771287Y-63132484D01*
X71882483Y-63285531D01*
X72023079Y-63412125D01*
X72186924Y-63506720D01*
X72223516Y-63518610D01*
X72263405Y-63549774D01*
X72273929Y-63599287D01*
X72250165Y-63643981D01*
X72245698Y-63647695D01*
X72187421Y-63692413D01*
X72187418Y-63692416D01*
X72093566Y-63814724D01*
X72034570Y-63957154D01*
X72014448Y-64110000D01*
X72034570Y-64262845D01*
X72093566Y-64405275D01*
X72093567Y-64405276D01*
X72187417Y-64527583D01*
X72309724Y-64621433D01*
X72452154Y-64680429D01*
X72566627Y-64695500D01*
X72566629Y-64695500D01*
X72643371Y-64695500D01*
X72643373Y-64695500D01*
X72757846Y-64680429D01*
X72900276Y-64621433D01*
X73022583Y-64527583D01*
X73116433Y-64405276D01*
X73175429Y-64262846D01*
X73183045Y-64205000D01*
X74899353Y-64205000D01*
X74919834Y-64347454D01*
X74919834Y-64347455D01*
X74919835Y-64347457D01*
X74979623Y-64478372D01*
X74979623Y-64478373D01*
X75073868Y-64587139D01*
X75073869Y-64587140D01*
X75073872Y-64587143D01*
X75194947Y-64664953D01*
X75298982Y-64695500D01*
X75333035Y-64705499D01*
X75333037Y-64705500D01*
X75333039Y-64705500D01*
X75476963Y-64705500D01*
X75476964Y-64705499D01*
X75615053Y-64664953D01*
X75736128Y-64587143D01*
X75830377Y-64478373D01*
X75872528Y-64386077D01*
X113415353Y-64386077D01*
X113817499Y-64788223D01*
X114219644Y-64386078D01*
X114219643Y-64386077D01*
X114940354Y-64386077D01*
X115342500Y-64788223D01*
X115744644Y-64386078D01*
X115743066Y-64384680D01*
X115743064Y-64384679D01*
X115592549Y-64305683D01*
X115427494Y-64265000D01*
X115257505Y-64265000D01*
X115092450Y-64305683D01*
X114941932Y-64384681D01*
X114940354Y-64386077D01*
X114219643Y-64386077D01*
X114218066Y-64384680D01*
X114218064Y-64384679D01*
X114067549Y-64305683D01*
X113902494Y-64265000D01*
X113732505Y-64265000D01*
X113567450Y-64305683D01*
X113416932Y-64384681D01*
X113415354Y-64386077D01*
X113415353Y-64386077D01*
X75872528Y-64386077D01*
X75890165Y-64347457D01*
X75910647Y-64205000D01*
X75890165Y-64062543D01*
X75830377Y-63931627D01*
X75736128Y-63822857D01*
X75679182Y-63786260D01*
X75615054Y-63745047D01*
X75615050Y-63745046D01*
X75476964Y-63704500D01*
X75476961Y-63704500D01*
X75333039Y-63704500D01*
X75333036Y-63704500D01*
X75194949Y-63745046D01*
X75194945Y-63745047D01*
X75073875Y-63822855D01*
X75073868Y-63822860D01*
X74979623Y-63931626D01*
X74919834Y-64062545D01*
X74899353Y-64205000D01*
X73183045Y-64205000D01*
X73195552Y-64110000D01*
X73175429Y-63957154D01*
X73116433Y-63814724D01*
X73022583Y-63692417D01*
X73001820Y-63676485D01*
X72974625Y-63633797D01*
X72980000Y-63592969D01*
X72980000Y-62980000D01*
X73230000Y-62980000D01*
X73230000Y-63580000D01*
X73702159Y-63580000D01*
X73843155Y-63565180D01*
X74023076Y-63506720D01*
X74186920Y-63412125D01*
X74327516Y-63285531D01*
X74438712Y-63132485D01*
X74438718Y-63132474D01*
X74515663Y-62959652D01*
X74515665Y-62959647D01*
X74548537Y-62805000D01*
X73931342Y-62805000D01*
X73958895Y-62708160D01*
X73948546Y-62596479D01*
X73927892Y-62555000D01*
X74548537Y-62555000D01*
X74548537Y-62554999D01*
X74515665Y-62400352D01*
X74515664Y-62400351D01*
X74438716Y-62227522D01*
X74438712Y-62227515D01*
X74327516Y-62074468D01*
X74186920Y-61947874D01*
X74023076Y-61853279D01*
X73843155Y-61794819D01*
X73702159Y-61780000D01*
X73230000Y-61780000D01*
X73230000Y-62380000D01*
X72980000Y-62380000D01*
X72980000Y-61780000D01*
X72507841Y-61780000D01*
X72366844Y-61794819D01*
X72186923Y-61853279D01*
X72023079Y-61947874D01*
X71882483Y-62074468D01*
X71771287Y-62227514D01*
X71771281Y-62227525D01*
X71694336Y-62400347D01*
X71694334Y-62400352D01*
X71661462Y-62554999D01*
X70218537Y-62554999D01*
X70185665Y-62400352D01*
X70185664Y-62400351D01*
X70108716Y-62227522D01*
X70108712Y-62227515D01*
X69997516Y-62074468D01*
X69856920Y-61947874D01*
X69693076Y-61853279D01*
X69513155Y-61794819D01*
X69372159Y-61780000D01*
X69050000Y-61780000D01*
X69050000Y-62380000D01*
X68800000Y-62380000D01*
X68800000Y-61780000D01*
X68477841Y-61780000D01*
X68336844Y-61794819D01*
X68156923Y-61853279D01*
X67993079Y-61947874D01*
X67852483Y-62074468D01*
X67741287Y-62227514D01*
X67741281Y-62227525D01*
X67664336Y-62400347D01*
X67664334Y-62400352D01*
X67631462Y-62554999D01*
X67300500Y-62554999D01*
X67300500Y-61210000D01*
X93924353Y-61210000D01*
X93944834Y-61352454D01*
X94004623Y-61483373D01*
X94098868Y-61592139D01*
X94098869Y-61592140D01*
X94098872Y-61592143D01*
X94219947Y-61669953D01*
X94326403Y-61701211D01*
X94358035Y-61710499D01*
X94358037Y-61710500D01*
X94358039Y-61710500D01*
X94501963Y-61710500D01*
X94501964Y-61710499D01*
X94640053Y-61669953D01*
X94761128Y-61592143D01*
X94855377Y-61483373D01*
X94915165Y-61352457D01*
X94935647Y-61210000D01*
X94915165Y-61067543D01*
X94855377Y-60936627D01*
X94817899Y-60893375D01*
X94761131Y-60827860D01*
X94761129Y-60827859D01*
X94761128Y-60827857D01*
X94704182Y-60791260D01*
X94640054Y-60750047D01*
X94640050Y-60750046D01*
X94501964Y-60709500D01*
X94501961Y-60709500D01*
X94358039Y-60709500D01*
X94358036Y-60709500D01*
X94219949Y-60750046D01*
X94219945Y-60750047D01*
X94098875Y-60827855D01*
X94098868Y-60827860D01*
X94004623Y-60936626D01*
X93944834Y-61067545D01*
X93924353Y-61210000D01*
X67300500Y-61210000D01*
X67300500Y-60620000D01*
X84864353Y-60620000D01*
X84884834Y-60762454D01*
X84884834Y-60762455D01*
X84884835Y-60762457D01*
X84930037Y-60861435D01*
X84944623Y-60893373D01*
X85038868Y-61002139D01*
X85038869Y-61002140D01*
X85038872Y-61002143D01*
X85131474Y-61061654D01*
X85140636Y-61067543D01*
X85159947Y-61079953D01*
X85266403Y-61111211D01*
X85298035Y-61120499D01*
X85298037Y-61120500D01*
X85298039Y-61120500D01*
X85441963Y-61120500D01*
X85441964Y-61120499D01*
X85580053Y-61079953D01*
X85701128Y-61002143D01*
X85795377Y-60893373D01*
X85795378Y-60893369D01*
X85797745Y-60889687D01*
X85838025Y-60859029D01*
X85888586Y-60861435D01*
X85922255Y-60889687D01*
X85924624Y-60893375D01*
X86018868Y-61002139D01*
X86018869Y-61002140D01*
X86018872Y-61002143D01*
X86111474Y-61061654D01*
X86120636Y-61067543D01*
X86139947Y-61079953D01*
X86246403Y-61111211D01*
X86278035Y-61120499D01*
X86278037Y-61120500D01*
X86278039Y-61120500D01*
X86421963Y-61120500D01*
X86421964Y-61120499D01*
X86560053Y-61079953D01*
X86681128Y-61002143D01*
X86775377Y-60893373D01*
X86835165Y-60762457D01*
X86855647Y-60620000D01*
X86835165Y-60477543D01*
X86813453Y-60430000D01*
X98614353Y-60430000D01*
X98634834Y-60572454D01*
X98634834Y-60572455D01*
X98634835Y-60572457D01*
X98694623Y-60703372D01*
X98694623Y-60703373D01*
X98788868Y-60812139D01*
X98788869Y-60812140D01*
X98788872Y-60812143D01*
X98909947Y-60889953D01*
X99016403Y-60921211D01*
X99048035Y-60930499D01*
X99048037Y-60930500D01*
X99048039Y-60930500D01*
X99191963Y-60930500D01*
X99191964Y-60930499D01*
X99330053Y-60889953D01*
X99451128Y-60812143D01*
X99545377Y-60703373D01*
X99605165Y-60572457D01*
X99625647Y-60430000D01*
X99605165Y-60287543D01*
X99545377Y-60156627D01*
X99451128Y-60047857D01*
X99394182Y-60011260D01*
X99330054Y-59970047D01*
X99330050Y-59970046D01*
X99191964Y-59929500D01*
X99191961Y-59929500D01*
X99048039Y-59929500D01*
X99048036Y-59929500D01*
X98909949Y-59970046D01*
X98909945Y-59970047D01*
X98788875Y-60047855D01*
X98788868Y-60047860D01*
X98694623Y-60156626D01*
X98634834Y-60287545D01*
X98614353Y-60430000D01*
X86813453Y-60430000D01*
X86775377Y-60346627D01*
X86702172Y-60262143D01*
X86681131Y-60237860D01*
X86681129Y-60237859D01*
X86681128Y-60237857D01*
X86613677Y-60194509D01*
X86560054Y-60160047D01*
X86560050Y-60160046D01*
X86421964Y-60119500D01*
X86421961Y-60119500D01*
X86278039Y-60119500D01*
X86278036Y-60119500D01*
X86139949Y-60160046D01*
X86139945Y-60160047D01*
X86018875Y-60237855D01*
X86018868Y-60237860D01*
X85924621Y-60346628D01*
X85922252Y-60350316D01*
X85881972Y-60380971D01*
X85831410Y-60378562D01*
X85797748Y-60350316D01*
X85795378Y-60346628D01*
X85701131Y-60237860D01*
X85701129Y-60237859D01*
X85701128Y-60237857D01*
X85633677Y-60194509D01*
X85580054Y-60160047D01*
X85580050Y-60160046D01*
X85441964Y-60119500D01*
X85441961Y-60119500D01*
X85298039Y-60119500D01*
X85298036Y-60119500D01*
X85159949Y-60160046D01*
X85159945Y-60160047D01*
X85038875Y-60237855D01*
X85038868Y-60237860D01*
X84944623Y-60346626D01*
X84884834Y-60477545D01*
X84864353Y-60620000D01*
X67300500Y-60620000D01*
X67300500Y-59782262D01*
X80397014Y-59782262D01*
X80530312Y-59852222D01*
X80683576Y-59889999D01*
X80683580Y-59890000D01*
X80841420Y-59890000D01*
X80841423Y-59889999D01*
X80994687Y-59852222D01*
X81127984Y-59782262D01*
X80762500Y-59416777D01*
X80397014Y-59782262D01*
X67300500Y-59782262D01*
X67300500Y-59240003D01*
X80107726Y-59240003D01*
X80126752Y-59396697D01*
X80182725Y-59544288D01*
X80223034Y-59602686D01*
X80553229Y-59272492D01*
X80662500Y-59272492D01*
X80700697Y-59325065D01*
X80746662Y-59340000D01*
X80778338Y-59340000D01*
X80824303Y-59325065D01*
X80862500Y-59272492D01*
X80862500Y-59239999D01*
X80939276Y-59239999D01*
X81301963Y-59602686D01*
X81342275Y-59544285D01*
X81370447Y-59470000D01*
X97724353Y-59470000D01*
X97744834Y-59612454D01*
X97744834Y-59612455D01*
X97744835Y-59612457D01*
X97801961Y-59737545D01*
X97804623Y-59743373D01*
X97898868Y-59852139D01*
X97898869Y-59852140D01*
X97898872Y-59852143D01*
X98019947Y-59929953D01*
X98126403Y-59961211D01*
X98158035Y-59970499D01*
X98158037Y-59970500D01*
X98158039Y-59970500D01*
X98301963Y-59970500D01*
X98301964Y-59970499D01*
X98440053Y-59929953D01*
X98517782Y-59880000D01*
X119664353Y-59880000D01*
X119684834Y-60022454D01*
X119684834Y-60022455D01*
X119684835Y-60022457D01*
X119729154Y-60119500D01*
X119744623Y-60153373D01*
X119838868Y-60262139D01*
X119838869Y-60262140D01*
X119838872Y-60262143D01*
X119931474Y-60321654D01*
X119944386Y-60329953D01*
X119959947Y-60339953D01*
X120063978Y-60370499D01*
X120098035Y-60380499D01*
X120098037Y-60380500D01*
X120098039Y-60380500D01*
X120241963Y-60380500D01*
X120241964Y-60380499D01*
X120248561Y-60378562D01*
X120380053Y-60339953D01*
X120501128Y-60262143D01*
X120538407Y-60219118D01*
X120582638Y-60194509D01*
X120632343Y-60204087D01*
X120650258Y-60219120D01*
X120678868Y-60252139D01*
X120678869Y-60252140D01*
X120678872Y-60252143D01*
X120799947Y-60329953D01*
X120906403Y-60361211D01*
X120938035Y-60370499D01*
X120938037Y-60370500D01*
X120938039Y-60370500D01*
X121081963Y-60370500D01*
X121081964Y-60370499D01*
X121220053Y-60329953D01*
X121341128Y-60252143D01*
X121435377Y-60143373D01*
X121495165Y-60012457D01*
X121515647Y-59870000D01*
X121495165Y-59727543D01*
X121435377Y-59596627D01*
X121390023Y-59544285D01*
X121341131Y-59487860D01*
X121341129Y-59487859D01*
X121341128Y-59487857D01*
X121284182Y-59451260D01*
X121220054Y-59410047D01*
X121220050Y-59410046D01*
X121081964Y-59369500D01*
X121081961Y-59369500D01*
X120938039Y-59369500D01*
X120938036Y-59369500D01*
X120799949Y-59410046D01*
X120799945Y-59410047D01*
X120678873Y-59487856D01*
X120678872Y-59487856D01*
X120678872Y-59487857D01*
X120665993Y-59502719D01*
X120641592Y-59530880D01*
X120597358Y-59555490D01*
X120547654Y-59545909D01*
X120529742Y-59530879D01*
X120501132Y-59497861D01*
X120501130Y-59497859D01*
X120501128Y-59497857D01*
X120444182Y-59461260D01*
X120380054Y-59420047D01*
X120380050Y-59420046D01*
X120241964Y-59379500D01*
X120241961Y-59379500D01*
X120098039Y-59379500D01*
X120098036Y-59379500D01*
X119959949Y-59420046D01*
X119959945Y-59420047D01*
X119838875Y-59497855D01*
X119838868Y-59497860D01*
X119744623Y-59606626D01*
X119684834Y-59737545D01*
X119664353Y-59880000D01*
X98517782Y-59880000D01*
X98561128Y-59852143D01*
X98655377Y-59743373D01*
X98715165Y-59612457D01*
X98735647Y-59470000D01*
X98715165Y-59327543D01*
X98655377Y-59196627D01*
X98561128Y-59087857D01*
X98504182Y-59051260D01*
X98440054Y-59010047D01*
X98440050Y-59010046D01*
X98301964Y-58969500D01*
X98301961Y-58969500D01*
X98158039Y-58969500D01*
X98158036Y-58969500D01*
X98019949Y-59010046D01*
X98019945Y-59010047D01*
X97898875Y-59087855D01*
X97898868Y-59087860D01*
X97804623Y-59196626D01*
X97744834Y-59327545D01*
X97724353Y-59470000D01*
X81370447Y-59470000D01*
X81398247Y-59396697D01*
X81417274Y-59240003D01*
X81417274Y-59239996D01*
X81398247Y-59083302D01*
X81342274Y-58935711D01*
X81301963Y-58877311D01*
X80939276Y-59239999D01*
X80862500Y-59239999D01*
X80862500Y-59207508D01*
X80824303Y-59154935D01*
X80778338Y-59140000D01*
X80746662Y-59140000D01*
X80700697Y-59154935D01*
X80662500Y-59207508D01*
X80662500Y-59272492D01*
X80553229Y-59272492D01*
X80585722Y-59239999D01*
X80223034Y-58877311D01*
X80182725Y-58935710D01*
X80126752Y-59083302D01*
X80107726Y-59239996D01*
X80107726Y-59240003D01*
X67300500Y-59240003D01*
X67300500Y-58697220D01*
X80396497Y-58697220D01*
X80762499Y-59063222D01*
X81128501Y-58697220D01*
X81128501Y-58682778D01*
X80762500Y-58316777D01*
X80396497Y-58682779D01*
X80396497Y-58697220D01*
X67300500Y-58697220D01*
X67300500Y-58140003D01*
X80107726Y-58140003D01*
X80126752Y-58296697D01*
X80182725Y-58444288D01*
X80223035Y-58502686D01*
X80553229Y-58172492D01*
X80662500Y-58172492D01*
X80700697Y-58225065D01*
X80746662Y-58240000D01*
X80778338Y-58240000D01*
X80824303Y-58225065D01*
X80862500Y-58172492D01*
X80862500Y-58139999D01*
X80939277Y-58139999D01*
X81301963Y-58502686D01*
X81342275Y-58444285D01*
X81398247Y-58296697D01*
X81417274Y-58140003D01*
X81417274Y-58139996D01*
X81398247Y-57983302D01*
X81342274Y-57835711D01*
X81301963Y-57777311D01*
X80939277Y-58139999D01*
X80862500Y-58139999D01*
X80862500Y-58107508D01*
X80824303Y-58054935D01*
X80778338Y-58040000D01*
X80746662Y-58040000D01*
X80700697Y-58054935D01*
X80662500Y-58107508D01*
X80662500Y-58172492D01*
X80553229Y-58172492D01*
X80585722Y-58139999D01*
X80223034Y-57777311D01*
X80182725Y-57835710D01*
X80126752Y-57983302D01*
X80107726Y-58139996D01*
X80107726Y-58140003D01*
X67300500Y-58140003D01*
X67300500Y-57597736D01*
X80397014Y-57597736D01*
X80762499Y-57963221D01*
X81127984Y-57597736D01*
X80994687Y-57527777D01*
X80841423Y-57490000D01*
X80683576Y-57490000D01*
X80530310Y-57527777D01*
X80397014Y-57597736D01*
X67300500Y-57597736D01*
X67300500Y-56330000D01*
X89924353Y-56330000D01*
X89944834Y-56472454D01*
X89944834Y-56472455D01*
X89944835Y-56472457D01*
X90004623Y-56603372D01*
X90004623Y-56603373D01*
X90098868Y-56712139D01*
X90098869Y-56712140D01*
X90098872Y-56712143D01*
X90219947Y-56789953D01*
X90288062Y-56809953D01*
X90358035Y-56830499D01*
X90358037Y-56830500D01*
X90358039Y-56830500D01*
X90501963Y-56830500D01*
X90501964Y-56830499D01*
X90640053Y-56789953D01*
X90761128Y-56712143D01*
X90855377Y-56603373D01*
X90915165Y-56472457D01*
X90932772Y-56349999D01*
X93694353Y-56349999D01*
X93714834Y-56492454D01*
X93714834Y-56492455D01*
X93714835Y-56492457D01*
X93728536Y-56522457D01*
X93774623Y-56623373D01*
X93868868Y-56732139D01*
X93868869Y-56732140D01*
X93868872Y-56732143D01*
X93989947Y-56809953D01*
X94092115Y-56839952D01*
X94128035Y-56850499D01*
X94128037Y-56850500D01*
X94128039Y-56850500D01*
X94271963Y-56850500D01*
X94271964Y-56850499D01*
X94410053Y-56809953D01*
X94531128Y-56732143D01*
X94625377Y-56623373D01*
X94685165Y-56492457D01*
X94701334Y-56380000D01*
X118574353Y-56380000D01*
X118594834Y-56522454D01*
X118654623Y-56653373D01*
X118748868Y-56762139D01*
X118748869Y-56762140D01*
X118748872Y-56762143D01*
X118869947Y-56839953D01*
X118976403Y-56871211D01*
X119008035Y-56880499D01*
X119008037Y-56880500D01*
X119008039Y-56880500D01*
X119151963Y-56880500D01*
X119151964Y-56880499D01*
X119290053Y-56839953D01*
X119411128Y-56762143D01*
X119505377Y-56653373D01*
X119565165Y-56522457D01*
X119585647Y-56380000D01*
X119565165Y-56237543D01*
X119505377Y-56106627D01*
X119411128Y-55997857D01*
X119333331Y-55947860D01*
X119290054Y-55920047D01*
X119290050Y-55920046D01*
X119151964Y-55879500D01*
X119151961Y-55879500D01*
X119008039Y-55879500D01*
X119008036Y-55879500D01*
X118869949Y-55920046D01*
X118869945Y-55920047D01*
X118748875Y-55997855D01*
X118748868Y-55997860D01*
X118654623Y-56106626D01*
X118594834Y-56237545D01*
X118574353Y-56380000D01*
X94701334Y-56380000D01*
X94705647Y-56350000D01*
X94685165Y-56207543D01*
X94625377Y-56076627D01*
X94531128Y-55967857D01*
X94456734Y-55920047D01*
X94410054Y-55890047D01*
X94410050Y-55890046D01*
X94271964Y-55849500D01*
X94271961Y-55849500D01*
X94128039Y-55849500D01*
X94128036Y-55849500D01*
X93989949Y-55890046D01*
X93989945Y-55890047D01*
X93868875Y-55967855D01*
X93868868Y-55967860D01*
X93774623Y-56076626D01*
X93714834Y-56207545D01*
X93694353Y-56349999D01*
X90932772Y-56349999D01*
X90935647Y-56330000D01*
X90915165Y-56187543D01*
X90855377Y-56056627D01*
X90778458Y-55967857D01*
X90761131Y-55947860D01*
X90761129Y-55947859D01*
X90761128Y-55947857D01*
X90671174Y-55890047D01*
X90640054Y-55870047D01*
X90640050Y-55870046D01*
X90501964Y-55829500D01*
X90501961Y-55829500D01*
X90358039Y-55829500D01*
X90358036Y-55829500D01*
X90219949Y-55870046D01*
X90219945Y-55870047D01*
X90098875Y-55947855D01*
X90098868Y-55947860D01*
X90004623Y-56056626D01*
X89944834Y-56187545D01*
X89924353Y-56330000D01*
X67300500Y-56330000D01*
X67300500Y-51953687D01*
X85205739Y-51953687D01*
X85215754Y-52138398D01*
X85215754Y-52138402D01*
X85215755Y-52138407D01*
X85265246Y-52316659D01*
X85351900Y-52480104D01*
X85471663Y-52621100D01*
X85618936Y-52733054D01*
X85618938Y-52733055D01*
X85712725Y-52776446D01*
X85786833Y-52810732D01*
X85967503Y-52850500D01*
X85967508Y-52850500D01*
X86106104Y-52850500D01*
X86106113Y-52850500D01*
X86243910Y-52835514D01*
X86419221Y-52776444D01*
X86577736Y-52681070D01*
X86712041Y-52553849D01*
X86815858Y-52400730D01*
X86884331Y-52228875D01*
X86914260Y-52046317D01*
X86904972Y-51874999D01*
X87356160Y-51874999D01*
X87356161Y-51875000D01*
X88115595Y-51875000D01*
X88100000Y-51928111D01*
X88100000Y-52071889D01*
X88115595Y-52125000D01*
X87356161Y-52125000D01*
X87364287Y-52217885D01*
X87364288Y-52217893D01*
X87420895Y-52429153D01*
X87513334Y-52627388D01*
X87638785Y-52806551D01*
X87793448Y-52961214D01*
X87972611Y-53086665D01*
X88170846Y-53179104D01*
X88382106Y-53235711D01*
X88382113Y-53235712D01*
X88475000Y-53243838D01*
X88475000Y-52487169D01*
X88564237Y-52500000D01*
X88635763Y-52500000D01*
X88725000Y-52487169D01*
X88725000Y-53243837D01*
X88817886Y-53235712D01*
X88817893Y-53235711D01*
X89029153Y-53179104D01*
X89227388Y-53086665D01*
X89406551Y-52961214D01*
X89561214Y-52806551D01*
X89686665Y-52627388D01*
X89779104Y-52429153D01*
X89835711Y-52217893D01*
X89835712Y-52217885D01*
X89843839Y-52125000D01*
X89084405Y-52125000D01*
X89100000Y-52071889D01*
X89100000Y-51953687D01*
X90285739Y-51953687D01*
X90295754Y-52138398D01*
X90295754Y-52138402D01*
X90295755Y-52138407D01*
X90345246Y-52316659D01*
X90431900Y-52480104D01*
X90551663Y-52621100D01*
X90698936Y-52733054D01*
X90698938Y-52733055D01*
X90792725Y-52776446D01*
X90866833Y-52810732D01*
X91047503Y-52850500D01*
X91047508Y-52850500D01*
X91186104Y-52850500D01*
X91186113Y-52850500D01*
X91323910Y-52835514D01*
X91499221Y-52776444D01*
X91657736Y-52681070D01*
X91792041Y-52553849D01*
X91895858Y-52400730D01*
X91964331Y-52228875D01*
X91994260Y-52046317D01*
X91989238Y-51953687D01*
X92825739Y-51953687D01*
X92835754Y-52138398D01*
X92835754Y-52138402D01*
X92835755Y-52138407D01*
X92885246Y-52316659D01*
X92971900Y-52480104D01*
X93091663Y-52621100D01*
X93238936Y-52733053D01*
X93238936Y-52733054D01*
X93238938Y-52733055D01*
X93332725Y-52776446D01*
X93406833Y-52810732D01*
X93587503Y-52850500D01*
X93587508Y-52850500D01*
X93726104Y-52850500D01*
X93726113Y-52850500D01*
X93863910Y-52835514D01*
X94039221Y-52776444D01*
X94197736Y-52681070D01*
X94332041Y-52553849D01*
X94435858Y-52400730D01*
X94504331Y-52228875D01*
X94534260Y-52046317D01*
X94529238Y-51953687D01*
X95365739Y-51953687D01*
X95375754Y-52138398D01*
X95375754Y-52138402D01*
X95375755Y-52138407D01*
X95425246Y-52316659D01*
X95511900Y-52480104D01*
X95631663Y-52621100D01*
X95778936Y-52733053D01*
X95778936Y-52733054D01*
X95778938Y-52733055D01*
X95872725Y-52776446D01*
X95946833Y-52810732D01*
X96127503Y-52850500D01*
X96127508Y-52850500D01*
X96266104Y-52850500D01*
X96266113Y-52850500D01*
X96403910Y-52835514D01*
X96579221Y-52776444D01*
X96737736Y-52681070D01*
X96872041Y-52553849D01*
X96975858Y-52400730D01*
X97044331Y-52228875D01*
X97074260Y-52046317D01*
X97069238Y-51953687D01*
X97905739Y-51953687D01*
X97915754Y-52138398D01*
X97915754Y-52138402D01*
X97915755Y-52138407D01*
X97965246Y-52316659D01*
X98051900Y-52480104D01*
X98171663Y-52621100D01*
X98318936Y-52733053D01*
X98318936Y-52733054D01*
X98318938Y-52733055D01*
X98412725Y-52776446D01*
X98486833Y-52810732D01*
X98667503Y-52850500D01*
X98667508Y-52850500D01*
X98806104Y-52850500D01*
X98806113Y-52850500D01*
X98943910Y-52835514D01*
X99119221Y-52776444D01*
X99277736Y-52681070D01*
X99412041Y-52553849D01*
X99515858Y-52400730D01*
X99584331Y-52228875D01*
X99614260Y-52046317D01*
X99609238Y-51953687D01*
X100445739Y-51953687D01*
X100455754Y-52138398D01*
X100455754Y-52138402D01*
X100455755Y-52138407D01*
X100505246Y-52316659D01*
X100591900Y-52480104D01*
X100711663Y-52621100D01*
X100858936Y-52733053D01*
X100858936Y-52733054D01*
X100858938Y-52733055D01*
X100952725Y-52776446D01*
X101026833Y-52810732D01*
X101207503Y-52850500D01*
X101207508Y-52850500D01*
X101346104Y-52850500D01*
X101346113Y-52850500D01*
X101483910Y-52835514D01*
X101659221Y-52776444D01*
X101817736Y-52681070D01*
X101952041Y-52553849D01*
X102055858Y-52400730D01*
X102124331Y-52228875D01*
X102154260Y-52046317D01*
X102149238Y-51953687D01*
X102985739Y-51953687D01*
X102995754Y-52138398D01*
X102995754Y-52138402D01*
X102995755Y-52138407D01*
X103045246Y-52316659D01*
X103131900Y-52480104D01*
X103251663Y-52621100D01*
X103398936Y-52733053D01*
X103398936Y-52733054D01*
X103398938Y-52733055D01*
X103492725Y-52776446D01*
X103566833Y-52810732D01*
X103747503Y-52850500D01*
X103747508Y-52850500D01*
X103886104Y-52850500D01*
X103886113Y-52850500D01*
X104023910Y-52835514D01*
X104199221Y-52776444D01*
X104357736Y-52681070D01*
X104492041Y-52553849D01*
X104595858Y-52400730D01*
X104664331Y-52228875D01*
X104694260Y-52046317D01*
X104689238Y-51953687D01*
X105525739Y-51953687D01*
X105535754Y-52138398D01*
X105535754Y-52138402D01*
X105535755Y-52138407D01*
X105585246Y-52316659D01*
X105671900Y-52480104D01*
X105791663Y-52621100D01*
X105938936Y-52733053D01*
X105938936Y-52733054D01*
X105938938Y-52733055D01*
X106032725Y-52776446D01*
X106106833Y-52810732D01*
X106287503Y-52850500D01*
X106287508Y-52850500D01*
X106426104Y-52850500D01*
X106426113Y-52850500D01*
X106563910Y-52835514D01*
X106739221Y-52776444D01*
X106897736Y-52681070D01*
X107032041Y-52553849D01*
X107135858Y-52400730D01*
X107204331Y-52228875D01*
X107234260Y-52046317D01*
X107229238Y-51953687D01*
X108065739Y-51953687D01*
X108075754Y-52138398D01*
X108075754Y-52138402D01*
X108075755Y-52138407D01*
X108125246Y-52316659D01*
X108211900Y-52480104D01*
X108331663Y-52621100D01*
X108478936Y-52733053D01*
X108478936Y-52733054D01*
X108478938Y-52733055D01*
X108572725Y-52776446D01*
X108646833Y-52810732D01*
X108827503Y-52850500D01*
X108827508Y-52850500D01*
X108966104Y-52850500D01*
X108966113Y-52850500D01*
X109103910Y-52835514D01*
X109279221Y-52776444D01*
X109437736Y-52681070D01*
X109572041Y-52553849D01*
X109675858Y-52400730D01*
X109744331Y-52228875D01*
X109774260Y-52046317D01*
X109769238Y-51953687D01*
X110605739Y-51953687D01*
X110615754Y-52138398D01*
X110615754Y-52138402D01*
X110615755Y-52138407D01*
X110665246Y-52316659D01*
X110751900Y-52480104D01*
X110871663Y-52621100D01*
X111018936Y-52733053D01*
X111018936Y-52733054D01*
X111018938Y-52733055D01*
X111112725Y-52776446D01*
X111186833Y-52810732D01*
X111367503Y-52850500D01*
X111367508Y-52850500D01*
X111506104Y-52850500D01*
X111506113Y-52850500D01*
X111643910Y-52835514D01*
X111819221Y-52776444D01*
X111977736Y-52681070D01*
X112112041Y-52553849D01*
X112215858Y-52400730D01*
X112284331Y-52228875D01*
X112314260Y-52046317D01*
X112309238Y-51953687D01*
X113145739Y-51953687D01*
X113155754Y-52138398D01*
X113155754Y-52138402D01*
X113155755Y-52138407D01*
X113205246Y-52316659D01*
X113291900Y-52480104D01*
X113411663Y-52621100D01*
X113558935Y-52733053D01*
X113558936Y-52733054D01*
X113558938Y-52733055D01*
X113652725Y-52776446D01*
X113726833Y-52810732D01*
X113907503Y-52850500D01*
X113907508Y-52850500D01*
X114046104Y-52850500D01*
X114046113Y-52850500D01*
X114183910Y-52835514D01*
X114359221Y-52776444D01*
X114517736Y-52681070D01*
X114652041Y-52553849D01*
X114755858Y-52400730D01*
X114824331Y-52228875D01*
X114854260Y-52046317D01*
X114849238Y-51953687D01*
X115685739Y-51953687D01*
X115695754Y-52138398D01*
X115695754Y-52138402D01*
X115695755Y-52138407D01*
X115745246Y-52316659D01*
X115831900Y-52480104D01*
X115951663Y-52621100D01*
X116098936Y-52733054D01*
X116098938Y-52733055D01*
X116192725Y-52776446D01*
X116266833Y-52810732D01*
X116447503Y-52850500D01*
X116447508Y-52850500D01*
X116586104Y-52850500D01*
X116586113Y-52850500D01*
X116723910Y-52835514D01*
X116899221Y-52776444D01*
X117057736Y-52681070D01*
X117192041Y-52553849D01*
X117295858Y-52400730D01*
X117364331Y-52228875D01*
X117394260Y-52046317D01*
X117389238Y-51953687D01*
X118225739Y-51953687D01*
X118235754Y-52138398D01*
X118235754Y-52138402D01*
X118235755Y-52138407D01*
X118285246Y-52316659D01*
X118371900Y-52480104D01*
X118491663Y-52621100D01*
X118638936Y-52733054D01*
X118638938Y-52733055D01*
X118732725Y-52776446D01*
X118806833Y-52810732D01*
X118987503Y-52850500D01*
X118987508Y-52850500D01*
X119126104Y-52850500D01*
X119126113Y-52850500D01*
X119263910Y-52835514D01*
X119439221Y-52776444D01*
X119597736Y-52681070D01*
X119732041Y-52553849D01*
X119835858Y-52400730D01*
X119904331Y-52228875D01*
X119934260Y-52046317D01*
X119929238Y-51953687D01*
X120765739Y-51953687D01*
X120775754Y-52138398D01*
X120775754Y-52138402D01*
X120775755Y-52138407D01*
X120825246Y-52316659D01*
X120911900Y-52480104D01*
X121031663Y-52621100D01*
X121178936Y-52733054D01*
X121178938Y-52733055D01*
X121272725Y-52776446D01*
X121346833Y-52810732D01*
X121527503Y-52850500D01*
X121527508Y-52850500D01*
X121666104Y-52850500D01*
X121666113Y-52850500D01*
X121803910Y-52835514D01*
X121979221Y-52776444D01*
X122137736Y-52681070D01*
X122272041Y-52553849D01*
X122375858Y-52400730D01*
X122444331Y-52228875D01*
X122474260Y-52046317D01*
X122464245Y-51861593D01*
X122414754Y-51683341D01*
X122328100Y-51519896D01*
X122208337Y-51378900D01*
X122061064Y-51266946D01*
X122061063Y-51266945D01*
X122061061Y-51266944D01*
X121893177Y-51189272D01*
X121893172Y-51189270D01*
X121893167Y-51189268D01*
X121712497Y-51149500D01*
X121573887Y-51149500D01*
X121573881Y-51149500D01*
X121573873Y-51149501D01*
X121459826Y-51161904D01*
X121436090Y-51164486D01*
X121436087Y-51164486D01*
X121436087Y-51164487D01*
X121260786Y-51223553D01*
X121260779Y-51223556D01*
X121102263Y-51318930D01*
X120967959Y-51446151D01*
X120967958Y-51446152D01*
X120864142Y-51599268D01*
X120795669Y-51771124D01*
X120795668Y-51771125D01*
X120765740Y-51953683D01*
X120765739Y-51953687D01*
X119929238Y-51953687D01*
X119924245Y-51861593D01*
X119874754Y-51683341D01*
X119788100Y-51519896D01*
X119668337Y-51378900D01*
X119521064Y-51266946D01*
X119521063Y-51266945D01*
X119521061Y-51266944D01*
X119353177Y-51189272D01*
X119353172Y-51189270D01*
X119353167Y-51189268D01*
X119172497Y-51149500D01*
X119033887Y-51149500D01*
X119033881Y-51149500D01*
X119033873Y-51149501D01*
X118919826Y-51161904D01*
X118896090Y-51164486D01*
X118896087Y-51164486D01*
X118896087Y-51164487D01*
X118720786Y-51223553D01*
X118720779Y-51223556D01*
X118562263Y-51318930D01*
X118427959Y-51446151D01*
X118427958Y-51446152D01*
X118324142Y-51599268D01*
X118255669Y-51771124D01*
X118255668Y-51771125D01*
X118225740Y-51953683D01*
X118225739Y-51953687D01*
X117389238Y-51953687D01*
X117384245Y-51861593D01*
X117334754Y-51683341D01*
X117248100Y-51519896D01*
X117128337Y-51378900D01*
X116981064Y-51266946D01*
X116981063Y-51266945D01*
X116981061Y-51266944D01*
X116813177Y-51189272D01*
X116813172Y-51189270D01*
X116813167Y-51189268D01*
X116632497Y-51149500D01*
X116493887Y-51149500D01*
X116493881Y-51149500D01*
X116493873Y-51149501D01*
X116379826Y-51161904D01*
X116356090Y-51164486D01*
X116356087Y-51164486D01*
X116356087Y-51164487D01*
X116180786Y-51223553D01*
X116180779Y-51223556D01*
X116022263Y-51318930D01*
X115887959Y-51446151D01*
X115887958Y-51446152D01*
X115784142Y-51599268D01*
X115715669Y-51771124D01*
X115715668Y-51771125D01*
X115685740Y-51953683D01*
X115685739Y-51953687D01*
X114849238Y-51953687D01*
X114844245Y-51861593D01*
X114794754Y-51683341D01*
X114708100Y-51519896D01*
X114588337Y-51378900D01*
X114441064Y-51266946D01*
X114441063Y-51266945D01*
X114441061Y-51266944D01*
X114273177Y-51189272D01*
X114273172Y-51189270D01*
X114273167Y-51189268D01*
X114092497Y-51149500D01*
X113953887Y-51149500D01*
X113953881Y-51149500D01*
X113953873Y-51149501D01*
X113839826Y-51161904D01*
X113816090Y-51164486D01*
X113816087Y-51164486D01*
X113816087Y-51164487D01*
X113640786Y-51223553D01*
X113640779Y-51223556D01*
X113482263Y-51318930D01*
X113347959Y-51446151D01*
X113347958Y-51446152D01*
X113244142Y-51599268D01*
X113175669Y-51771124D01*
X113175668Y-51771125D01*
X113145740Y-51953683D01*
X113145739Y-51953687D01*
X112309238Y-51953687D01*
X112304245Y-51861593D01*
X112254754Y-51683341D01*
X112168100Y-51519896D01*
X112048337Y-51378900D01*
X111901064Y-51266946D01*
X111901063Y-51266945D01*
X111901061Y-51266944D01*
X111733177Y-51189272D01*
X111733172Y-51189270D01*
X111733167Y-51189268D01*
X111552497Y-51149500D01*
X111413887Y-51149500D01*
X111413881Y-51149500D01*
X111413873Y-51149501D01*
X111299826Y-51161904D01*
X111276090Y-51164486D01*
X111276087Y-51164486D01*
X111276087Y-51164487D01*
X111100786Y-51223553D01*
X111100779Y-51223556D01*
X110942263Y-51318930D01*
X110807959Y-51446151D01*
X110807958Y-51446152D01*
X110704142Y-51599268D01*
X110635669Y-51771124D01*
X110635668Y-51771125D01*
X110605740Y-51953683D01*
X110605739Y-51953687D01*
X109769238Y-51953687D01*
X109764245Y-51861593D01*
X109714754Y-51683341D01*
X109628100Y-51519896D01*
X109508337Y-51378900D01*
X109361064Y-51266946D01*
X109361063Y-51266945D01*
X109361061Y-51266944D01*
X109193177Y-51189272D01*
X109193172Y-51189270D01*
X109193167Y-51189268D01*
X109012497Y-51149500D01*
X108873887Y-51149500D01*
X108873881Y-51149500D01*
X108873873Y-51149501D01*
X108759826Y-51161904D01*
X108736090Y-51164486D01*
X108736087Y-51164486D01*
X108736087Y-51164487D01*
X108560786Y-51223553D01*
X108560779Y-51223556D01*
X108402263Y-51318930D01*
X108267959Y-51446151D01*
X108267958Y-51446152D01*
X108164142Y-51599268D01*
X108095669Y-51771124D01*
X108095668Y-51771125D01*
X108065740Y-51953683D01*
X108065739Y-51953687D01*
X107229238Y-51953687D01*
X107224245Y-51861593D01*
X107174754Y-51683341D01*
X107088100Y-51519896D01*
X106968337Y-51378900D01*
X106821064Y-51266946D01*
X106821063Y-51266945D01*
X106821061Y-51266944D01*
X106653177Y-51189272D01*
X106653172Y-51189270D01*
X106653167Y-51189268D01*
X106472497Y-51149500D01*
X106333887Y-51149500D01*
X106333881Y-51149500D01*
X106333873Y-51149501D01*
X106219826Y-51161904D01*
X106196090Y-51164486D01*
X106196087Y-51164486D01*
X106196087Y-51164487D01*
X106020786Y-51223553D01*
X106020779Y-51223556D01*
X105862263Y-51318930D01*
X105727959Y-51446151D01*
X105727958Y-51446152D01*
X105624142Y-51599268D01*
X105555669Y-51771124D01*
X105555668Y-51771125D01*
X105525740Y-51953683D01*
X105525739Y-51953687D01*
X104689238Y-51953687D01*
X104684245Y-51861593D01*
X104634754Y-51683341D01*
X104548100Y-51519896D01*
X104428337Y-51378900D01*
X104281064Y-51266946D01*
X104281063Y-51266945D01*
X104281061Y-51266944D01*
X104113177Y-51189272D01*
X104113172Y-51189270D01*
X104113167Y-51189268D01*
X103932497Y-51149500D01*
X103793887Y-51149500D01*
X103793881Y-51149500D01*
X103793873Y-51149501D01*
X103679826Y-51161904D01*
X103656090Y-51164486D01*
X103656087Y-51164486D01*
X103656087Y-51164487D01*
X103480786Y-51223553D01*
X103480779Y-51223556D01*
X103322263Y-51318930D01*
X103187959Y-51446151D01*
X103187958Y-51446152D01*
X103084142Y-51599268D01*
X103015669Y-51771124D01*
X103015668Y-51771125D01*
X102985740Y-51953683D01*
X102985739Y-51953687D01*
X102149238Y-51953687D01*
X102144245Y-51861593D01*
X102094754Y-51683341D01*
X102008100Y-51519896D01*
X101888337Y-51378900D01*
X101741064Y-51266946D01*
X101741063Y-51266945D01*
X101741061Y-51266944D01*
X101573177Y-51189272D01*
X101573172Y-51189270D01*
X101573167Y-51189268D01*
X101392497Y-51149500D01*
X101253887Y-51149500D01*
X101253881Y-51149500D01*
X101253873Y-51149501D01*
X101139826Y-51161904D01*
X101116090Y-51164486D01*
X101116087Y-51164486D01*
X101116087Y-51164487D01*
X100940786Y-51223553D01*
X100940779Y-51223556D01*
X100782263Y-51318930D01*
X100647959Y-51446151D01*
X100647958Y-51446152D01*
X100544142Y-51599268D01*
X100475669Y-51771124D01*
X100475668Y-51771125D01*
X100445740Y-51953683D01*
X100445739Y-51953687D01*
X99609238Y-51953687D01*
X99604245Y-51861593D01*
X99554754Y-51683341D01*
X99468100Y-51519896D01*
X99348337Y-51378900D01*
X99201064Y-51266946D01*
X99201063Y-51266945D01*
X99201061Y-51266944D01*
X99033177Y-51189272D01*
X99033172Y-51189270D01*
X99033167Y-51189268D01*
X98852497Y-51149500D01*
X98713887Y-51149500D01*
X98713881Y-51149500D01*
X98713873Y-51149501D01*
X98599826Y-51161904D01*
X98576090Y-51164486D01*
X98576087Y-51164486D01*
X98576087Y-51164487D01*
X98400786Y-51223553D01*
X98400779Y-51223556D01*
X98242263Y-51318930D01*
X98107959Y-51446151D01*
X98107958Y-51446152D01*
X98004142Y-51599268D01*
X97935669Y-51771124D01*
X97935668Y-51771125D01*
X97905740Y-51953683D01*
X97905739Y-51953687D01*
X97069238Y-51953687D01*
X97064245Y-51861593D01*
X97014754Y-51683341D01*
X96928100Y-51519896D01*
X96808337Y-51378900D01*
X96661064Y-51266946D01*
X96661063Y-51266945D01*
X96661061Y-51266944D01*
X96493177Y-51189272D01*
X96493172Y-51189270D01*
X96493167Y-51189268D01*
X96312497Y-51149500D01*
X96173887Y-51149500D01*
X96173881Y-51149500D01*
X96173873Y-51149501D01*
X96059826Y-51161904D01*
X96036090Y-51164486D01*
X96036087Y-51164486D01*
X96036087Y-51164487D01*
X95860786Y-51223553D01*
X95860779Y-51223556D01*
X95702263Y-51318930D01*
X95567959Y-51446151D01*
X95567958Y-51446152D01*
X95464142Y-51599268D01*
X95395669Y-51771124D01*
X95395668Y-51771125D01*
X95365740Y-51953683D01*
X95365739Y-51953687D01*
X94529238Y-51953687D01*
X94524245Y-51861593D01*
X94474754Y-51683341D01*
X94388100Y-51519896D01*
X94268337Y-51378900D01*
X94121064Y-51266946D01*
X94121063Y-51266945D01*
X94121061Y-51266944D01*
X93953177Y-51189272D01*
X93953172Y-51189270D01*
X93953167Y-51189268D01*
X93772497Y-51149500D01*
X93633887Y-51149500D01*
X93633881Y-51149500D01*
X93633873Y-51149501D01*
X93519826Y-51161904D01*
X93496090Y-51164486D01*
X93496087Y-51164486D01*
X93496087Y-51164487D01*
X93320786Y-51223553D01*
X93320779Y-51223556D01*
X93162263Y-51318930D01*
X93027959Y-51446151D01*
X93027958Y-51446152D01*
X92924142Y-51599268D01*
X92855669Y-51771124D01*
X92855668Y-51771125D01*
X92825740Y-51953683D01*
X92825739Y-51953687D01*
X91989238Y-51953687D01*
X91984245Y-51861593D01*
X91934754Y-51683341D01*
X91848100Y-51519896D01*
X91728337Y-51378900D01*
X91581064Y-51266946D01*
X91581063Y-51266945D01*
X91581061Y-51266944D01*
X91413177Y-51189272D01*
X91413172Y-51189270D01*
X91413167Y-51189268D01*
X91232497Y-51149500D01*
X91093887Y-51149500D01*
X91093881Y-51149500D01*
X91093873Y-51149501D01*
X90979826Y-51161904D01*
X90956090Y-51164486D01*
X90956087Y-51164486D01*
X90956087Y-51164487D01*
X90780786Y-51223553D01*
X90780779Y-51223556D01*
X90622263Y-51318930D01*
X90487959Y-51446151D01*
X90487958Y-51446152D01*
X90384142Y-51599268D01*
X90315669Y-51771124D01*
X90315668Y-51771125D01*
X90285740Y-51953683D01*
X90285739Y-51953687D01*
X89100000Y-51953687D01*
X89100000Y-51928111D01*
X89084405Y-51875000D01*
X89843839Y-51875000D01*
X89843839Y-51874999D01*
X89835712Y-51782114D01*
X89835711Y-51782106D01*
X89779105Y-51570849D01*
X89779100Y-51570838D01*
X89686665Y-51372612D01*
X89561212Y-51193445D01*
X89406551Y-51038785D01*
X89406552Y-51038785D01*
X89227388Y-50913334D01*
X89029153Y-50820895D01*
X88817893Y-50764288D01*
X88817885Y-50764287D01*
X88725000Y-50756160D01*
X88725000Y-51512830D01*
X88635763Y-51500000D01*
X88564237Y-51500000D01*
X88474999Y-51512830D01*
X88475000Y-50756161D01*
X88474999Y-50756160D01*
X88382114Y-50764287D01*
X88382106Y-50764288D01*
X88170849Y-50820894D01*
X88170838Y-50820899D01*
X87972612Y-50913334D01*
X87793445Y-51038787D01*
X87638787Y-51193445D01*
X87513334Y-51372612D01*
X87420899Y-51570838D01*
X87420894Y-51570849D01*
X87364288Y-51782106D01*
X87364287Y-51782114D01*
X87356160Y-51874999D01*
X86904972Y-51874999D01*
X86904245Y-51861593D01*
X86854754Y-51683341D01*
X86768100Y-51519896D01*
X86648337Y-51378900D01*
X86501064Y-51266946D01*
X86501063Y-51266945D01*
X86501061Y-51266944D01*
X86333177Y-51189272D01*
X86333172Y-51189270D01*
X86333167Y-51189268D01*
X86152497Y-51149500D01*
X86013887Y-51149500D01*
X86013881Y-51149500D01*
X86013873Y-51149501D01*
X85899826Y-51161904D01*
X85876090Y-51164486D01*
X85876087Y-51164486D01*
X85876087Y-51164487D01*
X85700786Y-51223553D01*
X85700779Y-51223556D01*
X85542263Y-51318930D01*
X85407959Y-51446151D01*
X85407958Y-51446152D01*
X85304142Y-51599268D01*
X85235669Y-51771124D01*
X85235668Y-51771125D01*
X85205740Y-51953683D01*
X85205739Y-51953687D01*
X67300500Y-51953687D01*
X67300500Y-51001821D01*
X67300678Y-50998193D01*
X67303242Y-50972156D01*
X67313227Y-50870780D01*
X67316054Y-50856566D01*
X67351632Y-50739278D01*
X67357178Y-50725890D01*
X67414954Y-50617800D01*
X67423006Y-50605749D01*
X67500756Y-50511011D01*
X67511013Y-50500755D01*
X67605749Y-50423006D01*
X67617800Y-50414954D01*
X67725890Y-50357178D01*
X67739278Y-50351632D01*
X67856566Y-50316054D01*
X67870780Y-50313227D01*
X67977605Y-50302705D01*
X67998194Y-50300678D01*
X68001822Y-50300500D01*
X68047595Y-50300500D01*
X128952405Y-50300500D01*
X128998178Y-50300500D01*
X129001806Y-50300678D01*
G37*
%TD.AperFunction*%
%TD*%
M02*
