%TF.GenerationSoftware,KiCad,Pcbnew,7.0.5-0*%
%TF.CreationDate,2024-04-28T23:55:43+02:00*%
%TF.ProjectId,esp32-eter,65737033-322d-4657-9465-722e6b696361,rev?*%
%TF.SameCoordinates,Original*%
%TF.FileFunction,Soldermask,Bot*%
%TF.FilePolarity,Negative*%
%FSLAX46Y46*%
G04 Gerber Fmt 4.6, Leading zero omitted, Abs format (unit mm)*
G04 Created by KiCad (PCBNEW 7.0.5-0) date 2024-04-28 23:55:43*
%MOMM*%
%LPD*%
G01*
G04 APERTURE LIST*
%ADD10R,1.700000X1.700000*%
%ADD11O,1.700000X1.700000*%
%ADD12C,0.650000*%
%ADD13O,2.100000X1.000000*%
%ADD14O,1.800000X1.000000*%
%ADD15C,0.900000*%
%ADD16C,2.200000*%
G04 APERTURE END LIST*
D10*
%TO.C,J2*%
X121620000Y-83000000D03*
D11*
X119080000Y-83000000D03*
X116540000Y-83000000D03*
X114000000Y-83000000D03*
X111460000Y-83000000D03*
X108920000Y-83000000D03*
X106380000Y-83000000D03*
X103840000Y-83000000D03*
X101300000Y-83000000D03*
X98760000Y-83000000D03*
X96220000Y-83000000D03*
X93680000Y-83000000D03*
X91140000Y-83000000D03*
X88600000Y-83000000D03*
X86060000Y-83000000D03*
%TD*%
D10*
%TO.C,J3*%
X86060000Y-52000000D03*
D11*
X88600000Y-52000000D03*
X91140000Y-52000000D03*
X93680000Y-52000000D03*
X96220000Y-52000000D03*
X98760000Y-52000000D03*
X101300000Y-52000000D03*
X103840000Y-52000000D03*
X106380000Y-52000000D03*
X108920000Y-52000000D03*
X111460000Y-52000000D03*
X114000000Y-52000000D03*
X116540000Y-52000000D03*
X119080000Y-52000000D03*
X121620000Y-52000000D03*
%TD*%
D12*
%TO.C,J1*%
X72605000Y-64110000D03*
X72605000Y-69890000D03*
D13*
X73105000Y-62680000D03*
D14*
X68925000Y-62680000D03*
D13*
X73105000Y-71320000D03*
D14*
X68925000Y-71320000D03*
%TD*%
D15*
%TO.C,SW2*%
X75600000Y-82500000D03*
X82400000Y-82500000D03*
%TD*%
D16*
%TO.C,H2*%
X70166726Y-81750000D03*
%TD*%
%TO.C,H1*%
X70333274Y-53333274D03*
%TD*%
M02*
