M48
; DRILL file {KiCad 7.0.5-0} date 2024 April 28, Sunday 23:55:42
; FORMAT={-:-/ absolute / metric / decimal}
; #@! TF.CreationDate,2024-04-28T23:55:42+02:00
; #@! TF.GenerationSoftware,Kicad,Pcbnew,7.0.5-0
; #@! TF.FileFunction,Plated,1,4,PTH
FMAT,2
METRIC
; #@! TA.AperFunction,Plated,PTH,ComponentDrill
T1C0.200
; #@! TA.AperFunction,Plated,PTH,ViaDrill
T2C0.300
; #@! TA.AperFunction,Plated,PTH,ViaDrill
T3C0.400
; #@! TA.AperFunction,Plated,PTH,ComponentDrill
T4C0.600
; #@! TA.AperFunction,Plated,PTH,ComponentDrill
T5C1.000
%
G90
G05
T1
X80.763Y-58.14
X80.763Y-59.24
X113.055Y-65.727
X113.055Y-67.252
X113.817Y-64.965
X113.817Y-66.49
X113.817Y-68.015
X114.58Y-65.727
X114.58Y-67.252
X115.343Y-64.965
X115.343Y-66.49
X115.343Y-68.015
X116.105Y-65.727
X116.105Y-67.252
T2
X68.25Y-76.31
X68.25Y-77.26
X73.97Y-73.92
X74.0Y-59.61
X75.405Y-64.205
X75.44Y-67.08
X75.45Y-73.85
X76.74Y-69.39
X78.35Y-75.3
X79.25Y-76.55
X79.25Y-77.35
X80.4Y-72.81
X81.15Y-77.55
X81.29Y-65.93
X81.3Y-69.81
X82.04Y-65.9
X82.1Y-77.55
X82.15Y-69.8
X82.55Y-60.65
X82.55Y-61.55
X82.9Y-78.15
X82.95Y-79.0
X82.95Y-79.85
X83.0Y-68.8
X83.22Y-56.28
X84.2Y-56.27
X84.73Y-72.56
X85.15Y-70.06
X85.37Y-60.62
X85.53Y-72.56
X85.6Y-64.6
X85.6Y-65.8
X85.6Y-66.95
X86.35Y-60.62
X86.75Y-64.6
X86.75Y-66.9
X86.9Y-74.0
X87.04Y-80.41
X87.1Y-75.43
X87.56Y-69.75
X87.9Y-64.6
X87.9Y-65.85
X87.9Y-66.9
X87.97Y-58.21
X88.05Y-54.3
X88.05Y-80.8
X89.05Y-80.8
X89.2Y-54.25
X89.8Y-74.45
X90.43Y-56.33
X90.85Y-73.06
X91.325Y-77.485
X92.7Y-73.95
X93.34Y-77.6
X93.67Y-61.22
X93.67Y-72.89
X93.85Y-69.0
X93.9Y-65.25
X93.9Y-67.15
X94.2Y-56.35
X94.75Y-66.1
X94.75Y-68.05
X94.9Y-61.16
X95.29Y-73.63
X95.65Y-65.25
X95.65Y-69.0
X96.55Y-68.0
X96.65Y-66.15
X97.35Y-65.25
X97.4Y-67.15
X97.4Y-69.0
X98.23Y-59.47
X99.12Y-60.43
X99.2Y-74.375
X100.04Y-77.6
X102.35Y-69.08
X102.75Y-61.46
X104.72Y-77.63
X106.12Y-70.33
X107.58Y-68.98
X107.6Y-72.37
X108.9Y-68.21
X108.92Y-71.59
X115.6Y-74.4
X116.84Y-71.59
X118.12Y-72.53
X119.08Y-56.38
X119.37Y-73.64
X120.17Y-59.88
X121.01Y-59.87
X121.91Y-77.35
X122.64Y-56.75
T3
X68.0Y-51.0
X68.0Y-73.0
X68.0Y-79.0
X70.0Y-73.0
X71.53Y-57.43
X73.0Y-51.0
X74.0Y-53.0
X74.0Y-83.0
X75.0Y-51.0
X75.37Y-70.51
X76.0Y-53.0
X76.0Y-59.0
X77.0Y-51.0
X77.0Y-73.0
X77.18Y-63.2
X77.52Y-70.54
X79.0Y-51.0
X79.0Y-73.0
X79.83Y-63.21
X80.0Y-53.0
X81.0Y-51.0
X83.0Y-51.0
X83.0Y-75.0
X83.0Y-77.0
X85.0Y-77.0
X89.29Y-72.77
X90.22Y-71.48
X90.25Y-55.0
X90.25Y-69.16
X90.3Y-62.28
X90.3Y-64.35
X90.3Y-66.61
X91.0Y-79.0
X91.0Y-81.0
X92.25Y-55.0
X92.25Y-57.75
X93.0Y-79.0
X94.2Y-57.7
X97.0Y-76.0
X97.2Y-58.4
X99.0Y-76.0
X100.0Y-58.4
X102.3Y-65.5
X102.3Y-67.7
X102.32Y-63.54
X102.6Y-58.4
X106.1Y-68.9
X113.0Y-79.0
X113.0Y-81.0
X115.0Y-79.0
X119.0Y-79.0
X119.0Y-81.0
X119.4Y-72.3
T5
X86.06Y-52.0
X86.06Y-83.0
X88.6Y-52.0
X88.6Y-83.0
X91.14Y-52.0
X91.14Y-83.0
X93.68Y-52.0
X93.68Y-83.0
X96.22Y-52.0
X96.22Y-83.0
X98.76Y-52.0
X98.76Y-83.0
X101.3Y-52.0
X101.3Y-83.0
X103.84Y-52.0
X103.84Y-83.0
X106.38Y-52.0
X106.38Y-83.0
X108.92Y-52.0
X108.92Y-83.0
X111.46Y-52.0
X111.46Y-83.0
X114.0Y-52.0
X114.0Y-83.0
X116.54Y-52.0
X116.54Y-83.0
X119.08Y-52.0
X119.08Y-83.0
X121.62Y-52.0
X121.62Y-83.0
T4
G00X69.325Y-62.68
M15
G01X68.525Y-62.68
M16
G05
G00X69.325Y-71.32
M15
G01X68.525Y-71.32
M16
G05
G00X73.655Y-62.68
M15
G01X72.555Y-62.68
M16
G05
G00X73.655Y-71.32
M15
G01X72.555Y-71.32
M16
G05
T0
M30
