%TF.GenerationSoftware,KiCad,Pcbnew,7.0.5-0*%
%TF.CreationDate,2024-04-28T23:55:43+02:00*%
%TF.ProjectId,esp32-eter,65737033-322d-4657-9465-722e6b696361,rev?*%
%TF.SameCoordinates,Original*%
%TF.FileFunction,Copper,L3,Inr*%
%TF.FilePolarity,Positive*%
%FSLAX46Y46*%
G04 Gerber Fmt 4.6, Leading zero omitted, Abs format (unit mm)*
G04 Created by KiCad (PCBNEW 7.0.5-0) date 2024-04-28 23:55:43*
%MOMM*%
%LPD*%
G01*
G04 APERTURE LIST*
%TA.AperFunction,ComponentPad*%
%ADD10O,1.700000X1.700000*%
%TD*%
%TA.AperFunction,HeatsinkPad*%
%ADD11C,0.600000*%
%TD*%
%TA.AperFunction,ComponentPad*%
%ADD12C,0.500000*%
%TD*%
%TA.AperFunction,ViaPad*%
%ADD13C,0.700000*%
%TD*%
%TA.AperFunction,ViaPad*%
%ADD14C,0.900000*%
%TD*%
%TA.AperFunction,ViaPad*%
%ADD15C,0.800000*%
%TD*%
G04 APERTURE END LIST*
D10*
%TO.N,GND*%
%TO.C,J2*%
X88600000Y-83000000D03*
%TD*%
%TO.N,GND*%
%TO.C,J3*%
X88600000Y-52000000D03*
%TD*%
D11*
%TO.N,GND*%
%TO.C,U1*%
X115342500Y-64965000D03*
X113817500Y-64965000D03*
X116105000Y-65727500D03*
X114580000Y-65727500D03*
X113055000Y-65727500D03*
X115342500Y-66490000D03*
X113817500Y-66490000D03*
X116105000Y-67252500D03*
X114580000Y-67252500D03*
X113055000Y-67252500D03*
X115342500Y-68015000D03*
X113817500Y-68015000D03*
%TD*%
D12*
%TO.N,GND*%
%TO.C,U4*%
X80762500Y-59240000D03*
X80762500Y-58140000D03*
%TD*%
D13*
%TO.N,GND*%
X93850000Y-69000000D03*
X102750000Y-61460000D03*
D14*
X94200000Y-57700000D03*
D13*
X94750000Y-68050000D03*
X82550000Y-61550000D03*
X87560000Y-69750000D03*
X82950000Y-79000000D03*
X85150000Y-70060000D03*
D14*
X77000000Y-51000000D03*
X79000000Y-51000000D03*
X102300000Y-67700000D03*
D13*
X82150000Y-69800000D03*
X75440000Y-67080000D03*
D14*
X77000000Y-73000000D03*
D13*
X91325000Y-77485000D03*
D14*
X75000000Y-51000000D03*
D13*
X82950000Y-79850000D03*
D14*
X79000000Y-73000000D03*
D13*
X73970000Y-73920000D03*
D14*
X100000000Y-58400000D03*
D13*
X92700000Y-73950000D03*
D15*
X90300000Y-66610000D03*
D13*
X93900000Y-67150000D03*
X87970000Y-58210000D03*
X84730000Y-72560000D03*
D14*
X92250000Y-55000000D03*
D13*
X87900000Y-66900000D03*
D14*
X99000000Y-76000000D03*
X75370000Y-70510000D03*
X113000000Y-81000000D03*
X119000000Y-79000000D03*
X76000000Y-59000000D03*
D13*
X88050000Y-80800000D03*
D14*
X80000000Y-53000000D03*
D13*
X84200000Y-56270000D03*
D14*
X83000000Y-75000000D03*
D13*
X94750000Y-66100000D03*
D14*
X74000000Y-53000000D03*
X77520000Y-70540000D03*
D13*
X93670000Y-61220000D03*
X87900000Y-65850000D03*
D15*
X79830000Y-63210000D03*
D13*
X82550000Y-60650000D03*
X74000000Y-59610000D03*
D14*
X97000000Y-76000000D03*
X92250000Y-57750000D03*
D13*
X96650000Y-66150000D03*
X86750000Y-64600000D03*
D14*
X83000000Y-77000000D03*
D15*
X89290000Y-72770000D03*
D14*
X74000000Y-83000000D03*
X85000000Y-77000000D03*
D13*
X85600000Y-66950000D03*
D15*
X90220000Y-71480000D03*
D14*
X97200000Y-58400000D03*
D13*
X95650000Y-65250000D03*
D14*
X102600000Y-58400000D03*
D13*
X83220000Y-56280000D03*
X89200000Y-54250000D03*
X97400000Y-69000000D03*
X95650000Y-69000000D03*
X83000000Y-68800000D03*
X81150000Y-77550000D03*
D14*
X119000000Y-81000000D03*
X115000000Y-79000000D03*
D13*
X79250000Y-77350000D03*
D14*
X70000000Y-73000000D03*
D13*
X85600000Y-65800000D03*
D14*
X68000000Y-73000000D03*
D13*
X97400000Y-67150000D03*
X82900000Y-78150000D03*
D14*
X68000000Y-79000000D03*
D15*
X90300000Y-62280000D03*
D14*
X71530000Y-57430000D03*
X81000000Y-51000000D03*
D13*
X86750000Y-66900000D03*
X82100000Y-77550000D03*
D14*
X93000000Y-79000000D03*
X68000000Y-51000000D03*
D13*
X85530000Y-72560000D03*
D14*
X102300000Y-65500000D03*
D13*
X87900000Y-64600000D03*
X86900000Y-74000000D03*
X89050000Y-80800000D03*
X96550000Y-68000000D03*
D14*
X102320000Y-63540000D03*
X106100000Y-68900000D03*
X113000000Y-79000000D03*
D13*
X89800000Y-74450000D03*
X88050000Y-54300000D03*
D14*
X90250000Y-55000000D03*
X91000000Y-79000000D03*
D15*
X90300000Y-64350000D03*
D13*
X85600000Y-64600000D03*
D14*
X76000000Y-53000000D03*
D15*
X90250000Y-69160000D03*
D13*
X68250000Y-77260000D03*
X93670000Y-72890000D03*
D14*
X73000000Y-51000000D03*
X119400000Y-72300000D03*
D13*
X79250000Y-76550000D03*
D15*
X77180000Y-63200000D03*
D14*
X83000000Y-51000000D03*
D13*
X97350000Y-65250000D03*
D14*
X91000000Y-81000000D03*
D13*
X68250000Y-76310000D03*
X81300000Y-69810000D03*
X93900000Y-65250000D03*
%TD*%
%TA.AperFunction,Conductor*%
%TO.N,GND*%
G36*
X120051266Y-50317813D02*
G01*
X120076576Y-50361650D01*
X120077659Y-50372053D01*
X120162174Y-52933446D01*
X120374527Y-59369254D01*
X120358792Y-59417365D01*
X120315813Y-59444106D01*
X120279720Y-59442697D01*
X120234773Y-59429500D01*
X120234772Y-59429500D01*
X120105228Y-59429500D01*
X119980931Y-59465995D01*
X119871954Y-59536031D01*
X119871950Y-59536034D01*
X119787119Y-59633935D01*
X119733302Y-59751776D01*
X119714867Y-59880000D01*
X119733302Y-60008223D01*
X119733302Y-60008224D01*
X119733303Y-60008226D01*
X119787118Y-60126063D01*
X119871951Y-60223967D01*
X119980931Y-60294004D01*
X120105228Y-60330500D01*
X120234774Y-60330500D01*
X120282959Y-60316351D01*
X120312941Y-60307548D01*
X120363458Y-60310758D01*
X120400092Y-60345689D01*
X120407749Y-60376110D01*
X121131897Y-82322892D01*
X121116162Y-82371003D01*
X121110263Y-82377657D01*
X120990185Y-82497736D01*
X120894209Y-82650479D01*
X120834634Y-82820736D01*
X120834632Y-82820745D01*
X120814435Y-83000000D01*
X120834632Y-83179254D01*
X120834634Y-83179263D01*
X120894209Y-83349520D01*
X120965547Y-83463054D01*
X120990184Y-83502262D01*
X121117738Y-83629816D01*
X121117740Y-83629817D01*
X121117741Y-83629818D01*
X121142939Y-83645651D01*
X121174004Y-83685617D01*
X121177529Y-83705869D01*
X121199801Y-84380832D01*
X121206539Y-84585048D01*
X121207794Y-84623060D01*
X121192059Y-84671171D01*
X121149080Y-84697912D01*
X121133834Y-84699500D01*
X68001822Y-84699500D01*
X67998193Y-84699322D01*
X67870786Y-84686773D01*
X67856559Y-84683943D01*
X67739286Y-84648369D01*
X67725883Y-84642817D01*
X67617806Y-84585048D01*
X67605745Y-84576989D01*
X67511013Y-84499244D01*
X67500755Y-84488986D01*
X67423010Y-84394254D01*
X67414951Y-84382193D01*
X67357182Y-84274116D01*
X67351630Y-84260713D01*
X67316055Y-84143435D01*
X67313227Y-84129217D01*
X67300678Y-84001806D01*
X67300500Y-83998178D01*
X67300500Y-81692051D01*
X68802536Y-81692051D01*
X68812365Y-81923425D01*
X68812365Y-81923431D01*
X68812366Y-81923433D01*
X68821169Y-81964277D01*
X68861157Y-82149824D01*
X68861158Y-82149827D01*
X68899885Y-82246203D01*
X68947508Y-82364717D01*
X69009805Y-82465893D01*
X69068931Y-82561921D01*
X69090360Y-82586269D01*
X69221940Y-82735773D01*
X69402126Y-82881263D01*
X69402130Y-82881265D01*
X69402131Y-82881266D01*
X69514120Y-82943827D01*
X69604308Y-82994209D01*
X69822670Y-83071361D01*
X70050930Y-83110500D01*
X70050933Y-83110500D01*
X70224517Y-83110500D01*
X70224521Y-83110500D01*
X70397483Y-83095779D01*
X70621601Y-83037423D01*
X70832634Y-82942030D01*
X71024510Y-82812345D01*
X71191708Y-82652098D01*
X71240394Y-82586270D01*
X74889500Y-82586270D01*
X74930792Y-82753797D01*
X75010976Y-82906574D01*
X75125391Y-83035723D01*
X75267389Y-83133737D01*
X75428717Y-83194921D01*
X75428720Y-83194921D01*
X75428722Y-83194922D01*
X75557015Y-83210499D01*
X75557025Y-83210500D01*
X75642975Y-83210500D01*
X75642984Y-83210499D01*
X75771277Y-83194922D01*
X75771277Y-83194921D01*
X75771283Y-83194921D01*
X75932611Y-83133737D01*
X76074609Y-83035723D01*
X76189024Y-82906574D01*
X76269208Y-82753797D01*
X76310500Y-82586270D01*
X81689500Y-82586270D01*
X81730792Y-82753797D01*
X81810976Y-82906574D01*
X81925391Y-83035723D01*
X82067389Y-83133737D01*
X82228717Y-83194921D01*
X82228720Y-83194921D01*
X82228722Y-83194922D01*
X82357015Y-83210499D01*
X82357025Y-83210500D01*
X82442975Y-83210500D01*
X82442984Y-83210499D01*
X82571277Y-83194922D01*
X82571277Y-83194921D01*
X82571283Y-83194921D01*
X82732611Y-83133737D01*
X82874609Y-83035723D01*
X82906257Y-83000000D01*
X85254435Y-83000000D01*
X85274632Y-83179254D01*
X85274634Y-83179263D01*
X85334209Y-83349520D01*
X85405547Y-83463054D01*
X85430184Y-83502262D01*
X85557738Y-83629816D01*
X85646545Y-83685617D01*
X85710479Y-83725790D01*
X85880736Y-83785365D01*
X85880745Y-83785368D01*
X86015046Y-83800500D01*
X86015050Y-83800500D01*
X86104950Y-83800500D01*
X86104954Y-83800500D01*
X86239255Y-83785368D01*
X86307481Y-83761494D01*
X86409520Y-83725790D01*
X86441224Y-83705869D01*
X86562262Y-83629816D01*
X86689816Y-83502262D01*
X86785789Y-83349522D01*
X86845368Y-83179255D01*
X86865565Y-83000000D01*
X86851481Y-82874999D01*
X87356160Y-82874999D01*
X87356161Y-82875000D01*
X88115595Y-82875000D01*
X88100000Y-82928111D01*
X88100000Y-83071889D01*
X88115595Y-83125000D01*
X87356161Y-83125000D01*
X87364287Y-83217885D01*
X87364288Y-83217893D01*
X87420895Y-83429153D01*
X87513334Y-83627388D01*
X87638785Y-83806551D01*
X87793448Y-83961214D01*
X87972611Y-84086665D01*
X88170846Y-84179104D01*
X88382106Y-84235711D01*
X88382113Y-84235712D01*
X88475000Y-84243838D01*
X88475000Y-83487169D01*
X88564237Y-83500000D01*
X88635763Y-83500000D01*
X88725000Y-83487169D01*
X88725000Y-84243837D01*
X88817886Y-84235712D01*
X88817893Y-84235711D01*
X89029153Y-84179104D01*
X89227388Y-84086665D01*
X89406551Y-83961214D01*
X89561214Y-83806551D01*
X89686665Y-83627388D01*
X89779104Y-83429153D01*
X89835711Y-83217893D01*
X89835712Y-83217885D01*
X89843839Y-83125000D01*
X89084405Y-83125000D01*
X89100000Y-83071889D01*
X89100000Y-83000000D01*
X90334435Y-83000000D01*
X90354632Y-83179254D01*
X90354634Y-83179263D01*
X90414209Y-83349520D01*
X90485547Y-83463054D01*
X90510184Y-83502262D01*
X90637738Y-83629816D01*
X90726545Y-83685617D01*
X90790479Y-83725790D01*
X90960736Y-83785365D01*
X90960745Y-83785368D01*
X91095046Y-83800500D01*
X91095050Y-83800500D01*
X91184950Y-83800500D01*
X91184954Y-83800500D01*
X91319255Y-83785368D01*
X91387481Y-83761494D01*
X91489520Y-83725790D01*
X91521224Y-83705869D01*
X91642262Y-83629816D01*
X91769816Y-83502262D01*
X91865789Y-83349522D01*
X91925368Y-83179255D01*
X91945565Y-83000000D01*
X92874435Y-83000000D01*
X92894632Y-83179254D01*
X92894634Y-83179263D01*
X92954209Y-83349520D01*
X93025547Y-83463054D01*
X93050184Y-83502262D01*
X93177738Y-83629816D01*
X93266545Y-83685617D01*
X93330479Y-83725790D01*
X93500736Y-83785365D01*
X93500745Y-83785368D01*
X93635046Y-83800500D01*
X93635050Y-83800500D01*
X93724950Y-83800500D01*
X93724954Y-83800500D01*
X93859255Y-83785368D01*
X93927481Y-83761494D01*
X94029520Y-83725790D01*
X94061224Y-83705869D01*
X94182262Y-83629816D01*
X94309816Y-83502262D01*
X94405789Y-83349522D01*
X94465368Y-83179255D01*
X94485565Y-83000000D01*
X95414435Y-83000000D01*
X95434632Y-83179254D01*
X95434634Y-83179263D01*
X95494209Y-83349520D01*
X95565547Y-83463054D01*
X95590184Y-83502262D01*
X95717738Y-83629816D01*
X95806545Y-83685617D01*
X95870479Y-83725790D01*
X96040736Y-83785365D01*
X96040745Y-83785368D01*
X96175046Y-83800500D01*
X96175050Y-83800500D01*
X96264950Y-83800500D01*
X96264954Y-83800500D01*
X96399255Y-83785368D01*
X96467481Y-83761494D01*
X96569520Y-83725790D01*
X96601224Y-83705869D01*
X96722262Y-83629816D01*
X96849816Y-83502262D01*
X96945789Y-83349522D01*
X97005368Y-83179255D01*
X97025565Y-83000000D01*
X97954435Y-83000000D01*
X97974632Y-83179254D01*
X97974634Y-83179263D01*
X98034209Y-83349520D01*
X98105547Y-83463054D01*
X98130184Y-83502262D01*
X98257738Y-83629816D01*
X98346545Y-83685617D01*
X98410479Y-83725790D01*
X98580736Y-83785365D01*
X98580745Y-83785368D01*
X98715046Y-83800500D01*
X98715050Y-83800500D01*
X98804950Y-83800500D01*
X98804954Y-83800500D01*
X98939255Y-83785368D01*
X99007481Y-83761494D01*
X99109520Y-83725790D01*
X99141224Y-83705869D01*
X99262262Y-83629816D01*
X99389816Y-83502262D01*
X99485789Y-83349522D01*
X99545368Y-83179255D01*
X99565565Y-83000000D01*
X100494435Y-83000000D01*
X100514632Y-83179254D01*
X100514634Y-83179263D01*
X100574209Y-83349520D01*
X100645547Y-83463054D01*
X100670184Y-83502262D01*
X100797738Y-83629816D01*
X100886545Y-83685617D01*
X100950479Y-83725790D01*
X101120736Y-83785365D01*
X101120745Y-83785368D01*
X101255046Y-83800500D01*
X101255050Y-83800500D01*
X101344950Y-83800500D01*
X101344954Y-83800500D01*
X101479255Y-83785368D01*
X101547481Y-83761494D01*
X101649520Y-83725790D01*
X101681224Y-83705869D01*
X101802262Y-83629816D01*
X101929816Y-83502262D01*
X102025789Y-83349522D01*
X102085368Y-83179255D01*
X102105565Y-83000000D01*
X103034435Y-83000000D01*
X103054632Y-83179254D01*
X103054634Y-83179263D01*
X103114209Y-83349520D01*
X103185547Y-83463054D01*
X103210184Y-83502262D01*
X103337738Y-83629816D01*
X103426545Y-83685617D01*
X103490479Y-83725790D01*
X103660736Y-83785365D01*
X103660745Y-83785368D01*
X103795046Y-83800500D01*
X103795050Y-83800500D01*
X103884950Y-83800500D01*
X103884954Y-83800500D01*
X104019255Y-83785368D01*
X104087481Y-83761494D01*
X104189520Y-83725790D01*
X104221224Y-83705869D01*
X104342262Y-83629816D01*
X104469816Y-83502262D01*
X104565789Y-83349522D01*
X104625368Y-83179255D01*
X104645565Y-83000000D01*
X105574435Y-83000000D01*
X105594632Y-83179254D01*
X105594634Y-83179263D01*
X105654209Y-83349520D01*
X105725547Y-83463054D01*
X105750184Y-83502262D01*
X105877738Y-83629816D01*
X105966545Y-83685617D01*
X106030479Y-83725790D01*
X106200736Y-83785365D01*
X106200745Y-83785368D01*
X106335046Y-83800500D01*
X106335050Y-83800500D01*
X106424950Y-83800500D01*
X106424954Y-83800500D01*
X106559255Y-83785368D01*
X106627481Y-83761494D01*
X106729520Y-83725790D01*
X106761224Y-83705869D01*
X106882262Y-83629816D01*
X107009816Y-83502262D01*
X107105789Y-83349522D01*
X107165368Y-83179255D01*
X107185565Y-83000000D01*
X108114435Y-83000000D01*
X108134632Y-83179254D01*
X108134634Y-83179263D01*
X108194209Y-83349520D01*
X108265547Y-83463054D01*
X108290184Y-83502262D01*
X108417738Y-83629816D01*
X108506545Y-83685617D01*
X108570479Y-83725790D01*
X108740736Y-83785365D01*
X108740745Y-83785368D01*
X108875046Y-83800500D01*
X108875050Y-83800500D01*
X108964950Y-83800500D01*
X108964954Y-83800500D01*
X109099255Y-83785368D01*
X109167481Y-83761494D01*
X109269520Y-83725790D01*
X109301224Y-83705869D01*
X109422262Y-83629816D01*
X109549816Y-83502262D01*
X109645789Y-83349522D01*
X109705368Y-83179255D01*
X109725565Y-83000000D01*
X110654435Y-83000000D01*
X110674632Y-83179254D01*
X110674634Y-83179263D01*
X110734209Y-83349520D01*
X110805547Y-83463054D01*
X110830184Y-83502262D01*
X110957738Y-83629816D01*
X111046545Y-83685617D01*
X111110479Y-83725790D01*
X111280736Y-83785365D01*
X111280745Y-83785368D01*
X111415046Y-83800500D01*
X111415050Y-83800500D01*
X111504950Y-83800500D01*
X111504954Y-83800500D01*
X111639255Y-83785368D01*
X111707481Y-83761494D01*
X111809520Y-83725790D01*
X111841224Y-83705869D01*
X111962262Y-83629816D01*
X112089816Y-83502262D01*
X112185789Y-83349522D01*
X112245368Y-83179255D01*
X112265565Y-83000000D01*
X113194435Y-83000000D01*
X113214632Y-83179254D01*
X113214634Y-83179263D01*
X113274209Y-83349520D01*
X113345547Y-83463054D01*
X113370184Y-83502262D01*
X113497738Y-83629816D01*
X113586545Y-83685617D01*
X113650479Y-83725790D01*
X113820736Y-83785365D01*
X113820745Y-83785368D01*
X113955046Y-83800500D01*
X113955050Y-83800500D01*
X114044950Y-83800500D01*
X114044954Y-83800500D01*
X114179255Y-83785368D01*
X114247481Y-83761494D01*
X114349520Y-83725790D01*
X114381224Y-83705869D01*
X114502262Y-83629816D01*
X114629816Y-83502262D01*
X114725789Y-83349522D01*
X114785368Y-83179255D01*
X114805565Y-83000000D01*
X115734435Y-83000000D01*
X115754632Y-83179254D01*
X115754634Y-83179263D01*
X115814209Y-83349520D01*
X115885547Y-83463054D01*
X115910184Y-83502262D01*
X116037738Y-83629816D01*
X116126545Y-83685617D01*
X116190479Y-83725790D01*
X116360736Y-83785365D01*
X116360745Y-83785368D01*
X116495046Y-83800500D01*
X116495050Y-83800500D01*
X116584950Y-83800500D01*
X116584954Y-83800500D01*
X116719255Y-83785368D01*
X116787481Y-83761494D01*
X116889520Y-83725790D01*
X116921224Y-83705869D01*
X117042262Y-83629816D01*
X117169816Y-83502262D01*
X117265789Y-83349522D01*
X117325368Y-83179255D01*
X117345565Y-83000000D01*
X118274435Y-83000000D01*
X118294632Y-83179254D01*
X118294634Y-83179263D01*
X118354209Y-83349520D01*
X118425547Y-83463054D01*
X118450184Y-83502262D01*
X118577738Y-83629816D01*
X118666545Y-83685617D01*
X118730479Y-83725790D01*
X118900736Y-83785365D01*
X118900745Y-83785368D01*
X119035046Y-83800500D01*
X119035050Y-83800500D01*
X119124950Y-83800500D01*
X119124954Y-83800500D01*
X119259255Y-83785368D01*
X119327481Y-83761494D01*
X119429520Y-83725790D01*
X119461224Y-83705869D01*
X119582262Y-83629816D01*
X119709816Y-83502262D01*
X119805789Y-83349522D01*
X119865368Y-83179255D01*
X119885565Y-83000000D01*
X119865368Y-82820745D01*
X119862428Y-82812343D01*
X119805790Y-82650479D01*
X119750145Y-82561921D01*
X119709816Y-82497738D01*
X119582262Y-82370184D01*
X119543054Y-82345547D01*
X119429520Y-82274209D01*
X119259263Y-82214634D01*
X119259256Y-82214632D01*
X119259255Y-82214632D01*
X119124954Y-82199500D01*
X119035046Y-82199500D01*
X118900745Y-82214632D01*
X118900736Y-82214634D01*
X118730479Y-82274209D01*
X118577739Y-82370183D01*
X118450183Y-82497739D01*
X118354209Y-82650479D01*
X118294634Y-82820736D01*
X118294632Y-82820745D01*
X118274435Y-83000000D01*
X117345565Y-83000000D01*
X117325368Y-82820745D01*
X117322428Y-82812343D01*
X117265790Y-82650479D01*
X117210145Y-82561921D01*
X117169816Y-82497738D01*
X117042262Y-82370184D01*
X117003054Y-82345547D01*
X116889520Y-82274209D01*
X116719263Y-82214634D01*
X116719256Y-82214632D01*
X116719255Y-82214632D01*
X116584954Y-82199500D01*
X116495046Y-82199500D01*
X116360745Y-82214632D01*
X116360736Y-82214634D01*
X116190479Y-82274209D01*
X116037739Y-82370183D01*
X115910183Y-82497739D01*
X115814209Y-82650479D01*
X115754634Y-82820736D01*
X115754632Y-82820745D01*
X115734435Y-83000000D01*
X114805565Y-83000000D01*
X114785368Y-82820745D01*
X114782428Y-82812343D01*
X114725790Y-82650479D01*
X114670145Y-82561921D01*
X114629816Y-82497738D01*
X114502262Y-82370184D01*
X114463054Y-82345547D01*
X114349520Y-82274209D01*
X114179263Y-82214634D01*
X114179256Y-82214632D01*
X114179255Y-82214632D01*
X114044954Y-82199500D01*
X113955046Y-82199500D01*
X113820745Y-82214632D01*
X113820736Y-82214634D01*
X113650479Y-82274209D01*
X113497739Y-82370183D01*
X113370183Y-82497739D01*
X113274209Y-82650479D01*
X113214634Y-82820736D01*
X113214632Y-82820745D01*
X113194435Y-83000000D01*
X112265565Y-83000000D01*
X112245368Y-82820745D01*
X112242428Y-82812343D01*
X112185790Y-82650479D01*
X112130145Y-82561921D01*
X112089816Y-82497738D01*
X111962262Y-82370184D01*
X111923054Y-82345547D01*
X111809520Y-82274209D01*
X111639263Y-82214634D01*
X111639256Y-82214632D01*
X111639255Y-82214632D01*
X111504954Y-82199500D01*
X111415046Y-82199500D01*
X111280745Y-82214632D01*
X111280736Y-82214634D01*
X111110479Y-82274209D01*
X110957739Y-82370183D01*
X110830183Y-82497739D01*
X110734209Y-82650479D01*
X110674634Y-82820736D01*
X110674632Y-82820745D01*
X110654435Y-83000000D01*
X109725565Y-83000000D01*
X109705368Y-82820745D01*
X109702428Y-82812343D01*
X109645790Y-82650479D01*
X109590145Y-82561921D01*
X109549816Y-82497738D01*
X109422262Y-82370184D01*
X109383054Y-82345547D01*
X109269520Y-82274209D01*
X109099263Y-82214634D01*
X109099256Y-82214632D01*
X109099255Y-82214632D01*
X108964954Y-82199500D01*
X108875046Y-82199500D01*
X108740745Y-82214632D01*
X108740736Y-82214634D01*
X108570479Y-82274209D01*
X108417739Y-82370183D01*
X108290183Y-82497739D01*
X108194209Y-82650479D01*
X108134634Y-82820736D01*
X108134632Y-82820745D01*
X108114435Y-83000000D01*
X107185565Y-83000000D01*
X107165368Y-82820745D01*
X107162428Y-82812343D01*
X107105790Y-82650479D01*
X107050145Y-82561921D01*
X107009816Y-82497738D01*
X106882262Y-82370184D01*
X106843054Y-82345547D01*
X106729520Y-82274209D01*
X106559263Y-82214634D01*
X106559256Y-82214632D01*
X106559255Y-82214632D01*
X106424954Y-82199500D01*
X106335046Y-82199500D01*
X106200745Y-82214632D01*
X106200736Y-82214634D01*
X106030479Y-82274209D01*
X105877739Y-82370183D01*
X105750183Y-82497739D01*
X105654209Y-82650479D01*
X105594634Y-82820736D01*
X105594632Y-82820745D01*
X105574435Y-83000000D01*
X104645565Y-83000000D01*
X104625368Y-82820745D01*
X104622428Y-82812343D01*
X104565790Y-82650479D01*
X104510145Y-82561921D01*
X104469816Y-82497738D01*
X104342262Y-82370184D01*
X104303054Y-82345547D01*
X104189520Y-82274209D01*
X104019263Y-82214634D01*
X104019256Y-82214632D01*
X104019255Y-82214632D01*
X103884954Y-82199500D01*
X103795046Y-82199500D01*
X103660745Y-82214632D01*
X103660736Y-82214634D01*
X103490479Y-82274209D01*
X103337739Y-82370183D01*
X103210183Y-82497739D01*
X103114209Y-82650479D01*
X103054634Y-82820736D01*
X103054632Y-82820745D01*
X103034435Y-83000000D01*
X102105565Y-83000000D01*
X102085368Y-82820745D01*
X102082428Y-82812343D01*
X102025790Y-82650479D01*
X101970145Y-82561921D01*
X101929816Y-82497738D01*
X101802262Y-82370184D01*
X101763054Y-82345547D01*
X101649520Y-82274209D01*
X101479263Y-82214634D01*
X101479256Y-82214632D01*
X101479255Y-82214632D01*
X101344954Y-82199500D01*
X101255046Y-82199500D01*
X101120745Y-82214632D01*
X101120736Y-82214634D01*
X100950479Y-82274209D01*
X100797739Y-82370183D01*
X100670183Y-82497739D01*
X100574209Y-82650479D01*
X100514634Y-82820736D01*
X100514632Y-82820745D01*
X100494435Y-83000000D01*
X99565565Y-83000000D01*
X99545368Y-82820745D01*
X99542428Y-82812343D01*
X99485790Y-82650479D01*
X99430145Y-82561921D01*
X99389816Y-82497738D01*
X99262262Y-82370184D01*
X99223054Y-82345547D01*
X99109520Y-82274209D01*
X98939263Y-82214634D01*
X98939256Y-82214632D01*
X98939255Y-82214632D01*
X98804954Y-82199500D01*
X98715046Y-82199500D01*
X98580745Y-82214632D01*
X98580736Y-82214634D01*
X98410479Y-82274209D01*
X98257739Y-82370183D01*
X98130183Y-82497739D01*
X98034209Y-82650479D01*
X97974634Y-82820736D01*
X97974632Y-82820745D01*
X97954435Y-83000000D01*
X97025565Y-83000000D01*
X97005368Y-82820745D01*
X97002428Y-82812343D01*
X96945790Y-82650479D01*
X96890145Y-82561921D01*
X96849816Y-82497738D01*
X96722262Y-82370184D01*
X96683054Y-82345547D01*
X96569520Y-82274209D01*
X96399263Y-82214634D01*
X96399256Y-82214632D01*
X96399255Y-82214632D01*
X96264954Y-82199500D01*
X96175046Y-82199500D01*
X96040745Y-82214632D01*
X96040736Y-82214634D01*
X95870479Y-82274209D01*
X95717739Y-82370183D01*
X95590183Y-82497739D01*
X95494209Y-82650479D01*
X95434634Y-82820736D01*
X95434632Y-82820745D01*
X95414435Y-83000000D01*
X94485565Y-83000000D01*
X94465368Y-82820745D01*
X94462428Y-82812343D01*
X94405790Y-82650479D01*
X94350145Y-82561921D01*
X94309816Y-82497738D01*
X94182262Y-82370184D01*
X94143054Y-82345547D01*
X94029520Y-82274209D01*
X93859263Y-82214634D01*
X93859256Y-82214632D01*
X93859255Y-82214632D01*
X93724954Y-82199500D01*
X93635046Y-82199500D01*
X93500745Y-82214632D01*
X93500736Y-82214634D01*
X93330479Y-82274209D01*
X93177739Y-82370183D01*
X93050183Y-82497739D01*
X92954209Y-82650479D01*
X92894634Y-82820736D01*
X92894632Y-82820745D01*
X92874435Y-83000000D01*
X91945565Y-83000000D01*
X91925368Y-82820745D01*
X91922428Y-82812343D01*
X91865790Y-82650479D01*
X91810145Y-82561921D01*
X91769816Y-82497738D01*
X91642262Y-82370184D01*
X91603054Y-82345547D01*
X91489520Y-82274209D01*
X91319263Y-82214634D01*
X91319256Y-82214632D01*
X91319255Y-82214632D01*
X91184954Y-82199500D01*
X91095046Y-82199500D01*
X90960745Y-82214632D01*
X90960736Y-82214634D01*
X90790479Y-82274209D01*
X90637739Y-82370183D01*
X90510183Y-82497739D01*
X90414209Y-82650479D01*
X90354634Y-82820736D01*
X90354632Y-82820745D01*
X90334435Y-83000000D01*
X89100000Y-83000000D01*
X89100000Y-82928111D01*
X89084405Y-82875000D01*
X89843839Y-82875000D01*
X89843839Y-82874999D01*
X89835712Y-82782114D01*
X89835711Y-82782106D01*
X89779105Y-82570849D01*
X89779100Y-82570838D01*
X89686665Y-82372612D01*
X89561212Y-82193445D01*
X89406551Y-82038785D01*
X89406552Y-82038785D01*
X89227388Y-81913334D01*
X89029153Y-81820895D01*
X88817893Y-81764288D01*
X88817885Y-81764287D01*
X88725000Y-81756160D01*
X88725000Y-82512830D01*
X88635763Y-82500000D01*
X88564237Y-82500000D01*
X88474999Y-82512830D01*
X88475000Y-81756161D01*
X88474999Y-81756160D01*
X88382114Y-81764287D01*
X88382106Y-81764288D01*
X88170849Y-81820894D01*
X88170838Y-81820899D01*
X87972612Y-81913334D01*
X87793445Y-82038787D01*
X87638787Y-82193445D01*
X87513334Y-82372612D01*
X87420899Y-82570838D01*
X87420894Y-82570849D01*
X87364288Y-82782106D01*
X87364287Y-82782114D01*
X87356160Y-82874999D01*
X86851481Y-82874999D01*
X86845368Y-82820745D01*
X86842428Y-82812343D01*
X86785790Y-82650479D01*
X86730145Y-82561921D01*
X86689816Y-82497738D01*
X86562262Y-82370184D01*
X86523054Y-82345547D01*
X86409520Y-82274209D01*
X86239263Y-82214634D01*
X86239256Y-82214632D01*
X86239255Y-82214632D01*
X86104954Y-82199500D01*
X86015046Y-82199500D01*
X85880745Y-82214632D01*
X85880736Y-82214634D01*
X85710479Y-82274209D01*
X85557739Y-82370183D01*
X85430183Y-82497739D01*
X85334209Y-82650479D01*
X85274634Y-82820736D01*
X85274632Y-82820745D01*
X85254435Y-83000000D01*
X82906257Y-83000000D01*
X82989024Y-82906574D01*
X83069208Y-82753797D01*
X83110500Y-82586270D01*
X83110500Y-82413730D01*
X83069208Y-82246203D01*
X82989024Y-82093426D01*
X82874609Y-81964277D01*
X82815437Y-81923433D01*
X82732610Y-81866262D01*
X82632465Y-81828282D01*
X82571283Y-81805079D01*
X82571281Y-81805078D01*
X82571277Y-81805077D01*
X82442984Y-81789500D01*
X82442975Y-81789500D01*
X82357025Y-81789500D01*
X82357015Y-81789500D01*
X82228722Y-81805077D01*
X82228717Y-81805079D01*
X82067389Y-81866262D01*
X81925391Y-81964276D01*
X81810975Y-82093427D01*
X81755304Y-82199500D01*
X81730792Y-82246203D01*
X81689500Y-82413730D01*
X81689500Y-82586270D01*
X76310500Y-82586270D01*
X76310500Y-82413730D01*
X76269208Y-82246203D01*
X76189024Y-82093426D01*
X76074609Y-81964277D01*
X76015437Y-81923433D01*
X75932610Y-81866262D01*
X75832465Y-81828282D01*
X75771283Y-81805079D01*
X75771281Y-81805078D01*
X75771277Y-81805077D01*
X75642984Y-81789500D01*
X75642975Y-81789500D01*
X75557025Y-81789500D01*
X75557015Y-81789500D01*
X75428722Y-81805077D01*
X75428717Y-81805079D01*
X75267389Y-81866262D01*
X75125391Y-81964276D01*
X75010975Y-82093427D01*
X74955304Y-82199500D01*
X74930792Y-82246203D01*
X74889500Y-82413730D01*
X74889500Y-82586270D01*
X71240394Y-82586270D01*
X71329420Y-82465899D01*
X71433683Y-82259105D01*
X71501498Y-82037665D01*
X71530915Y-81807950D01*
X71521086Y-81576567D01*
X71472294Y-81350174D01*
X71385944Y-81135283D01*
X71264519Y-80938077D01*
X71111512Y-80764227D01*
X70931326Y-80618737D01*
X70931322Y-80618735D01*
X70931320Y-80618733D01*
X70729143Y-80505790D01*
X70568694Y-80449100D01*
X70510782Y-80428639D01*
X70402073Y-80409999D01*
X86584867Y-80409999D01*
X86603302Y-80538223D01*
X86603302Y-80538224D01*
X86603303Y-80538226D01*
X86657118Y-80656063D01*
X86741951Y-80753967D01*
X86850931Y-80824004D01*
X86975228Y-80860500D01*
X87104772Y-80860500D01*
X87229069Y-80824004D01*
X87338049Y-80753967D01*
X87422882Y-80656063D01*
X87476697Y-80538226D01*
X87495133Y-80410000D01*
X87476697Y-80281774D01*
X87422882Y-80163937D01*
X87338049Y-80066033D01*
X87271032Y-80022964D01*
X87229068Y-79995995D01*
X87104772Y-79959500D01*
X86975228Y-79959500D01*
X86850931Y-79995995D01*
X86741954Y-80066031D01*
X86741950Y-80066034D01*
X86657119Y-80163935D01*
X86603302Y-80281776D01*
X86584867Y-80409999D01*
X70402073Y-80409999D01*
X70282522Y-80389500D01*
X70108931Y-80389500D01*
X70108927Y-80389500D01*
X70108910Y-80389501D01*
X69935972Y-80404220D01*
X69711854Y-80462576D01*
X69711849Y-80462577D01*
X69500816Y-80557971D01*
X69308940Y-80687656D01*
X69141743Y-80847902D01*
X69004030Y-81034104D01*
X69004029Y-81034106D01*
X68899768Y-81240894D01*
X68831955Y-81462328D01*
X68802537Y-81692050D01*
X68802536Y-81692051D01*
X67300500Y-81692051D01*
X67300500Y-77600000D01*
X92884867Y-77600000D01*
X92903302Y-77728223D01*
X92903302Y-77728224D01*
X92903303Y-77728226D01*
X92957118Y-77846063D01*
X93041951Y-77943967D01*
X93150931Y-78014004D01*
X93275228Y-78050500D01*
X93404772Y-78050500D01*
X93529069Y-78014004D01*
X93638049Y-77943967D01*
X93722882Y-77846063D01*
X93776697Y-77728226D01*
X93795133Y-77600000D01*
X99584867Y-77600000D01*
X99603302Y-77728223D01*
X99603302Y-77728224D01*
X99603303Y-77728226D01*
X99657118Y-77846063D01*
X99741951Y-77943967D01*
X99850931Y-78014004D01*
X99975228Y-78050500D01*
X100104772Y-78050500D01*
X100229069Y-78014004D01*
X100338049Y-77943967D01*
X100422882Y-77846063D01*
X100476697Y-77728226D01*
X100490820Y-77630000D01*
X104264867Y-77630000D01*
X104283302Y-77758223D01*
X104283302Y-77758224D01*
X104283303Y-77758226D01*
X104337118Y-77876063D01*
X104421951Y-77973967D01*
X104530931Y-78044004D01*
X104655228Y-78080500D01*
X104784772Y-78080500D01*
X104909069Y-78044004D01*
X105018049Y-77973967D01*
X105102882Y-77876063D01*
X105156697Y-77758226D01*
X105175133Y-77630000D01*
X105156697Y-77501774D01*
X105102882Y-77383937D01*
X105018049Y-77286033D01*
X104951032Y-77242964D01*
X104909068Y-77215995D01*
X104784772Y-77179500D01*
X104655228Y-77179500D01*
X104530931Y-77215995D01*
X104421954Y-77286031D01*
X104421950Y-77286034D01*
X104337119Y-77383935D01*
X104283302Y-77501776D01*
X104264867Y-77630000D01*
X100490820Y-77630000D01*
X100495133Y-77600000D01*
X100476697Y-77471774D01*
X100422882Y-77353937D01*
X100338049Y-77256033D01*
X100271032Y-77212964D01*
X100229068Y-77185995D01*
X100104772Y-77149500D01*
X99975228Y-77149500D01*
X99850931Y-77185995D01*
X99741954Y-77256031D01*
X99741950Y-77256034D01*
X99657119Y-77353935D01*
X99603302Y-77471776D01*
X99584867Y-77600000D01*
X93795133Y-77600000D01*
X93776697Y-77471774D01*
X93722882Y-77353937D01*
X93638049Y-77256033D01*
X93571032Y-77212964D01*
X93529068Y-77185995D01*
X93404772Y-77149500D01*
X93275228Y-77149500D01*
X93150931Y-77185995D01*
X93041954Y-77256031D01*
X93041950Y-77256034D01*
X92957119Y-77353935D01*
X92903302Y-77471776D01*
X92884867Y-77600000D01*
X67300500Y-77600000D01*
X67300500Y-75299999D01*
X77894867Y-75299999D01*
X77913302Y-75428223D01*
X77913302Y-75428224D01*
X77913303Y-75428226D01*
X77967118Y-75546063D01*
X78051951Y-75643967D01*
X78160931Y-75714004D01*
X78285228Y-75750500D01*
X78414772Y-75750500D01*
X78539069Y-75714004D01*
X78648049Y-75643967D01*
X78732882Y-75546063D01*
X78785887Y-75430000D01*
X86644867Y-75430000D01*
X86663302Y-75558223D01*
X86663302Y-75558224D01*
X86663303Y-75558226D01*
X86717118Y-75676063D01*
X86801951Y-75773967D01*
X86910931Y-75844004D01*
X87035228Y-75880500D01*
X87164772Y-75880500D01*
X87289069Y-75844004D01*
X87398049Y-75773967D01*
X87482882Y-75676063D01*
X87536697Y-75558226D01*
X87555133Y-75430000D01*
X87536697Y-75301774D01*
X87482882Y-75183937D01*
X87398049Y-75086033D01*
X87331032Y-75042964D01*
X87289068Y-75015995D01*
X87164772Y-74979500D01*
X87035228Y-74979500D01*
X86910931Y-75015995D01*
X86801954Y-75086031D01*
X86801950Y-75086034D01*
X86717119Y-75183935D01*
X86663302Y-75301776D01*
X86644867Y-75430000D01*
X78785887Y-75430000D01*
X78786697Y-75428226D01*
X78805133Y-75300000D01*
X78786697Y-75171774D01*
X78732882Y-75053937D01*
X78648049Y-74956033D01*
X78581032Y-74912964D01*
X78539068Y-74885995D01*
X78414772Y-74849500D01*
X78285228Y-74849500D01*
X78160931Y-74885995D01*
X78051954Y-74956031D01*
X78051950Y-74956034D01*
X77967119Y-75053935D01*
X77913302Y-75171776D01*
X77894867Y-75299999D01*
X67300500Y-75299999D01*
X67300500Y-74375000D01*
X98744867Y-74375000D01*
X98763302Y-74503223D01*
X98763302Y-74503224D01*
X98763303Y-74503226D01*
X98817118Y-74621063D01*
X98901951Y-74718967D01*
X99010931Y-74789004D01*
X99135228Y-74825500D01*
X99264772Y-74825500D01*
X99389069Y-74789004D01*
X99498049Y-74718967D01*
X99582882Y-74621063D01*
X99636697Y-74503226D01*
X99651539Y-74400000D01*
X115144867Y-74400000D01*
X115163302Y-74528223D01*
X115163302Y-74528224D01*
X115163303Y-74528226D01*
X115217118Y-74646063D01*
X115301951Y-74743967D01*
X115410931Y-74814004D01*
X115535228Y-74850500D01*
X115664772Y-74850500D01*
X115789069Y-74814004D01*
X115898049Y-74743967D01*
X115982882Y-74646063D01*
X116036697Y-74528226D01*
X116055133Y-74400000D01*
X116036697Y-74271774D01*
X115982882Y-74153937D01*
X115898049Y-74056033D01*
X115831032Y-74012964D01*
X115789068Y-73985995D01*
X115664772Y-73949500D01*
X115535228Y-73949500D01*
X115410931Y-73985995D01*
X115301954Y-74056031D01*
X115301950Y-74056034D01*
X115217119Y-74153935D01*
X115163302Y-74271776D01*
X115144867Y-74400000D01*
X99651539Y-74400000D01*
X99655133Y-74375000D01*
X99636697Y-74246774D01*
X99582882Y-74128937D01*
X99498049Y-74031033D01*
X99424810Y-73983965D01*
X99389068Y-73960995D01*
X99264772Y-73924500D01*
X99135228Y-73924500D01*
X99010931Y-73960995D01*
X98901954Y-74031031D01*
X98901950Y-74031034D01*
X98817119Y-74128935D01*
X98763302Y-74246776D01*
X98744867Y-74375000D01*
X67300500Y-74375000D01*
X67300500Y-73849999D01*
X74994867Y-73849999D01*
X75013302Y-73978223D01*
X75013302Y-73978224D01*
X75013303Y-73978226D01*
X75067118Y-74096063D01*
X75151951Y-74193967D01*
X75260931Y-74264004D01*
X75385228Y-74300500D01*
X75514772Y-74300500D01*
X75639069Y-74264004D01*
X75748049Y-74193967D01*
X75832882Y-74096063D01*
X75886697Y-73978226D01*
X75905133Y-73850000D01*
X75886697Y-73721774D01*
X75844785Y-73630000D01*
X94834867Y-73630000D01*
X94853302Y-73758223D01*
X94853302Y-73758224D01*
X94853303Y-73758226D01*
X94907118Y-73876063D01*
X94991951Y-73973967D01*
X95100931Y-74044004D01*
X95225228Y-74080500D01*
X95354772Y-74080500D01*
X95479069Y-74044004D01*
X95588049Y-73973967D01*
X95672882Y-73876063D01*
X95726697Y-73758226D01*
X95743695Y-73639999D01*
X118914867Y-73639999D01*
X118933302Y-73768223D01*
X118933302Y-73768224D01*
X118933303Y-73768226D01*
X118987118Y-73886063D01*
X119071951Y-73983967D01*
X119180931Y-74054004D01*
X119305228Y-74090500D01*
X119434772Y-74090500D01*
X119559069Y-74054004D01*
X119668049Y-73983967D01*
X119752882Y-73886063D01*
X119806697Y-73768226D01*
X119825133Y-73640000D01*
X119806697Y-73511774D01*
X119752882Y-73393937D01*
X119668049Y-73296033D01*
X119601032Y-73252964D01*
X119559068Y-73225995D01*
X119434772Y-73189500D01*
X119305228Y-73189500D01*
X119180931Y-73225995D01*
X119071954Y-73296031D01*
X119071950Y-73296034D01*
X118987119Y-73393935D01*
X118987118Y-73393936D01*
X118987118Y-73393937D01*
X118982538Y-73403965D01*
X118933302Y-73511776D01*
X118914867Y-73639999D01*
X95743695Y-73639999D01*
X95745133Y-73630000D01*
X95726697Y-73501774D01*
X95672882Y-73383937D01*
X95588049Y-73286033D01*
X95521032Y-73242964D01*
X95479068Y-73215995D01*
X95354772Y-73179500D01*
X95225228Y-73179500D01*
X95100931Y-73215995D01*
X94991954Y-73286031D01*
X94991950Y-73286034D01*
X94907119Y-73383935D01*
X94907118Y-73383936D01*
X94907118Y-73383937D01*
X94897970Y-73403968D01*
X94853302Y-73501776D01*
X94834867Y-73630000D01*
X75844785Y-73630000D01*
X75832882Y-73603937D01*
X75748049Y-73506033D01*
X75681032Y-73462964D01*
X75639068Y-73435995D01*
X75514772Y-73399500D01*
X75385228Y-73399500D01*
X75260931Y-73435995D01*
X75151954Y-73506031D01*
X75151950Y-73506034D01*
X75067119Y-73603935D01*
X75013302Y-73721776D01*
X74994867Y-73849999D01*
X67300500Y-73849999D01*
X67300500Y-72809999D01*
X79944867Y-72809999D01*
X79963302Y-72938223D01*
X79963302Y-72938224D01*
X79963303Y-72938226D01*
X80017118Y-73056063D01*
X80101951Y-73153967D01*
X80210931Y-73224004D01*
X80335228Y-73260500D01*
X80464772Y-73260500D01*
X80589069Y-73224004D01*
X80698049Y-73153967D01*
X80779471Y-73059999D01*
X90394867Y-73059999D01*
X90413302Y-73188223D01*
X90413302Y-73188224D01*
X90413303Y-73188226D01*
X90467118Y-73306063D01*
X90551951Y-73403967D01*
X90660931Y-73474004D01*
X90785228Y-73510500D01*
X90914772Y-73510500D01*
X91039069Y-73474004D01*
X91148049Y-73403967D01*
X91232882Y-73306063D01*
X91286697Y-73188226D01*
X91305133Y-73060000D01*
X91286697Y-72931774D01*
X91232882Y-72813937D01*
X91148049Y-72716033D01*
X91081032Y-72672964D01*
X91039068Y-72645995D01*
X90914772Y-72609500D01*
X90785228Y-72609500D01*
X90660931Y-72645995D01*
X90551954Y-72716031D01*
X90551950Y-72716034D01*
X90467119Y-72813935D01*
X90413302Y-72931776D01*
X90394867Y-73059999D01*
X80779471Y-73059999D01*
X80782882Y-73056063D01*
X80836697Y-72938226D01*
X80855133Y-72810000D01*
X80836697Y-72681774D01*
X80782882Y-72563937D01*
X80698049Y-72466033D01*
X80598060Y-72401774D01*
X80589068Y-72395995D01*
X80500530Y-72369999D01*
X107144867Y-72369999D01*
X107163302Y-72498223D01*
X107163302Y-72498224D01*
X107163303Y-72498226D01*
X107217118Y-72616063D01*
X107301951Y-72713967D01*
X107410931Y-72784004D01*
X107535228Y-72820500D01*
X107664772Y-72820500D01*
X107789069Y-72784004D01*
X107898049Y-72713967D01*
X107982882Y-72616063D01*
X108022186Y-72530000D01*
X117664867Y-72530000D01*
X117683302Y-72658223D01*
X117683302Y-72658224D01*
X117683303Y-72658226D01*
X117737118Y-72776063D01*
X117821951Y-72873967D01*
X117930931Y-72944004D01*
X118055228Y-72980500D01*
X118184772Y-72980500D01*
X118309069Y-72944004D01*
X118418049Y-72873967D01*
X118502882Y-72776063D01*
X118556697Y-72658226D01*
X118575133Y-72530000D01*
X118556697Y-72401774D01*
X118502882Y-72283937D01*
X118418049Y-72186033D01*
X118351032Y-72142964D01*
X118309068Y-72115995D01*
X118184772Y-72079500D01*
X118055228Y-72079500D01*
X117930931Y-72115995D01*
X117821954Y-72186031D01*
X117821950Y-72186034D01*
X117737119Y-72283935D01*
X117683302Y-72401776D01*
X117664867Y-72530000D01*
X108022186Y-72530000D01*
X108036697Y-72498226D01*
X108055133Y-72370000D01*
X108036697Y-72241774D01*
X107982882Y-72123937D01*
X107898049Y-72026033D01*
X107831032Y-71982964D01*
X107789068Y-71955995D01*
X107664772Y-71919500D01*
X107535228Y-71919500D01*
X107410931Y-71955995D01*
X107301954Y-72026031D01*
X107301950Y-72026034D01*
X107217119Y-72123935D01*
X107163302Y-72241776D01*
X107144867Y-72369999D01*
X80500530Y-72369999D01*
X80464772Y-72359500D01*
X80335228Y-72359500D01*
X80210931Y-72395995D01*
X80101954Y-72466031D01*
X80101950Y-72466034D01*
X80017119Y-72563935D01*
X79963302Y-72681776D01*
X79944867Y-72809999D01*
X67300500Y-72809999D01*
X67300500Y-71320000D01*
X67919318Y-71320000D01*
X67939955Y-71476760D01*
X67939955Y-71476761D01*
X68000464Y-71622841D01*
X68096715Y-71748279D01*
X68096720Y-71748284D01*
X68180345Y-71812451D01*
X68222159Y-71844536D01*
X68368238Y-71905044D01*
X68485639Y-71920500D01*
X68485641Y-71920500D01*
X69364359Y-71920500D01*
X69364361Y-71920500D01*
X69481762Y-71905044D01*
X69627841Y-71844536D01*
X69753282Y-71748282D01*
X69849536Y-71622841D01*
X69910044Y-71476762D01*
X69930682Y-71320000D01*
X71949318Y-71320000D01*
X71969955Y-71476760D01*
X71969955Y-71476761D01*
X72030464Y-71622841D01*
X72126715Y-71748279D01*
X72126720Y-71748284D01*
X72210345Y-71812451D01*
X72252159Y-71844536D01*
X72398238Y-71905044D01*
X72515639Y-71920500D01*
X72515641Y-71920500D01*
X73694359Y-71920500D01*
X73694361Y-71920500D01*
X73811762Y-71905044D01*
X73957841Y-71844536D01*
X74083282Y-71748282D01*
X74179536Y-71622841D01*
X74193140Y-71589999D01*
X108464867Y-71589999D01*
X108483302Y-71718223D01*
X108483302Y-71718224D01*
X108483303Y-71718226D01*
X108537118Y-71836063D01*
X108621951Y-71933967D01*
X108730931Y-72004004D01*
X108855228Y-72040500D01*
X108984772Y-72040500D01*
X109109069Y-72004004D01*
X109218049Y-71933967D01*
X109302882Y-71836063D01*
X109356697Y-71718226D01*
X109375133Y-71590000D01*
X109375133Y-71589999D01*
X116384867Y-71589999D01*
X116403302Y-71718223D01*
X116403302Y-71718224D01*
X116403303Y-71718226D01*
X116457118Y-71836063D01*
X116541951Y-71933967D01*
X116650931Y-72004004D01*
X116775228Y-72040500D01*
X116904772Y-72040500D01*
X117029069Y-72004004D01*
X117138049Y-71933967D01*
X117222882Y-71836063D01*
X117276697Y-71718226D01*
X117295133Y-71590000D01*
X117276697Y-71461774D01*
X117222882Y-71343937D01*
X117138049Y-71246033D01*
X117071032Y-71202964D01*
X117029068Y-71175995D01*
X116904772Y-71139500D01*
X116775228Y-71139500D01*
X116650931Y-71175995D01*
X116541954Y-71246031D01*
X116541950Y-71246034D01*
X116457119Y-71343935D01*
X116403302Y-71461776D01*
X116384867Y-71589999D01*
X109375133Y-71589999D01*
X109356697Y-71461774D01*
X109302882Y-71343937D01*
X109218049Y-71246033D01*
X109151032Y-71202964D01*
X109109068Y-71175995D01*
X108984772Y-71139500D01*
X108855228Y-71139500D01*
X108730931Y-71175995D01*
X108621954Y-71246031D01*
X108621950Y-71246034D01*
X108537119Y-71343935D01*
X108483302Y-71461776D01*
X108464867Y-71589999D01*
X74193140Y-71589999D01*
X74240044Y-71476762D01*
X74260682Y-71320000D01*
X74240044Y-71163238D01*
X74179536Y-71017159D01*
X74083282Y-70891718D01*
X74083279Y-70891715D01*
X73957841Y-70795464D01*
X73811761Y-70734955D01*
X73721675Y-70723095D01*
X73694361Y-70719500D01*
X72515639Y-70719500D01*
X72491171Y-70722721D01*
X72398238Y-70734955D01*
X72252158Y-70795464D01*
X72126720Y-70891715D01*
X72126715Y-70891720D01*
X72030464Y-71017158D01*
X71969955Y-71163238D01*
X71969955Y-71163239D01*
X71949318Y-71320000D01*
X69930682Y-71320000D01*
X69910044Y-71163238D01*
X69849536Y-71017159D01*
X69753282Y-70891718D01*
X69753279Y-70891715D01*
X69627841Y-70795464D01*
X69481761Y-70734955D01*
X69391675Y-70723095D01*
X69364361Y-70719500D01*
X68485639Y-70719500D01*
X68461171Y-70722721D01*
X68368238Y-70734955D01*
X68222158Y-70795464D01*
X68096720Y-70891715D01*
X68096715Y-70891720D01*
X68000464Y-71017158D01*
X67939955Y-71163238D01*
X67939955Y-71163239D01*
X67919318Y-71320000D01*
X67300500Y-71320000D01*
X67300500Y-69890000D01*
X72014448Y-69890000D01*
X72034570Y-70042845D01*
X72093566Y-70185275D01*
X72093567Y-70185276D01*
X72187417Y-70307583D01*
X72309724Y-70401433D01*
X72452154Y-70460429D01*
X72566627Y-70475500D01*
X72566629Y-70475500D01*
X72643371Y-70475500D01*
X72643373Y-70475500D01*
X72757846Y-70460429D01*
X72900276Y-70401433D01*
X72993370Y-70329999D01*
X105664867Y-70329999D01*
X105683302Y-70458223D01*
X105683302Y-70458224D01*
X105683303Y-70458226D01*
X105737118Y-70576063D01*
X105821951Y-70673967D01*
X105930931Y-70744004D01*
X106055228Y-70780500D01*
X106184772Y-70780500D01*
X106309069Y-70744004D01*
X106418049Y-70673967D01*
X106502882Y-70576063D01*
X106556697Y-70458226D01*
X106575133Y-70330000D01*
X106556697Y-70201774D01*
X106502882Y-70083937D01*
X106418049Y-69986033D01*
X106351032Y-69942964D01*
X106309068Y-69915995D01*
X106184772Y-69879500D01*
X106055228Y-69879500D01*
X105930931Y-69915995D01*
X105821954Y-69986031D01*
X105821950Y-69986034D01*
X105737119Y-70083935D01*
X105683302Y-70201776D01*
X105664867Y-70329999D01*
X72993370Y-70329999D01*
X73022583Y-70307583D01*
X73116433Y-70185276D01*
X73175429Y-70042846D01*
X73195552Y-69890000D01*
X73175429Y-69737154D01*
X73116433Y-69594724D01*
X73022583Y-69472417D01*
X72915176Y-69390000D01*
X76284867Y-69390000D01*
X76303302Y-69518223D01*
X76303302Y-69518224D01*
X76303303Y-69518226D01*
X76357118Y-69636063D01*
X76441951Y-69733967D01*
X76550931Y-69804004D01*
X76675228Y-69840500D01*
X76804772Y-69840500D01*
X76929069Y-69804004D01*
X77038049Y-69733967D01*
X77122882Y-69636063D01*
X77176697Y-69518226D01*
X77195133Y-69390000D01*
X77176697Y-69261774D01*
X77122882Y-69143937D01*
X77067481Y-69080000D01*
X101894867Y-69080000D01*
X101913302Y-69208223D01*
X101913302Y-69208224D01*
X101913303Y-69208226D01*
X101967118Y-69326063D01*
X102051951Y-69423967D01*
X102160931Y-69494004D01*
X102285228Y-69530500D01*
X102414772Y-69530500D01*
X102539069Y-69494004D01*
X102648049Y-69423967D01*
X102732882Y-69326063D01*
X102786697Y-69208226D01*
X102805133Y-69080000D01*
X102790755Y-68980000D01*
X107124867Y-68980000D01*
X107143302Y-69108223D01*
X107143302Y-69108224D01*
X107143303Y-69108226D01*
X107197118Y-69226063D01*
X107281951Y-69323967D01*
X107390931Y-69394004D01*
X107515228Y-69430500D01*
X107644772Y-69430500D01*
X107769069Y-69394004D01*
X107878049Y-69323967D01*
X107962882Y-69226063D01*
X108016697Y-69108226D01*
X108035133Y-68980000D01*
X108016697Y-68851774D01*
X107962882Y-68733937D01*
X107878049Y-68636033D01*
X107811032Y-68592964D01*
X107769068Y-68565995D01*
X107644772Y-68529500D01*
X107515228Y-68529500D01*
X107390931Y-68565995D01*
X107281954Y-68636031D01*
X107281950Y-68636034D01*
X107197119Y-68733935D01*
X107143302Y-68851776D01*
X107124867Y-68980000D01*
X102790755Y-68980000D01*
X102786697Y-68951774D01*
X102732882Y-68833937D01*
X102648049Y-68736033D01*
X102581032Y-68692964D01*
X102539068Y-68665995D01*
X102414772Y-68629500D01*
X102285228Y-68629500D01*
X102160931Y-68665995D01*
X102051954Y-68736031D01*
X102051950Y-68736034D01*
X101967119Y-68833935D01*
X101913302Y-68951776D01*
X101894867Y-69080000D01*
X77067481Y-69080000D01*
X77038049Y-69046033D01*
X76971032Y-69002964D01*
X76929068Y-68975995D01*
X76804772Y-68939500D01*
X76675228Y-68939500D01*
X76550931Y-68975995D01*
X76441954Y-69046031D01*
X76441950Y-69046034D01*
X76357119Y-69143935D01*
X76303302Y-69261776D01*
X76284867Y-69390000D01*
X72915176Y-69390000D01*
X72900275Y-69378566D01*
X72757845Y-69319570D01*
X72670006Y-69308006D01*
X72643373Y-69304500D01*
X72566627Y-69304500D01*
X72542769Y-69307641D01*
X72452154Y-69319570D01*
X72309724Y-69378566D01*
X72187417Y-69472417D01*
X72093566Y-69594724D01*
X72034570Y-69737154D01*
X72014448Y-69890000D01*
X67300500Y-69890000D01*
X67300500Y-68209999D01*
X108444867Y-68209999D01*
X108463302Y-68338223D01*
X108463302Y-68338224D01*
X108463303Y-68338226D01*
X108517118Y-68456063D01*
X108601951Y-68553967D01*
X108710931Y-68624004D01*
X108835228Y-68660500D01*
X108964772Y-68660500D01*
X109089069Y-68624004D01*
X109135879Y-68593921D01*
X113415353Y-68593921D01*
X113416932Y-68595318D01*
X113567450Y-68674316D01*
X113732505Y-68714999D01*
X113732509Y-68715000D01*
X113902491Y-68715000D01*
X113902494Y-68714999D01*
X114067549Y-68674316D01*
X114218070Y-68595317D01*
X114219645Y-68593921D01*
X114940353Y-68593921D01*
X114941932Y-68595318D01*
X115092450Y-68674316D01*
X115257505Y-68714999D01*
X115257509Y-68715000D01*
X115427491Y-68715000D01*
X115427494Y-68714999D01*
X115592549Y-68674316D01*
X115743070Y-68595317D01*
X115744644Y-68593921D01*
X115744644Y-68593920D01*
X115342500Y-68191776D01*
X114940353Y-68593921D01*
X114219645Y-68593921D01*
X113817499Y-68191776D01*
X113415353Y-68593921D01*
X109135879Y-68593921D01*
X109198049Y-68553967D01*
X109282882Y-68456063D01*
X109336697Y-68338226D01*
X109355133Y-68210000D01*
X109336697Y-68081774D01*
X109282882Y-67963937D01*
X109198049Y-67866033D01*
X109144191Y-67831421D01*
X112652854Y-67831421D01*
X112654432Y-67832818D01*
X112804950Y-67911816D01*
X112970005Y-67952499D01*
X112970009Y-67952500D01*
X113039212Y-67952500D01*
X113086778Y-67969813D01*
X113112088Y-68013650D01*
X113112672Y-68017580D01*
X113132847Y-68183746D01*
X113132849Y-68183750D01*
X113193128Y-68342694D01*
X113242092Y-68413630D01*
X113608229Y-68047492D01*
X113717500Y-68047492D01*
X113755697Y-68100065D01*
X113801662Y-68115000D01*
X113833338Y-68115000D01*
X113879303Y-68100065D01*
X113917500Y-68047492D01*
X113917500Y-68014999D01*
X113994276Y-68014999D01*
X114392906Y-68413630D01*
X114441872Y-68342691D01*
X114502150Y-68183750D01*
X114502152Y-68183745D01*
X114506540Y-68147608D01*
X114529459Y-68102475D01*
X114576028Y-68082634D01*
X114624455Y-68097368D01*
X114652081Y-68139784D01*
X114653460Y-68147608D01*
X114657847Y-68183745D01*
X114657849Y-68183750D01*
X114718128Y-68342694D01*
X114767092Y-68413630D01*
X115133231Y-68047492D01*
X115242500Y-68047492D01*
X115280697Y-68100065D01*
X115326662Y-68115000D01*
X115358338Y-68115000D01*
X115404303Y-68100065D01*
X115442500Y-68047492D01*
X115442500Y-68015000D01*
X115519276Y-68015000D01*
X115917906Y-68413630D01*
X115966872Y-68342691D01*
X116027150Y-68183750D01*
X116027152Y-68183746D01*
X116047328Y-68017580D01*
X116070247Y-67972448D01*
X116116816Y-67952607D01*
X116120788Y-67952500D01*
X116189991Y-67952500D01*
X116189994Y-67952499D01*
X116355049Y-67911816D01*
X116505570Y-67832817D01*
X116507144Y-67831421D01*
X116507144Y-67831420D01*
X116105000Y-67429276D01*
X115519276Y-68015000D01*
X115442500Y-68015000D01*
X115442500Y-67982508D01*
X115404303Y-67929935D01*
X115358338Y-67915000D01*
X115326662Y-67915000D01*
X115280697Y-67929935D01*
X115242500Y-67982508D01*
X115242500Y-68047492D01*
X115133231Y-68047492D01*
X115165723Y-68015000D01*
X115165723Y-68014999D01*
X114580000Y-67429276D01*
X113994276Y-68014999D01*
X113917500Y-68014999D01*
X113917500Y-67982508D01*
X113879303Y-67929935D01*
X113833338Y-67915000D01*
X113801662Y-67915000D01*
X113755697Y-67929935D01*
X113717500Y-67982508D01*
X113717500Y-68047492D01*
X113608229Y-68047492D01*
X113640722Y-68014999D01*
X113640723Y-68014999D01*
X113055000Y-67429276D01*
X112652854Y-67831421D01*
X109144191Y-67831421D01*
X109131032Y-67822964D01*
X109089068Y-67795995D01*
X108964772Y-67759500D01*
X108835228Y-67759500D01*
X108710931Y-67795995D01*
X108601954Y-67866031D01*
X108601950Y-67866034D01*
X108517119Y-67963935D01*
X108517118Y-67963936D01*
X108517118Y-67963937D01*
X108513231Y-67972448D01*
X108463302Y-68081776D01*
X108444867Y-68209999D01*
X67300500Y-68209999D01*
X67300500Y-67252503D01*
X112349859Y-67252503D01*
X112370347Y-67421246D01*
X112370349Y-67421250D01*
X112430628Y-67580194D01*
X112479592Y-67651130D01*
X112845731Y-67284992D01*
X112955000Y-67284992D01*
X112993197Y-67337565D01*
X113039162Y-67352500D01*
X113070838Y-67352500D01*
X113116803Y-67337565D01*
X113155000Y-67284992D01*
X113155000Y-67252500D01*
X113231776Y-67252500D01*
X113817499Y-67838223D01*
X114252371Y-67403353D01*
X114370731Y-67284992D01*
X114480000Y-67284992D01*
X114518197Y-67337565D01*
X114564162Y-67352500D01*
X114595838Y-67352500D01*
X114641803Y-67337565D01*
X114680000Y-67284992D01*
X114680000Y-67252500D01*
X114756776Y-67252500D01*
X114907629Y-67403353D01*
X115342500Y-67838223D01*
X115777371Y-67403353D01*
X115895730Y-67284992D01*
X116005000Y-67284992D01*
X116043197Y-67337565D01*
X116089162Y-67352500D01*
X116120838Y-67352500D01*
X116166803Y-67337565D01*
X116205000Y-67284992D01*
X116205000Y-67252500D01*
X116281776Y-67252500D01*
X116680406Y-67651130D01*
X116729372Y-67580191D01*
X116789650Y-67421250D01*
X116789652Y-67421246D01*
X116810141Y-67252503D01*
X116810141Y-67252496D01*
X116789652Y-67083753D01*
X116789650Y-67083749D01*
X116729371Y-66924805D01*
X116680406Y-66853868D01*
X116281776Y-67252499D01*
X116281776Y-67252500D01*
X116205000Y-67252500D01*
X116205000Y-67220008D01*
X116166803Y-67167435D01*
X116120838Y-67152500D01*
X116089162Y-67152500D01*
X116043197Y-67167435D01*
X116005000Y-67220008D01*
X116005000Y-67284992D01*
X115895730Y-67284992D01*
X115928222Y-67252500D01*
X115928222Y-67252499D01*
X115777371Y-67101647D01*
X115342500Y-66666776D01*
X114756776Y-67252499D01*
X114756776Y-67252500D01*
X114680000Y-67252500D01*
X114680000Y-67220008D01*
X114641803Y-67167435D01*
X114595838Y-67152500D01*
X114564162Y-67152500D01*
X114518197Y-67167435D01*
X114480000Y-67220008D01*
X114480000Y-67284992D01*
X114370731Y-67284992D01*
X114403223Y-67252500D01*
X114403223Y-67252499D01*
X114252371Y-67101647D01*
X113817499Y-66666776D01*
X113382629Y-67101647D01*
X113231776Y-67252500D01*
X113155000Y-67252500D01*
X113155000Y-67220008D01*
X113116803Y-67167435D01*
X113070838Y-67152500D01*
X113039162Y-67152500D01*
X112993197Y-67167435D01*
X112955000Y-67220008D01*
X112955000Y-67284992D01*
X112845731Y-67284992D01*
X112878223Y-67252500D01*
X112878223Y-67252499D01*
X112479591Y-66853867D01*
X112430628Y-66924804D01*
X112370349Y-67083749D01*
X112370347Y-67083753D01*
X112349859Y-67252496D01*
X112349859Y-67252503D01*
X67300500Y-67252503D01*
X67300500Y-66673577D01*
X112652854Y-66673577D01*
X113055000Y-67075723D01*
X113489871Y-66640853D01*
X113608231Y-66522492D01*
X113717500Y-66522492D01*
X113755697Y-66575065D01*
X113801662Y-66590000D01*
X113833338Y-66590000D01*
X113879303Y-66575065D01*
X113917500Y-66522492D01*
X113917500Y-66490000D01*
X113994276Y-66490000D01*
X114145129Y-66640853D01*
X114580000Y-67075723D01*
X115014871Y-66640853D01*
X115133231Y-66522492D01*
X115242500Y-66522492D01*
X115280697Y-66575065D01*
X115326662Y-66590000D01*
X115358338Y-66590000D01*
X115404303Y-66575065D01*
X115442500Y-66522492D01*
X115442500Y-66489999D01*
X115519275Y-66489999D01*
X116104999Y-67075723D01*
X116507144Y-66673578D01*
X116505566Y-66672180D01*
X116505564Y-66672179D01*
X116355049Y-66593183D01*
X116227926Y-66561850D01*
X116185886Y-66533656D01*
X116171803Y-66485036D01*
X116192267Y-66438738D01*
X116227926Y-66418150D01*
X116355049Y-66386816D01*
X116505570Y-66307817D01*
X116507144Y-66306421D01*
X116507144Y-66306420D01*
X116105000Y-65904276D01*
X115519276Y-66489999D01*
X115519275Y-66489999D01*
X115442500Y-66489999D01*
X115442500Y-66457508D01*
X115404303Y-66404935D01*
X115358338Y-66390000D01*
X115326662Y-66390000D01*
X115280697Y-66404935D01*
X115242500Y-66457508D01*
X115242500Y-66522492D01*
X115133231Y-66522492D01*
X115165723Y-66490000D01*
X115165723Y-66489999D01*
X114580000Y-65904276D01*
X113994276Y-66490000D01*
X113917500Y-66490000D01*
X113917500Y-66457508D01*
X113879303Y-66404935D01*
X113833338Y-66390000D01*
X113801662Y-66390000D01*
X113755697Y-66404935D01*
X113717500Y-66457508D01*
X113717500Y-66522492D01*
X113608231Y-66522492D01*
X113640723Y-66490000D01*
X113640723Y-66489999D01*
X113055000Y-65904276D01*
X112652854Y-66306421D01*
X112654432Y-66307818D01*
X112804950Y-66386816D01*
X112932073Y-66418150D01*
X112974113Y-66446344D01*
X112988196Y-66494964D01*
X112967732Y-66541262D01*
X112932073Y-66561850D01*
X112804950Y-66593183D01*
X112654432Y-66672181D01*
X112652854Y-66673577D01*
X67300500Y-66673577D01*
X67300500Y-65929999D01*
X80834867Y-65929999D01*
X80853302Y-66058223D01*
X80853302Y-66058224D01*
X80853303Y-66058226D01*
X80907118Y-66176063D01*
X80991951Y-66273967D01*
X81100931Y-66344004D01*
X81225228Y-66380500D01*
X81354772Y-66380500D01*
X81479069Y-66344004D01*
X81588049Y-66273967D01*
X81622072Y-66234701D01*
X81666304Y-66210091D01*
X81716008Y-66219670D01*
X81733923Y-66234702D01*
X81741947Y-66243963D01*
X81741948Y-66243964D01*
X81741951Y-66243967D01*
X81850931Y-66314004D01*
X81975228Y-66350500D01*
X82104772Y-66350500D01*
X82229069Y-66314004D01*
X82338049Y-66243967D01*
X82422882Y-66146063D01*
X82476697Y-66028226D01*
X82495133Y-65900000D01*
X82476697Y-65771774D01*
X82456479Y-65727503D01*
X112349859Y-65727503D01*
X112370347Y-65896246D01*
X112370349Y-65896250D01*
X112430628Y-66055194D01*
X112479592Y-66126130D01*
X112845731Y-65759992D01*
X112955000Y-65759992D01*
X112993197Y-65812565D01*
X113039162Y-65827500D01*
X113070838Y-65827500D01*
X113116803Y-65812565D01*
X113155000Y-65759992D01*
X113155000Y-65727500D01*
X113231776Y-65727500D01*
X113817499Y-66313223D01*
X114252371Y-65878353D01*
X114370731Y-65759992D01*
X114480000Y-65759992D01*
X114518197Y-65812565D01*
X114564162Y-65827500D01*
X114595838Y-65827500D01*
X114641803Y-65812565D01*
X114680000Y-65759992D01*
X114680000Y-65727500D01*
X114756776Y-65727500D01*
X115342499Y-66313223D01*
X115777371Y-65878353D01*
X115895730Y-65759992D01*
X116005000Y-65759992D01*
X116043197Y-65812565D01*
X116089162Y-65827500D01*
X116120838Y-65827500D01*
X116166803Y-65812565D01*
X116205000Y-65759992D01*
X116205000Y-65727500D01*
X116281776Y-65727500D01*
X116680406Y-66126130D01*
X116729372Y-66055191D01*
X116789650Y-65896250D01*
X116789652Y-65896246D01*
X116810141Y-65727503D01*
X116810141Y-65727496D01*
X116789652Y-65558753D01*
X116789650Y-65558749D01*
X116729371Y-65399805D01*
X116680406Y-65328868D01*
X116281776Y-65727499D01*
X116281776Y-65727500D01*
X116205000Y-65727500D01*
X116205000Y-65695008D01*
X116166803Y-65642435D01*
X116120838Y-65627500D01*
X116089162Y-65627500D01*
X116043197Y-65642435D01*
X116005000Y-65695008D01*
X116005000Y-65759992D01*
X115895730Y-65759992D01*
X115928222Y-65727500D01*
X115928222Y-65727499D01*
X115777371Y-65576647D01*
X115342500Y-65141776D01*
X114756776Y-65727500D01*
X114680000Y-65727500D01*
X114680000Y-65695008D01*
X114641803Y-65642435D01*
X114595838Y-65627500D01*
X114564162Y-65627500D01*
X114518197Y-65642435D01*
X114480000Y-65695008D01*
X114480000Y-65759992D01*
X114370731Y-65759992D01*
X114403223Y-65727500D01*
X114403223Y-65727499D01*
X114252371Y-65576647D01*
X113817499Y-65141776D01*
X113382629Y-65576647D01*
X113231776Y-65727499D01*
X113231776Y-65727500D01*
X113155000Y-65727500D01*
X113155000Y-65695008D01*
X113116803Y-65642435D01*
X113070838Y-65627500D01*
X113039162Y-65627500D01*
X112993197Y-65642435D01*
X112955000Y-65695008D01*
X112955000Y-65759992D01*
X112845731Y-65759992D01*
X112878223Y-65727500D01*
X112878223Y-65727499D01*
X112479591Y-65328867D01*
X112430628Y-65399804D01*
X112370349Y-65558749D01*
X112370347Y-65558753D01*
X112349859Y-65727496D01*
X112349859Y-65727503D01*
X82456479Y-65727503D01*
X82422882Y-65653937D01*
X82338049Y-65556033D01*
X82271032Y-65512964D01*
X82229068Y-65485995D01*
X82104772Y-65449500D01*
X81975228Y-65449500D01*
X81850931Y-65485995D01*
X81741954Y-65556031D01*
X81741946Y-65556037D01*
X81707927Y-65595298D01*
X81663694Y-65619909D01*
X81613989Y-65610329D01*
X81596076Y-65595297D01*
X81588052Y-65586036D01*
X81588050Y-65586035D01*
X81588049Y-65586033D01*
X81521032Y-65542964D01*
X81479068Y-65515995D01*
X81354772Y-65479500D01*
X81225228Y-65479500D01*
X81100931Y-65515995D01*
X80991954Y-65586031D01*
X80991950Y-65586034D01*
X80907119Y-65683935D01*
X80853302Y-65801776D01*
X80834867Y-65929999D01*
X67300500Y-65929999D01*
X67300500Y-65148577D01*
X112652854Y-65148577D01*
X113055000Y-65550723D01*
X113489871Y-65115853D01*
X113608230Y-64997492D01*
X113717500Y-64997492D01*
X113755697Y-65050065D01*
X113801662Y-65065000D01*
X113833338Y-65065000D01*
X113879303Y-65050065D01*
X113917500Y-64997492D01*
X113917500Y-64964999D01*
X113994276Y-64964999D01*
X114145129Y-65115853D01*
X114580000Y-65550723D01*
X115014871Y-65115853D01*
X115133230Y-64997492D01*
X115242500Y-64997492D01*
X115280697Y-65050065D01*
X115326662Y-65065000D01*
X115358338Y-65065000D01*
X115404303Y-65050065D01*
X115442500Y-64997492D01*
X115442500Y-64964999D01*
X115519275Y-64964999D01*
X116104999Y-65550723D01*
X116507144Y-65148578D01*
X116505566Y-65147180D01*
X116505564Y-65147179D01*
X116355049Y-65068183D01*
X116189994Y-65027500D01*
X116120788Y-65027500D01*
X116073222Y-65010187D01*
X116047912Y-64966350D01*
X116047328Y-64962420D01*
X116027152Y-64796253D01*
X116027150Y-64796249D01*
X115966871Y-64637305D01*
X115917906Y-64566368D01*
X115519276Y-64964999D01*
X115519275Y-64964999D01*
X115442500Y-64964999D01*
X115442500Y-64932508D01*
X115404303Y-64879935D01*
X115358338Y-64865000D01*
X115326662Y-64865000D01*
X115280697Y-64879935D01*
X115242500Y-64932508D01*
X115242500Y-64997492D01*
X115133230Y-64997492D01*
X115165723Y-64964999D01*
X115165723Y-64964998D01*
X114767091Y-64566367D01*
X114718128Y-64637304D01*
X114657849Y-64796249D01*
X114657847Y-64796253D01*
X114653460Y-64832392D01*
X114630541Y-64877524D01*
X114583972Y-64897365D01*
X114535545Y-64882631D01*
X114507919Y-64840215D01*
X114506540Y-64832392D01*
X114502152Y-64796253D01*
X114502150Y-64796249D01*
X114441871Y-64637305D01*
X114392906Y-64566368D01*
X113994276Y-64964998D01*
X113994276Y-64964999D01*
X113917500Y-64964999D01*
X113917500Y-64932508D01*
X113879303Y-64879935D01*
X113833338Y-64865000D01*
X113801662Y-64865000D01*
X113755697Y-64879935D01*
X113717500Y-64932508D01*
X113717500Y-64997492D01*
X113608230Y-64997492D01*
X113640723Y-64964999D01*
X113242091Y-64566367D01*
X113193128Y-64637304D01*
X113132849Y-64796249D01*
X113132847Y-64796253D01*
X113112672Y-64962420D01*
X113089753Y-65007552D01*
X113043184Y-65027393D01*
X113039212Y-65027500D01*
X112970005Y-65027500D01*
X112804950Y-65068183D01*
X112654432Y-65147181D01*
X112652854Y-65148577D01*
X67300500Y-65148577D01*
X67300500Y-64110000D01*
X72014448Y-64110000D01*
X72034570Y-64262845D01*
X72093566Y-64405275D01*
X72093567Y-64405276D01*
X72187417Y-64527583D01*
X72309724Y-64621433D01*
X72452154Y-64680429D01*
X72566627Y-64695500D01*
X72566629Y-64695500D01*
X72643371Y-64695500D01*
X72643373Y-64695500D01*
X72757846Y-64680429D01*
X72900276Y-64621433D01*
X73022583Y-64527583D01*
X73116433Y-64405276D01*
X73175429Y-64262846D01*
X73183045Y-64204999D01*
X74949867Y-64204999D01*
X74968302Y-64333223D01*
X74968302Y-64333224D01*
X74968303Y-64333226D01*
X75022118Y-64451063D01*
X75106951Y-64548967D01*
X75215931Y-64619004D01*
X75340228Y-64655500D01*
X75469772Y-64655500D01*
X75594069Y-64619004D01*
X75703049Y-64548967D01*
X75787882Y-64451063D01*
X75817560Y-64386077D01*
X113415353Y-64386077D01*
X113817499Y-64788223D01*
X114219644Y-64386078D01*
X114219643Y-64386077D01*
X114940354Y-64386077D01*
X115342500Y-64788223D01*
X115744644Y-64386078D01*
X115743066Y-64384680D01*
X115743064Y-64384679D01*
X115592549Y-64305683D01*
X115427494Y-64265000D01*
X115257505Y-64265000D01*
X115092450Y-64305683D01*
X114941932Y-64384681D01*
X114940354Y-64386077D01*
X114219643Y-64386077D01*
X114218066Y-64384680D01*
X114218064Y-64384679D01*
X114067549Y-64305683D01*
X113902494Y-64265000D01*
X113732505Y-64265000D01*
X113567450Y-64305683D01*
X113416932Y-64384681D01*
X113415354Y-64386077D01*
X113415353Y-64386077D01*
X75817560Y-64386077D01*
X75841697Y-64333226D01*
X75860133Y-64205000D01*
X75841697Y-64076774D01*
X75787882Y-63958937D01*
X75703049Y-63861033D01*
X75630991Y-63814724D01*
X75594068Y-63790995D01*
X75469772Y-63754500D01*
X75340228Y-63754500D01*
X75215931Y-63790995D01*
X75106954Y-63861031D01*
X75106950Y-63861034D01*
X75022119Y-63958935D01*
X74968302Y-64076776D01*
X74949867Y-64204999D01*
X73183045Y-64204999D01*
X73195552Y-64110000D01*
X73175429Y-63957154D01*
X73116433Y-63814724D01*
X73022583Y-63692417D01*
X72900276Y-63598567D01*
X72900275Y-63598566D01*
X72757845Y-63539570D01*
X72670006Y-63528006D01*
X72643373Y-63524500D01*
X72566627Y-63524500D01*
X72542769Y-63527641D01*
X72452154Y-63539570D01*
X72309724Y-63598566D01*
X72187417Y-63692417D01*
X72093566Y-63814724D01*
X72034570Y-63957154D01*
X72014448Y-64110000D01*
X67300500Y-64110000D01*
X67300500Y-62680000D01*
X67919318Y-62680000D01*
X67939955Y-62836760D01*
X67939955Y-62836761D01*
X68000464Y-62982841D01*
X68096715Y-63108279D01*
X68096720Y-63108284D01*
X68180345Y-63172451D01*
X68222159Y-63204536D01*
X68368238Y-63265044D01*
X68485639Y-63280500D01*
X68485641Y-63280500D01*
X69364359Y-63280500D01*
X69364361Y-63280500D01*
X69481762Y-63265044D01*
X69627841Y-63204536D01*
X69753282Y-63108282D01*
X69849536Y-62982841D01*
X69910044Y-62836762D01*
X69930682Y-62680000D01*
X71949318Y-62680000D01*
X71969955Y-62836760D01*
X71969955Y-62836761D01*
X72030464Y-62982841D01*
X72126715Y-63108279D01*
X72126720Y-63108284D01*
X72210345Y-63172451D01*
X72252159Y-63204536D01*
X72398238Y-63265044D01*
X72515639Y-63280500D01*
X72515641Y-63280500D01*
X73694359Y-63280500D01*
X73694361Y-63280500D01*
X73811762Y-63265044D01*
X73957841Y-63204536D01*
X74083282Y-63108282D01*
X74179536Y-62982841D01*
X74240044Y-62836762D01*
X74260682Y-62680000D01*
X74240044Y-62523238D01*
X74179536Y-62377159D01*
X74083282Y-62251718D01*
X74083279Y-62251715D01*
X73957841Y-62155464D01*
X73811761Y-62094955D01*
X73721675Y-62083095D01*
X73694361Y-62079500D01*
X72515639Y-62079500D01*
X72491171Y-62082721D01*
X72398238Y-62094955D01*
X72252158Y-62155464D01*
X72126720Y-62251715D01*
X72126715Y-62251720D01*
X72030464Y-62377158D01*
X71969955Y-62523238D01*
X71969955Y-62523239D01*
X71949318Y-62680000D01*
X69930682Y-62680000D01*
X69910044Y-62523238D01*
X69849536Y-62377159D01*
X69753282Y-62251718D01*
X69753279Y-62251715D01*
X69627841Y-62155464D01*
X69481761Y-62094955D01*
X69391675Y-62083095D01*
X69364361Y-62079500D01*
X68485639Y-62079500D01*
X68461171Y-62082721D01*
X68368238Y-62094955D01*
X68222158Y-62155464D01*
X68096720Y-62251715D01*
X68096715Y-62251720D01*
X68000464Y-62377158D01*
X67939955Y-62523238D01*
X67939955Y-62523239D01*
X67919318Y-62680000D01*
X67300500Y-62680000D01*
X67300500Y-61160000D01*
X94444867Y-61160000D01*
X94463302Y-61288223D01*
X94463302Y-61288224D01*
X94463303Y-61288226D01*
X94517118Y-61406063D01*
X94601951Y-61503967D01*
X94710931Y-61574004D01*
X94835228Y-61610500D01*
X94964772Y-61610500D01*
X95089069Y-61574004D01*
X95198049Y-61503967D01*
X95282882Y-61406063D01*
X95336697Y-61288226D01*
X95355133Y-61160000D01*
X95336697Y-61031774D01*
X95282882Y-60913937D01*
X95198049Y-60816033D01*
X95092539Y-60748226D01*
X95089068Y-60745995D01*
X94964772Y-60709500D01*
X94835228Y-60709500D01*
X94710931Y-60745995D01*
X94601954Y-60816031D01*
X94601950Y-60816034D01*
X94517119Y-60913935D01*
X94463302Y-61031776D01*
X94444867Y-61160000D01*
X67300500Y-61160000D01*
X67300500Y-60619999D01*
X84914867Y-60619999D01*
X84933302Y-60748223D01*
X84933302Y-60748224D01*
X84933303Y-60748226D01*
X84987118Y-60866063D01*
X85071951Y-60963967D01*
X85180931Y-61034004D01*
X85305228Y-61070500D01*
X85434772Y-61070500D01*
X85559069Y-61034004D01*
X85668049Y-60963967D01*
X85752882Y-60866063D01*
X85792688Y-60778900D01*
X85828195Y-60742826D01*
X85878585Y-60738015D01*
X85920279Y-60766719D01*
X85927310Y-60778897D01*
X85967118Y-60866063D01*
X86051951Y-60963967D01*
X86160931Y-61034004D01*
X86285228Y-61070500D01*
X86414772Y-61070500D01*
X86539069Y-61034004D01*
X86648049Y-60963967D01*
X86732882Y-60866063D01*
X86786697Y-60748226D01*
X86805133Y-60620000D01*
X86786697Y-60491774D01*
X86758485Y-60430000D01*
X98664867Y-60430000D01*
X98683302Y-60558223D01*
X98683302Y-60558224D01*
X98683303Y-60558226D01*
X98737118Y-60676063D01*
X98821951Y-60773967D01*
X98930931Y-60844004D01*
X99055228Y-60880500D01*
X99184772Y-60880500D01*
X99309069Y-60844004D01*
X99418049Y-60773967D01*
X99502882Y-60676063D01*
X99556697Y-60558226D01*
X99575133Y-60430000D01*
X99556697Y-60301774D01*
X99502882Y-60183937D01*
X99418049Y-60086033D01*
X99351032Y-60042964D01*
X99309068Y-60015995D01*
X99184772Y-59979500D01*
X99055228Y-59979500D01*
X98930931Y-60015995D01*
X98821954Y-60086031D01*
X98821950Y-60086034D01*
X98737119Y-60183935D01*
X98683302Y-60301776D01*
X98664867Y-60430000D01*
X86758485Y-60430000D01*
X86732882Y-60373937D01*
X86648049Y-60276033D01*
X86567034Y-60223968D01*
X86539068Y-60205995D01*
X86414772Y-60169500D01*
X86285228Y-60169500D01*
X86160931Y-60205995D01*
X86051954Y-60276031D01*
X86051950Y-60276034D01*
X85967118Y-60373935D01*
X85927313Y-60461097D01*
X85891804Y-60497173D01*
X85841414Y-60501984D01*
X85799721Y-60473280D01*
X85792687Y-60461097D01*
X85752881Y-60373935D01*
X85690353Y-60301774D01*
X85668049Y-60276033D01*
X85587034Y-60223968D01*
X85559068Y-60205995D01*
X85434772Y-60169500D01*
X85305228Y-60169500D01*
X85180931Y-60205995D01*
X85071954Y-60276031D01*
X85071950Y-60276034D01*
X84987119Y-60373935D01*
X84933302Y-60491776D01*
X84914867Y-60619999D01*
X67300500Y-60619999D01*
X67300500Y-59782262D01*
X80397014Y-59782262D01*
X80530312Y-59852222D01*
X80683576Y-59889999D01*
X80683580Y-59890000D01*
X80841420Y-59890000D01*
X80841423Y-59889999D01*
X80994687Y-59852222D01*
X81127984Y-59782262D01*
X80762500Y-59416777D01*
X80397014Y-59782262D01*
X67300500Y-59782262D01*
X67300500Y-59240003D01*
X80107726Y-59240003D01*
X80126752Y-59396697D01*
X80182725Y-59544288D01*
X80223034Y-59602686D01*
X80553229Y-59272492D01*
X80662500Y-59272492D01*
X80700697Y-59325065D01*
X80746662Y-59340000D01*
X80778338Y-59340000D01*
X80824303Y-59325065D01*
X80862500Y-59272492D01*
X80862500Y-59239999D01*
X80939276Y-59239999D01*
X81301963Y-59602686D01*
X81342275Y-59544285D01*
X81370447Y-59470000D01*
X97774867Y-59470000D01*
X97793302Y-59598223D01*
X97793302Y-59598224D01*
X97793303Y-59598226D01*
X97847118Y-59716063D01*
X97931951Y-59813967D01*
X98040931Y-59884004D01*
X98165228Y-59920500D01*
X98294772Y-59920500D01*
X98419069Y-59884004D01*
X98528049Y-59813967D01*
X98612882Y-59716063D01*
X98666697Y-59598226D01*
X98685133Y-59470000D01*
X98666697Y-59341774D01*
X98612882Y-59223937D01*
X98528049Y-59126033D01*
X98430313Y-59063222D01*
X98419068Y-59055995D01*
X98294772Y-59019500D01*
X98165228Y-59019500D01*
X98040931Y-59055995D01*
X97931954Y-59126031D01*
X97931950Y-59126034D01*
X97847119Y-59223935D01*
X97793302Y-59341776D01*
X97774867Y-59470000D01*
X81370447Y-59470000D01*
X81398247Y-59396697D01*
X81417274Y-59240003D01*
X81417274Y-59239996D01*
X81398247Y-59083302D01*
X81342274Y-58935711D01*
X81301963Y-58877311D01*
X80939276Y-59239999D01*
X80862500Y-59239999D01*
X80862500Y-59207508D01*
X80824303Y-59154935D01*
X80778338Y-59140000D01*
X80746662Y-59140000D01*
X80700697Y-59154935D01*
X80662500Y-59207508D01*
X80662500Y-59272492D01*
X80553229Y-59272492D01*
X80585722Y-59239999D01*
X80223034Y-58877311D01*
X80182725Y-58935710D01*
X80126752Y-59083302D01*
X80107726Y-59239996D01*
X80107726Y-59240003D01*
X67300500Y-59240003D01*
X67300500Y-58697220D01*
X80396497Y-58697220D01*
X80762499Y-59063222D01*
X81128501Y-58697220D01*
X81128501Y-58682778D01*
X80762500Y-58316777D01*
X80396497Y-58682779D01*
X80396497Y-58697220D01*
X67300500Y-58697220D01*
X67300500Y-58140003D01*
X80107726Y-58140003D01*
X80126752Y-58296697D01*
X80182725Y-58444288D01*
X80223035Y-58502686D01*
X80553229Y-58172492D01*
X80662500Y-58172492D01*
X80700697Y-58225065D01*
X80746662Y-58240000D01*
X80778338Y-58240000D01*
X80824303Y-58225065D01*
X80862500Y-58172492D01*
X80862500Y-58139999D01*
X80939277Y-58139999D01*
X81301963Y-58502686D01*
X81342275Y-58444285D01*
X81398247Y-58296697D01*
X81417274Y-58140003D01*
X81417274Y-58139996D01*
X81398247Y-57983302D01*
X81342274Y-57835711D01*
X81301963Y-57777311D01*
X80939277Y-58139999D01*
X80862500Y-58139999D01*
X80862500Y-58107508D01*
X80824303Y-58054935D01*
X80778338Y-58040000D01*
X80746662Y-58040000D01*
X80700697Y-58054935D01*
X80662500Y-58107508D01*
X80662500Y-58172492D01*
X80553229Y-58172492D01*
X80585722Y-58139999D01*
X80223034Y-57777311D01*
X80182725Y-57835710D01*
X80126752Y-57983302D01*
X80107726Y-58139996D01*
X80107726Y-58140003D01*
X67300500Y-58140003D01*
X67300500Y-57597736D01*
X80397014Y-57597736D01*
X80762499Y-57963221D01*
X81127984Y-57597736D01*
X80994687Y-57527777D01*
X80841423Y-57490000D01*
X80683576Y-57490000D01*
X80530310Y-57527777D01*
X80397014Y-57597736D01*
X67300500Y-57597736D01*
X67300500Y-56329999D01*
X89974867Y-56329999D01*
X89993302Y-56458223D01*
X89993302Y-56458224D01*
X89993303Y-56458226D01*
X90047118Y-56576063D01*
X90131951Y-56673967D01*
X90240931Y-56744004D01*
X90365228Y-56780500D01*
X90494772Y-56780500D01*
X90619069Y-56744004D01*
X90728049Y-56673967D01*
X90812882Y-56576063D01*
X90866697Y-56458226D01*
X90882257Y-56350000D01*
X93744867Y-56350000D01*
X93763302Y-56478223D01*
X93763302Y-56478224D01*
X93763303Y-56478226D01*
X93817118Y-56596063D01*
X93901951Y-56693967D01*
X94010931Y-56764004D01*
X94135228Y-56800500D01*
X94264772Y-56800500D01*
X94389069Y-56764004D01*
X94498049Y-56693967D01*
X94582882Y-56596063D01*
X94636697Y-56478226D01*
X94650820Y-56380000D01*
X118624867Y-56380000D01*
X118643302Y-56508223D01*
X118643302Y-56508224D01*
X118643303Y-56508226D01*
X118697118Y-56626063D01*
X118781951Y-56723967D01*
X118890931Y-56794004D01*
X119015228Y-56830500D01*
X119144772Y-56830500D01*
X119269069Y-56794004D01*
X119378049Y-56723967D01*
X119462882Y-56626063D01*
X119516697Y-56508226D01*
X119535133Y-56380000D01*
X119516697Y-56251774D01*
X119462882Y-56133937D01*
X119378049Y-56036033D01*
X119300244Y-55986031D01*
X119269068Y-55965995D01*
X119144772Y-55929500D01*
X119015228Y-55929500D01*
X118890931Y-55965995D01*
X118781954Y-56036031D01*
X118781950Y-56036034D01*
X118697119Y-56133935D01*
X118643302Y-56251776D01*
X118624867Y-56380000D01*
X94650820Y-56380000D01*
X94655133Y-56350000D01*
X94636697Y-56221774D01*
X94582882Y-56103937D01*
X94498049Y-56006033D01*
X94431032Y-55962964D01*
X94389068Y-55935995D01*
X94264772Y-55899500D01*
X94135228Y-55899500D01*
X94010931Y-55935995D01*
X93901954Y-56006031D01*
X93901950Y-56006034D01*
X93817119Y-56103935D01*
X93763302Y-56221776D01*
X93744867Y-56350000D01*
X90882257Y-56350000D01*
X90885133Y-56330000D01*
X90866697Y-56201774D01*
X90812882Y-56083937D01*
X90728049Y-55986033D01*
X90640082Y-55929500D01*
X90619068Y-55915995D01*
X90494772Y-55879500D01*
X90365228Y-55879500D01*
X90240931Y-55915995D01*
X90131954Y-55986031D01*
X90131950Y-55986034D01*
X90047119Y-56083935D01*
X90047118Y-56083936D01*
X90047118Y-56083937D01*
X90020210Y-56142855D01*
X89993302Y-56201776D01*
X89974867Y-56329999D01*
X67300500Y-56329999D01*
X67300500Y-53275325D01*
X68969084Y-53275325D01*
X68978913Y-53506699D01*
X68978914Y-53506706D01*
X69027705Y-53733098D01*
X69027706Y-53733100D01*
X69114056Y-53947991D01*
X69176353Y-54049167D01*
X69235479Y-54145195D01*
X69235481Y-54145197D01*
X69388488Y-54319047D01*
X69568674Y-54464537D01*
X69568678Y-54464539D01*
X69568679Y-54464540D01*
X69770856Y-54577482D01*
X69770856Y-54577483D01*
X69989218Y-54654635D01*
X70217478Y-54693774D01*
X70217481Y-54693774D01*
X70391065Y-54693774D01*
X70391069Y-54693774D01*
X70564031Y-54679053D01*
X70788149Y-54620697D01*
X70999182Y-54525304D01*
X71191058Y-54395619D01*
X71358256Y-54235372D01*
X71495968Y-54049173D01*
X71600231Y-53842379D01*
X71668046Y-53620939D01*
X71697463Y-53391224D01*
X71687634Y-53159841D01*
X71638842Y-52933448D01*
X71552492Y-52718557D01*
X71431067Y-52521351D01*
X71278060Y-52347501D01*
X71097874Y-52202011D01*
X71097870Y-52202009D01*
X71097868Y-52202007D01*
X70895691Y-52089064D01*
X70735242Y-52032374D01*
X70677330Y-52011913D01*
X70607853Y-52000000D01*
X85254435Y-52000000D01*
X85274632Y-52179254D01*
X85274634Y-52179263D01*
X85334209Y-52349520D01*
X85405547Y-52463054D01*
X85430184Y-52502262D01*
X85557738Y-52629816D01*
X85653712Y-52690120D01*
X85710479Y-52725790D01*
X85880736Y-52785365D01*
X85880745Y-52785368D01*
X86015046Y-52800500D01*
X86015050Y-52800500D01*
X86104950Y-52800500D01*
X86104954Y-52800500D01*
X86239255Y-52785368D01*
X86307481Y-52761494D01*
X86409520Y-52725790D01*
X86421028Y-52718559D01*
X86562262Y-52629816D01*
X86689816Y-52502262D01*
X86785789Y-52349522D01*
X86845368Y-52179255D01*
X86865565Y-52000000D01*
X86851481Y-51874999D01*
X87356160Y-51874999D01*
X87356161Y-51875000D01*
X88115595Y-51875000D01*
X88100000Y-51928111D01*
X88100000Y-52071889D01*
X88115595Y-52125000D01*
X87356161Y-52125000D01*
X87364287Y-52217885D01*
X87364288Y-52217893D01*
X87420895Y-52429153D01*
X87513334Y-52627388D01*
X87638785Y-52806551D01*
X87793448Y-52961214D01*
X87972611Y-53086665D01*
X88170846Y-53179104D01*
X88382106Y-53235711D01*
X88382113Y-53235712D01*
X88475000Y-53243838D01*
X88475000Y-52487169D01*
X88564237Y-52500000D01*
X88635763Y-52500000D01*
X88725000Y-52487169D01*
X88725000Y-53243837D01*
X88817886Y-53235712D01*
X88817893Y-53235711D01*
X89029153Y-53179104D01*
X89227388Y-53086665D01*
X89406551Y-52961214D01*
X89561214Y-52806551D01*
X89686665Y-52627388D01*
X89779104Y-52429153D01*
X89835711Y-52217893D01*
X89835712Y-52217885D01*
X89843839Y-52125000D01*
X89084405Y-52125000D01*
X89100000Y-52071889D01*
X89100000Y-52000000D01*
X90334435Y-52000000D01*
X90354632Y-52179254D01*
X90354634Y-52179263D01*
X90414209Y-52349520D01*
X90485547Y-52463054D01*
X90510184Y-52502262D01*
X90637738Y-52629816D01*
X90733712Y-52690120D01*
X90790479Y-52725790D01*
X90960736Y-52785365D01*
X90960745Y-52785368D01*
X91095046Y-52800500D01*
X91095050Y-52800500D01*
X91184950Y-52800500D01*
X91184954Y-52800500D01*
X91319255Y-52785368D01*
X91387481Y-52761494D01*
X91489520Y-52725790D01*
X91501028Y-52718559D01*
X91642262Y-52629816D01*
X91769816Y-52502262D01*
X91865789Y-52349522D01*
X91925368Y-52179255D01*
X91945565Y-52000000D01*
X92874435Y-52000000D01*
X92894632Y-52179254D01*
X92894634Y-52179263D01*
X92954209Y-52349520D01*
X93025547Y-52463054D01*
X93050184Y-52502262D01*
X93177738Y-52629816D01*
X93273712Y-52690120D01*
X93330479Y-52725790D01*
X93500736Y-52785365D01*
X93500745Y-52785368D01*
X93635046Y-52800500D01*
X93635050Y-52800500D01*
X93724950Y-52800500D01*
X93724954Y-52800500D01*
X93859255Y-52785368D01*
X93927481Y-52761494D01*
X94029520Y-52725790D01*
X94041028Y-52718559D01*
X94182262Y-52629816D01*
X94309816Y-52502262D01*
X94405789Y-52349522D01*
X94465368Y-52179255D01*
X94485565Y-52000000D01*
X95414435Y-52000000D01*
X95434632Y-52179254D01*
X95434634Y-52179263D01*
X95494209Y-52349520D01*
X95565547Y-52463054D01*
X95590184Y-52502262D01*
X95717738Y-52629816D01*
X95813712Y-52690120D01*
X95870479Y-52725790D01*
X96040736Y-52785365D01*
X96040745Y-52785368D01*
X96175046Y-52800500D01*
X96175050Y-52800500D01*
X96264950Y-52800500D01*
X96264954Y-52800500D01*
X96399255Y-52785368D01*
X96467481Y-52761494D01*
X96569520Y-52725790D01*
X96581028Y-52718559D01*
X96722262Y-52629816D01*
X96849816Y-52502262D01*
X96945789Y-52349522D01*
X97005368Y-52179255D01*
X97025565Y-52000000D01*
X97954435Y-52000000D01*
X97974632Y-52179254D01*
X97974634Y-52179263D01*
X98034209Y-52349520D01*
X98105547Y-52463054D01*
X98130184Y-52502262D01*
X98257738Y-52629816D01*
X98353712Y-52690120D01*
X98410479Y-52725790D01*
X98580736Y-52785365D01*
X98580745Y-52785368D01*
X98715046Y-52800500D01*
X98715050Y-52800500D01*
X98804950Y-52800500D01*
X98804954Y-52800500D01*
X98939255Y-52785368D01*
X99007481Y-52761494D01*
X99109520Y-52725790D01*
X99121028Y-52718559D01*
X99262262Y-52629816D01*
X99389816Y-52502262D01*
X99485789Y-52349522D01*
X99545368Y-52179255D01*
X99565565Y-52000000D01*
X100494435Y-52000000D01*
X100514632Y-52179254D01*
X100514634Y-52179263D01*
X100574209Y-52349520D01*
X100645547Y-52463054D01*
X100670184Y-52502262D01*
X100797738Y-52629816D01*
X100893712Y-52690120D01*
X100950479Y-52725790D01*
X101120736Y-52785365D01*
X101120745Y-52785368D01*
X101255046Y-52800500D01*
X101255050Y-52800500D01*
X101344950Y-52800500D01*
X101344954Y-52800500D01*
X101479255Y-52785368D01*
X101547481Y-52761494D01*
X101649520Y-52725790D01*
X101661028Y-52718559D01*
X101802262Y-52629816D01*
X101929816Y-52502262D01*
X102025789Y-52349522D01*
X102085368Y-52179255D01*
X102105565Y-52000000D01*
X103034435Y-52000000D01*
X103054632Y-52179254D01*
X103054634Y-52179263D01*
X103114209Y-52349520D01*
X103185547Y-52463054D01*
X103210184Y-52502262D01*
X103337738Y-52629816D01*
X103433712Y-52690120D01*
X103490479Y-52725790D01*
X103660736Y-52785365D01*
X103660745Y-52785368D01*
X103795046Y-52800500D01*
X103795050Y-52800500D01*
X103884950Y-52800500D01*
X103884954Y-52800500D01*
X104019255Y-52785368D01*
X104087481Y-52761494D01*
X104189520Y-52725790D01*
X104201028Y-52718559D01*
X104342262Y-52629816D01*
X104469816Y-52502262D01*
X104565789Y-52349522D01*
X104625368Y-52179255D01*
X104645565Y-52000000D01*
X105574435Y-52000000D01*
X105594632Y-52179254D01*
X105594634Y-52179263D01*
X105654209Y-52349520D01*
X105725547Y-52463054D01*
X105750184Y-52502262D01*
X105877738Y-52629816D01*
X105973712Y-52690120D01*
X106030479Y-52725790D01*
X106200736Y-52785365D01*
X106200745Y-52785368D01*
X106335046Y-52800500D01*
X106335050Y-52800500D01*
X106424950Y-52800500D01*
X106424954Y-52800500D01*
X106559255Y-52785368D01*
X106627481Y-52761494D01*
X106729520Y-52725790D01*
X106741028Y-52718559D01*
X106882262Y-52629816D01*
X107009816Y-52502262D01*
X107105789Y-52349522D01*
X107165368Y-52179255D01*
X107185565Y-52000000D01*
X108114435Y-52000000D01*
X108134632Y-52179254D01*
X108134634Y-52179263D01*
X108194209Y-52349520D01*
X108265547Y-52463054D01*
X108290184Y-52502262D01*
X108417738Y-52629816D01*
X108513712Y-52690120D01*
X108570479Y-52725790D01*
X108740736Y-52785365D01*
X108740745Y-52785368D01*
X108875046Y-52800500D01*
X108875050Y-52800500D01*
X108964950Y-52800500D01*
X108964954Y-52800500D01*
X109099255Y-52785368D01*
X109167481Y-52761494D01*
X109269520Y-52725790D01*
X109281028Y-52718559D01*
X109422262Y-52629816D01*
X109549816Y-52502262D01*
X109645789Y-52349522D01*
X109705368Y-52179255D01*
X109725565Y-52000000D01*
X110654435Y-52000000D01*
X110674632Y-52179254D01*
X110674634Y-52179263D01*
X110734209Y-52349520D01*
X110805547Y-52463054D01*
X110830184Y-52502262D01*
X110957738Y-52629816D01*
X111053712Y-52690120D01*
X111110479Y-52725790D01*
X111280736Y-52785365D01*
X111280745Y-52785368D01*
X111415046Y-52800500D01*
X111415050Y-52800500D01*
X111504950Y-52800500D01*
X111504954Y-52800500D01*
X111639255Y-52785368D01*
X111707481Y-52761494D01*
X111809520Y-52725790D01*
X111821028Y-52718559D01*
X111962262Y-52629816D01*
X112089816Y-52502262D01*
X112185789Y-52349522D01*
X112245368Y-52179255D01*
X112265565Y-52000000D01*
X113194435Y-52000000D01*
X113214632Y-52179254D01*
X113214634Y-52179263D01*
X113274209Y-52349520D01*
X113345547Y-52463054D01*
X113370184Y-52502262D01*
X113497738Y-52629816D01*
X113593712Y-52690120D01*
X113650479Y-52725790D01*
X113820736Y-52785365D01*
X113820745Y-52785368D01*
X113955046Y-52800500D01*
X113955050Y-52800500D01*
X114044950Y-52800500D01*
X114044954Y-52800500D01*
X114179255Y-52785368D01*
X114247481Y-52761494D01*
X114349520Y-52725790D01*
X114361028Y-52718559D01*
X114502262Y-52629816D01*
X114629816Y-52502262D01*
X114725789Y-52349522D01*
X114785368Y-52179255D01*
X114805565Y-52000000D01*
X115734435Y-52000000D01*
X115754632Y-52179254D01*
X115754634Y-52179263D01*
X115814209Y-52349520D01*
X115885547Y-52463054D01*
X115910184Y-52502262D01*
X116037738Y-52629816D01*
X116133712Y-52690120D01*
X116190479Y-52725790D01*
X116360736Y-52785365D01*
X116360745Y-52785368D01*
X116495046Y-52800500D01*
X116495050Y-52800500D01*
X116584950Y-52800500D01*
X116584954Y-52800500D01*
X116719255Y-52785368D01*
X116787481Y-52761494D01*
X116889520Y-52725790D01*
X116901028Y-52718559D01*
X117042262Y-52629816D01*
X117169816Y-52502262D01*
X117265789Y-52349522D01*
X117325368Y-52179255D01*
X117345565Y-52000000D01*
X118274435Y-52000000D01*
X118294632Y-52179254D01*
X118294634Y-52179263D01*
X118354209Y-52349520D01*
X118425547Y-52463054D01*
X118450184Y-52502262D01*
X118577738Y-52629816D01*
X118673712Y-52690120D01*
X118730479Y-52725790D01*
X118900736Y-52785365D01*
X118900745Y-52785368D01*
X119035046Y-52800500D01*
X119035050Y-52800500D01*
X119124950Y-52800500D01*
X119124954Y-52800500D01*
X119259255Y-52785368D01*
X119327481Y-52761494D01*
X119429520Y-52725790D01*
X119441028Y-52718559D01*
X119582262Y-52629816D01*
X119709816Y-52502262D01*
X119805789Y-52349522D01*
X119865368Y-52179255D01*
X119885565Y-52000000D01*
X119865368Y-51820745D01*
X119865365Y-51820736D01*
X119805790Y-51650479D01*
X119755748Y-51570838D01*
X119709816Y-51497738D01*
X119582262Y-51370184D01*
X119543054Y-51345547D01*
X119429520Y-51274209D01*
X119259263Y-51214634D01*
X119259256Y-51214632D01*
X119259255Y-51214632D01*
X119124954Y-51199500D01*
X119035046Y-51199500D01*
X118900745Y-51214632D01*
X118900736Y-51214634D01*
X118730479Y-51274209D01*
X118577739Y-51370183D01*
X118450183Y-51497739D01*
X118354209Y-51650479D01*
X118294634Y-51820736D01*
X118294632Y-51820745D01*
X118274435Y-52000000D01*
X117345565Y-52000000D01*
X117325368Y-51820745D01*
X117325365Y-51820736D01*
X117265790Y-51650479D01*
X117215748Y-51570838D01*
X117169816Y-51497738D01*
X117042262Y-51370184D01*
X117003054Y-51345547D01*
X116889520Y-51274209D01*
X116719263Y-51214634D01*
X116719256Y-51214632D01*
X116719255Y-51214632D01*
X116584954Y-51199500D01*
X116495046Y-51199500D01*
X116360745Y-51214632D01*
X116360736Y-51214634D01*
X116190479Y-51274209D01*
X116037739Y-51370183D01*
X115910183Y-51497739D01*
X115814209Y-51650479D01*
X115754634Y-51820736D01*
X115754632Y-51820745D01*
X115734435Y-52000000D01*
X114805565Y-52000000D01*
X114785368Y-51820745D01*
X114785365Y-51820736D01*
X114725790Y-51650479D01*
X114675748Y-51570838D01*
X114629816Y-51497738D01*
X114502262Y-51370184D01*
X114463054Y-51345547D01*
X114349520Y-51274209D01*
X114179263Y-51214634D01*
X114179256Y-51214632D01*
X114179255Y-51214632D01*
X114044954Y-51199500D01*
X113955046Y-51199500D01*
X113820745Y-51214632D01*
X113820736Y-51214634D01*
X113650479Y-51274209D01*
X113497739Y-51370183D01*
X113370183Y-51497739D01*
X113274209Y-51650479D01*
X113214634Y-51820736D01*
X113214632Y-51820745D01*
X113194435Y-52000000D01*
X112265565Y-52000000D01*
X112245368Y-51820745D01*
X112245365Y-51820736D01*
X112185790Y-51650479D01*
X112135748Y-51570838D01*
X112089816Y-51497738D01*
X111962262Y-51370184D01*
X111923054Y-51345547D01*
X111809520Y-51274209D01*
X111639263Y-51214634D01*
X111639256Y-51214632D01*
X111639255Y-51214632D01*
X111504954Y-51199500D01*
X111415046Y-51199500D01*
X111280745Y-51214632D01*
X111280736Y-51214634D01*
X111110479Y-51274209D01*
X110957739Y-51370183D01*
X110830183Y-51497739D01*
X110734209Y-51650479D01*
X110674634Y-51820736D01*
X110674632Y-51820745D01*
X110654435Y-52000000D01*
X109725565Y-52000000D01*
X109705368Y-51820745D01*
X109705365Y-51820736D01*
X109645790Y-51650479D01*
X109595748Y-51570838D01*
X109549816Y-51497738D01*
X109422262Y-51370184D01*
X109383054Y-51345547D01*
X109269520Y-51274209D01*
X109099263Y-51214634D01*
X109099256Y-51214632D01*
X109099255Y-51214632D01*
X108964954Y-51199500D01*
X108875046Y-51199500D01*
X108740745Y-51214632D01*
X108740736Y-51214634D01*
X108570479Y-51274209D01*
X108417739Y-51370183D01*
X108290183Y-51497739D01*
X108194209Y-51650479D01*
X108134634Y-51820736D01*
X108134632Y-51820745D01*
X108114435Y-52000000D01*
X107185565Y-52000000D01*
X107165368Y-51820745D01*
X107165365Y-51820736D01*
X107105790Y-51650479D01*
X107055748Y-51570838D01*
X107009816Y-51497738D01*
X106882262Y-51370184D01*
X106843054Y-51345547D01*
X106729520Y-51274209D01*
X106559263Y-51214634D01*
X106559256Y-51214632D01*
X106559255Y-51214632D01*
X106424954Y-51199500D01*
X106335046Y-51199500D01*
X106200745Y-51214632D01*
X106200736Y-51214634D01*
X106030479Y-51274209D01*
X105877739Y-51370183D01*
X105750183Y-51497739D01*
X105654209Y-51650479D01*
X105594634Y-51820736D01*
X105594632Y-51820745D01*
X105574435Y-52000000D01*
X104645565Y-52000000D01*
X104625368Y-51820745D01*
X104625365Y-51820736D01*
X104565790Y-51650479D01*
X104515748Y-51570838D01*
X104469816Y-51497738D01*
X104342262Y-51370184D01*
X104303054Y-51345547D01*
X104189520Y-51274209D01*
X104019263Y-51214634D01*
X104019256Y-51214632D01*
X104019255Y-51214632D01*
X103884954Y-51199500D01*
X103795046Y-51199500D01*
X103660745Y-51214632D01*
X103660736Y-51214634D01*
X103490479Y-51274209D01*
X103337739Y-51370183D01*
X103210183Y-51497739D01*
X103114209Y-51650479D01*
X103054634Y-51820736D01*
X103054632Y-51820745D01*
X103034435Y-52000000D01*
X102105565Y-52000000D01*
X102085368Y-51820745D01*
X102085365Y-51820736D01*
X102025790Y-51650479D01*
X101975748Y-51570838D01*
X101929816Y-51497738D01*
X101802262Y-51370184D01*
X101763054Y-51345547D01*
X101649520Y-51274209D01*
X101479263Y-51214634D01*
X101479256Y-51214632D01*
X101479255Y-51214632D01*
X101344954Y-51199500D01*
X101255046Y-51199500D01*
X101120745Y-51214632D01*
X101120736Y-51214634D01*
X100950479Y-51274209D01*
X100797739Y-51370183D01*
X100670183Y-51497739D01*
X100574209Y-51650479D01*
X100514634Y-51820736D01*
X100514632Y-51820745D01*
X100494435Y-52000000D01*
X99565565Y-52000000D01*
X99545368Y-51820745D01*
X99545365Y-51820736D01*
X99485790Y-51650479D01*
X99435748Y-51570838D01*
X99389816Y-51497738D01*
X99262262Y-51370184D01*
X99223054Y-51345547D01*
X99109520Y-51274209D01*
X98939263Y-51214634D01*
X98939256Y-51214632D01*
X98939255Y-51214632D01*
X98804954Y-51199500D01*
X98715046Y-51199500D01*
X98580745Y-51214632D01*
X98580736Y-51214634D01*
X98410479Y-51274209D01*
X98257739Y-51370183D01*
X98130183Y-51497739D01*
X98034209Y-51650479D01*
X97974634Y-51820736D01*
X97974632Y-51820745D01*
X97954435Y-52000000D01*
X97025565Y-52000000D01*
X97005368Y-51820745D01*
X97005365Y-51820736D01*
X96945790Y-51650479D01*
X96895748Y-51570838D01*
X96849816Y-51497738D01*
X96722262Y-51370184D01*
X96683054Y-51345547D01*
X96569520Y-51274209D01*
X96399263Y-51214634D01*
X96399256Y-51214632D01*
X96399255Y-51214632D01*
X96264954Y-51199500D01*
X96175046Y-51199500D01*
X96040745Y-51214632D01*
X96040736Y-51214634D01*
X95870479Y-51274209D01*
X95717739Y-51370183D01*
X95590183Y-51497739D01*
X95494209Y-51650479D01*
X95434634Y-51820736D01*
X95434632Y-51820745D01*
X95414435Y-52000000D01*
X94485565Y-52000000D01*
X94465368Y-51820745D01*
X94465365Y-51820736D01*
X94405790Y-51650479D01*
X94355748Y-51570838D01*
X94309816Y-51497738D01*
X94182262Y-51370184D01*
X94143054Y-51345547D01*
X94029520Y-51274209D01*
X93859263Y-51214634D01*
X93859256Y-51214632D01*
X93859255Y-51214632D01*
X93724954Y-51199500D01*
X93635046Y-51199500D01*
X93500745Y-51214632D01*
X93500736Y-51214634D01*
X93330479Y-51274209D01*
X93177739Y-51370183D01*
X93050183Y-51497739D01*
X92954209Y-51650479D01*
X92894634Y-51820736D01*
X92894632Y-51820745D01*
X92874435Y-52000000D01*
X91945565Y-52000000D01*
X91925368Y-51820745D01*
X91925365Y-51820736D01*
X91865790Y-51650479D01*
X91815748Y-51570838D01*
X91769816Y-51497738D01*
X91642262Y-51370184D01*
X91603054Y-51345547D01*
X91489520Y-51274209D01*
X91319263Y-51214634D01*
X91319256Y-51214632D01*
X91319255Y-51214632D01*
X91184954Y-51199500D01*
X91095046Y-51199500D01*
X90960745Y-51214632D01*
X90960736Y-51214634D01*
X90790479Y-51274209D01*
X90637739Y-51370183D01*
X90510183Y-51497739D01*
X90414209Y-51650479D01*
X90354634Y-51820736D01*
X90354632Y-51820745D01*
X90334435Y-52000000D01*
X89100000Y-52000000D01*
X89100000Y-51928111D01*
X89084405Y-51875000D01*
X89843839Y-51875000D01*
X89843839Y-51874999D01*
X89835712Y-51782114D01*
X89835711Y-51782106D01*
X89779105Y-51570849D01*
X89779100Y-51570838D01*
X89686665Y-51372612D01*
X89561212Y-51193445D01*
X89406551Y-51038785D01*
X89406552Y-51038785D01*
X89227388Y-50913334D01*
X89029153Y-50820895D01*
X88817893Y-50764288D01*
X88817885Y-50764287D01*
X88725000Y-50756160D01*
X88725000Y-51512830D01*
X88635763Y-51500000D01*
X88564237Y-51500000D01*
X88474999Y-51512830D01*
X88475000Y-50756161D01*
X88474999Y-50756160D01*
X88382114Y-50764287D01*
X88382106Y-50764288D01*
X88170849Y-50820894D01*
X88170838Y-50820899D01*
X87972612Y-50913334D01*
X87793445Y-51038787D01*
X87638787Y-51193445D01*
X87513334Y-51372612D01*
X87420899Y-51570838D01*
X87420894Y-51570849D01*
X87364288Y-51782106D01*
X87364287Y-51782114D01*
X87356160Y-51874999D01*
X86851481Y-51874999D01*
X86845368Y-51820745D01*
X86845365Y-51820736D01*
X86785790Y-51650479D01*
X86735748Y-51570838D01*
X86689816Y-51497738D01*
X86562262Y-51370184D01*
X86523054Y-51345547D01*
X86409520Y-51274209D01*
X86239263Y-51214634D01*
X86239256Y-51214632D01*
X86239255Y-51214632D01*
X86104954Y-51199500D01*
X86015046Y-51199500D01*
X85880745Y-51214632D01*
X85880736Y-51214634D01*
X85710479Y-51274209D01*
X85557739Y-51370183D01*
X85430183Y-51497739D01*
X85334209Y-51650479D01*
X85274634Y-51820736D01*
X85274632Y-51820745D01*
X85254435Y-52000000D01*
X70607853Y-52000000D01*
X70449070Y-51972774D01*
X70275479Y-51972774D01*
X70275475Y-51972774D01*
X70275458Y-51972775D01*
X70102520Y-51987494D01*
X69878402Y-52045850D01*
X69878397Y-52045851D01*
X69667364Y-52141245D01*
X69475488Y-52270930D01*
X69308291Y-52431176D01*
X69170578Y-52617378D01*
X69170577Y-52617380D01*
X69066316Y-52824168D01*
X68998503Y-53045602D01*
X68998502Y-53045608D01*
X68998502Y-53045609D01*
X68983874Y-53159841D01*
X68969085Y-53275324D01*
X68969084Y-53275325D01*
X67300500Y-53275325D01*
X67300500Y-51001821D01*
X67300678Y-50998193D01*
X67303242Y-50972156D01*
X67313227Y-50870780D01*
X67316054Y-50856566D01*
X67351632Y-50739278D01*
X67357178Y-50725890D01*
X67414954Y-50617800D01*
X67423006Y-50605749D01*
X67500756Y-50511011D01*
X67511013Y-50500755D01*
X67605749Y-50423006D01*
X67617800Y-50414954D01*
X67725890Y-50357178D01*
X67739278Y-50351632D01*
X67856566Y-50316054D01*
X67870780Y-50313227D01*
X67977605Y-50302705D01*
X67998194Y-50300678D01*
X68001822Y-50300500D01*
X68047595Y-50300500D01*
X120003700Y-50300500D01*
X120051266Y-50317813D01*
G37*
%TD.AperFunction*%
%TD*%
M02*
